<svg xmlns="http://www.w3.org/2000/svg" viewBox="0 0 2000 2000"><defs><style>.cls-1{fill:#693425;}.cls-2{fill:#542b1e;}.cls-3{fill:#331910;opacity:0.2;}.cls-4{fill:#b3b3b3;}.cls-5{fill:#003152;}.cls-6{fill:#66181c;}.cls-7{fill:#f2f2f2;}.cls-8{fill:#ad292f;}.cls-9{opacity:0.12;}.cls-10{fill:#a8b5b5;}.cls-11{fill:#869191;opacity:0.61;}.cls-12{fill:#ad5b3c;}.cls-13,.cls-15{fill:#8a452e;}.cls-13{opacity:0.54;}.cls-14{fill:#362e2a;}.cls-16{fill:#ce7b46;}.cls-17{fill:#ba613e;opacity:0.35;}.cls-18{fill:#2b201f;}.cls-19{fill:#fff;}.cls-20{opacity:0.4;}.cls-21{fill:#562c1f;}.cls-22{fill:#8c4833;}.cls-23{fill:#291b15;}.cls-24{fill:#3b261f;}.cls-25{fill:#cd7c46;}.cls-26{fill:#503a36;}.cls-27{fill:#c7b299;opacity:0.25;}.cls-28,.cls-29{fill:none;stroke-linecap:round;stroke-miterlimit:10;stroke-width:20.68px;}.cls-28{stroke:#534741;}.cls-29{stroke:#423834;}</style></defs><title>bebras-logo</title><g id="Layer_5" data-name="Layer 5"><path class="cls-1" d="M966.77,1485.15a685.83,685.83,0,0,1-149.29-23.35C626.1,1409.6,418.59,1262.1,363,1052.67c-12.49-47.05-34.64-135.82,12.65-214.73,6.66-11.11,48-77.53,122.38-91.2,87.31-16,163,51,187.29,72.52C858.9,973,785,1198.81,964,1333.6a348,348,0,0,0,76.8,43.64Z"/><path class="cls-2" d="M964,1333.6C785,1198.81,858.9,973,685.35,819.26,663,799.47,597.1,741.09,518.68,744.43c46.45,61.48,130.56,141.06,211.26,212.27-13.81,10.47-31.43,27.14-42,51.91-32.39,75.81,39.39,143,13.79,174.1-38.11,46.37-216.57,5.54-293.81-111.58-45.74-69.37-42.78-145.45-42.32-153.87a256.27,256.27,0,0,1,30.57-107.62,224.79,224.79,0,0,0-16.89,22.57l-.13.2-1.47,2.31-.18.29-.45.72-.46.74-.29.48-.6,1c-47.29,78.91-25.14,167.68-12.65,214.73C418.59,1262.1,626.1,1409.6,817.48,1461.8a685.83,685.83,0,0,0,149.29,23.35l74-107.91C1008.09,1365.23,983.09,1349.41,964,1333.6Z"/><path class="cls-3" d="M744.79,932.25a9.48,9.48,0,0,0-11-7.6,611.88,611.88,0,0,1-120.94,10.13h-.39a450.38,450.38,0,0,0-1.89-125.26,9.48,9.48,0,1,0-18.74,2.9,431.64,431.64,0,0,1,1.61,121.73,614,614,0,0,1-158.27-28.78,9.48,9.48,0,0,0-5.8,18A632.91,632.91,0,0,0,590.53,953c-.66,3.75-1.35,7.49-2.11,11.22a428.25,428.25,0,0,1-31.48,95.56,9.48,9.48,0,1,0,17.19,8A447.83,447.83,0,0,0,607,968c1-4.76,1.83-9.53,2.64-14.31,1,0,1.91.06,2.86.07q5,.07,10,.08A631.85,631.85,0,0,0,737.2,943.3,9.48,9.48,0,0,0,744.79,932.25Z"/><path class="cls-4" d="M868.19,206.57a273.34,273.34,0,0,1,53,24.82c78.91,48,117.45,127.18,156.3,209.46,9.88,20.93,17.15,38.36,21.59,49.4L896.89,681.85l-165.84-67Z"/><path class="cls-5" d="M1042.83,370.88a399.44,399.44,0,0,0,32.93,94.75c5.46,11,11.18,21.2,17,30.64l6.35-6c-4.44-11-11.71-28.47-21.59-49.4C1066.23,417,1055,393.49,1042.83,370.88Z"/><path class="cls-6" d="M1027.07,434.18c-1.36-3.19-.72-2-20.68-78.87-4.14-15.91-9-34.43-19.4-57.31-6.18-13.67-9.45-20.89-16.14-29.61-3.16-4.12-14.26-15.47-49.67-37a273.34,273.34,0,0,0-53-24.82L803.21,400C845,479.32,862.37,493,873.51,500.68c56.82,39.43,117.72,40.29,131,40.22a226.29,226.29,0,0,0,46.45-5.07l35.26-33.4C1051.23,478.41,1035.2,453.29,1027.07,434.18Z"/><path class="cls-7" d="M411.69,513c24.93-52,81.93-152.2,195.75-227.85,61.16-40.64,175.5-116.63,263.43-77.34,97.7,43.66,57.61,182.63,176.43,258.6,86.67,55.41,188.87,33.16,214.76,27.53,150.38-32.74,218.24-161.18,227.51-179.46,3.91,43.5,20.18,206,72.5,333.19,27.19,66.08,56.79,104.82,99.09,125.67A157.77,157.77,0,0,0,1695,785.46c-15.87,30.7-43.23,74.16-88.87,113.89-12.82,11.17-167.08,140.87-360.65,84.29-155.31-45.39-223.17-177.72-234.43-200.59A985.81,985.81,0,0,0,782,923.71Z"/><path class="cls-8" d="M870.87,207.85c-87.93-39.29-202.27,36.7-263.43,77.34C493.62,360.84,436.62,461.08,411.69,513l64.8,71.87c10.82-18.2,23.57-38.07,38.48-58.94C574.43,442.73,632.9,393,647.13,381.17c33.37-27.82,77.22-63.78,142.49-88.48,39.34-14.89,67-18.35,80.45-19.54a277.28,277.28,0,0,1,62.33,1.51C919.6,246,902.43,222,870.87,207.85Z"/><path class="cls-8" d="M1512,470.92a1566.48,1566.48,0,0,1-22.4-158.12c-9.27,18.28-77.13,146.72-227.51,179.45-25.89,5.64-128.09,27.89-214.76-27.53-58.17-37.18-78.25-89.47-95.06-138.28l12.34,90.07a210.63,210.63,0,0,0,15.81,64.06s15.91,37.69,43.66,65.5c52.83,52.95,132.8,53.59,182.72,54,25.35.21,99.85-1.58,183.87-42.52C1432.83,537,1478.51,514.73,1512,470.92Z"/><path class="cls-8" d="M1661.16,773.38A150.91,150.91,0,0,1,1621.51,745a373.26,373.26,0,0,1-99.87,94.65c-147,94.38-305.56,46.25-317.17,42.52-135-43.46-198.43-150.42-212.59-175.83,3.92,19.66,9.72,46.09,18.08,77.15l1.09-.48c11.26,22.87,79.12,155.2,234.43,200.59,193.57,56.58,347.83-73.12,360.65-84.29,45.64-39.73,73-83.19,88.87-113.89A157.77,157.77,0,0,1,1661.16,773.38Z"/><path class="cls-5" d="M1344.67,802.91c116.29-11,199.26-69.07,241.41-105.27a429.57,429.57,0,0,1-24-49.93,763.24,763.24,0,0,1-26.82-77.85c-46.09,35.32-117.63,78.29-212.41,95.15-47.36,8.43-203.35,36.19-302.23-57.45a228,228,0,0,1-42.52-55.16l8,91.93a285.85,285.85,0,0,0,33.63,47.78C1131.37,820.34,1322.93,805,1344.67,802.91Z"/><path class="cls-5" d="M531.06,670.76c14.08-21.43,34.78-51.32,62.06-85.33,31.88-39.75,65.72-81.95,119.8-125.83,30.89-25.06,66.32-53.37,120.66-75.84a416.44,416.44,0,0,1,119.23-29.59q6.32,72.39,12.64,144.79c-48,8.05-83.61,23-106.3,34.48C781.88,572.53,736.38,631,690.22,690.3a890.51,890.51,0,0,0-58.61,85Z"/><path class="cls-8" d="M1008.54,619.05a288,288,0,0,0-64.64,17.24c-15,5.94-37.76,16.43-70.18,40-20.42,14.84-49.52,38.39-126.33,125.48C733,818,720.57,832.51,710.45,844.39L782,923.71a985.81,985.81,0,0,1,229.09-140.66c1.41,2.87,3.72,7.48,7,13.41l5.45-3.89Z"/><path class="cls-9" d="M1532.67,948.41a598.62,598.62,0,0,1-121-187.19c-49.3-121.75-48.1-235.91-36.28-316.77A315.49,315.49,0,0,1,1262.06,494c-25.89,5.63-128.09,27.88-214.76-27.53-118.82-76-78.73-214.94-176.43-258.6-87.93-39.29-202.27,36.7-263.43,77.34A540.86,540.86,0,0,0,548,331c6.91,0,13.91.23,20.94.86,0,0,10.64,1,21.11,3.17,9.8,2,125.23,47,159.49,159.06,27.47,89.82-6.18,193.46-85,262.81L822.11,928.57l188.94-145.52c11.26,22.87,79.12,155.2,234.43,200.59C1363.57,1018.16,1467,983.34,1532.67,948.41Z"/><path class="cls-10" d="M363.69,482.58A2469.84,2469.84,0,0,0,717,916.09c277,270.36,564.79,423.35,766.56,509.25,7.35,4.93,17.22,2.26,20.94-4.84,3.47-6.59.82-15.5-6.44-19.33-31.89-13.27-79.42-34.1-135.35-62.84C1079.57,1192.86,902,1009.46,749.6,849.41a3603.74,3603.74,0,0,1-329.52-400.5,33,33,0,0,0-56.39,33.67Z"/><path class="cls-11" d="M1498,1401.17q-52.15-22.73-105.66-48.38-15-7.2-29.69-14.46a1370.83,1370.83,0,0,1-177.54-95.76c-121.1-77.29-276.07-228.09-372.52-327-23-23.61-58.09-60-100.29-105.87,6,9.69,21.94,36.9,14.1,45-6,6.14-23.13-1.57-29.88-4.6C644.18,826.5,547.18,713.54,503.48,661h0c-70.11-93.3-119.19-163.31-127.55-179.84-2.12-4.17-7.33-14.47-5.18-26.72a36.41,36.41,0,0,1,5.83-14.08c-2,1.28-13.75,9.33-15.68,24.25a33.32,33.32,0,0,0,2.79,18A2469.84,2469.84,0,0,0,717,916.09c277,270.36,564.79,423.35,766.56,509.25,7.35,4.93,17.22,2.26,20.94-4.84C1507.93,1413.91,1505.28,1405,1498,1401.17Z"/><path class="cls-12" d="M810.67,1141.15c-10.21,113.48-8.23,271.74,48.55,446.22A1076.58,1076.58,0,0,0,915,1725.48c7.38,12.3,7.86,21.06,6.76,26.93-.69,3.71-2.48,8.79.22,12.62,2.37,3.35,6.88,3.92,7.82,4a14.24,14.24,0,0,0,10.32-3,15.37,15.37,0,0,0,2.67,6.31c5.78,7.84,19.5,9.12,28.67,5,5.66-2.55,12.45-8.45,12.45-8.45s2.14,7.45,9.52,8.37,46.17-5.28,79-52.88a774.11,774.11,0,0,1,0-196.34,392.28,392.28,0,0,0,117.33-30,374.06,374.06,0,0,0,10.71,110.66c15,26.34,36,41.65,52.83,37.84a25.4,25.4,0,0,0,10.51-5.31c.48.45,6.76,6,14.72,3.88a15.77,15.77,0,0,0,8.87-6.42,23.47,23.47,0,0,0,10.52,5.84c2,.49,7.54,1.87,12.92-.62,6.08-2.81,9.92-9.62,10.29-17.36a1139.52,1139.52,0,0,0,50.69-169.21c3.81-17.6,28.1-123.61,25.7-224.9-4.84-203.91-84.61-356.9-132.8-434.08-83.61-12.14-237.45-20.85-396.7,55-55.81,26.57-188.3,89.64-236.09,222-.6,1.65-1.58,4.34-2.59,7.36-16.73,49.83-27.18,126.56,5.76,148.35a35.14,35.14,0,0,0,10.13,4.52,19.41,19.41,0,0,0,5.71,4.63,19.9,19.9,0,0,0,11.42,2.16,15,15,0,0,0,16.05,9.59,18,18,0,0,0,6.79-2,24.68,24.68,0,0,0,8.4,6.36c1.29.58,12.77,5.65,20.1-.49a14.45,14.45,0,0,0,4.35-6.69c2.11-12.92,10.76-55.43,48.47-85.35A128.17,128.17,0,0,1,810.67,1141.15Z"/><path class="cls-13" d="M762.46,954.36q-10.63-12.66-20.94-25.31-6.35,5.07-12.62,10.48A1021.82,1021.82,0,0,0,903.39,1131q1.7-10.12,3.37-20.24C858.6,1063.21,810.19,1011.2,762.46,954.36Z"/><path class="cls-14" d="M1374.53,1237.65a10.33,10.33,0,0,0,2.23,14.46c10.7,7.83,17.09,16.4,19,25.46a33.56,33.56,0,0,1-.21,14l17.81,12.62c3.81-10.81,4.71-21.12,2.63-30.89-3-14.19-12.1-26.93-27-37.86A10.33,10.33,0,0,0,1374.53,1237.65Z"/><path class="cls-12" d="M760.53,796.75c-65.88-100.1-15.68-228.87-3.66-257,9.84-23,55.52-130.73,173.24-169.79,96.25-32,179.39,2.31,205.41,13.5,78.26,33.66,194.26,122.33,190.07,249.3-4.5,136-143.39,210.44-161.67,220.29C1036.89,921.49,839.57,916.85,760.53,796.75Z"/><path class="cls-15" d="M1356.22,993.56a895.07,895.07,0,0,0-91.47-195.11c-6.46-.94-13.34-1.86-20.6-2.72,39.59-37,79.08-91.49,81.44-163a199.56,199.56,0,0,0-5.72-54.51,169.24,169.24,0,0,1-13.12,61.47C1289,682,1258.52,704.85,1247,713.28a188.7,188.7,0,0,1-43,23.53,167.88,167.88,0,0,0-2.38-23.53,169.62,169.62,0,0,0-8-29.88c-10.63,81.46-64.71,144.5-131.58,157.44C1010.53,850.79,967.74,828,952.81,819c-6.91,2.33-90.65,28.89-163.19-26.43-35.73-27.25-53-62.34-61.25-90.7,3,31.87,12.28,64.68,32.16,94.88,20.12,30.57,47.91,53.64,80.24,70a636.31,636.31,0,0,0-62.47,35.79c15.19-1.27,32.52-2.38,51.55-3,50.22-1.75,141.91-5.17,232.13,16.09,51.9,12.24,149.09,43.41,252.81,133.31A556.29,556.29,0,0,0,1356.22,993.56Z"/><path class="cls-16" d="M1122.38,1451.62c-92.41,2.51-176.29-49.38-206.92-105.15-15.61-28.41-21.84-60.33-21.84-60.33-4.62-23.71-3.85-42-2.88-61.94.91-18.63,5.69-43.36,12.65-93.2,3.65-26.12,4.64-35.08,5.65-49.39,1-13.83.9-22.2,2-33.6a271.75,271.75,0,0,1,4.53-30.78c5.41-25.73,17.82-48.51,27.51-62.05,26-36.37,64.14-50.66,86.19-58.61,58.75-21.17,158.26-31.28,198.23,19,13.92,17.5,6.17,24.17,24.13,58.61,23.54,45.15,53.89,46.66,74.12,86.19,7.84,15.32,10.31,31.42,14.93,63,9.28,63.52,14.68,100.47,4,145.57-4.4,18.66-19.35,78-74.12,125.83C1212.64,1445.27,1146.37,1451,1122.38,1451.62Z"/><path class="cls-12" d="M743.66,628.24c-13.89-1.21-40.23-5.57-65.78-24.1-10-7.28-26.82-19.45-36.3-42.38-2.88-7-15.67-37.94,1-68.74,2.19-4,17.16-30.68,48.81-36.59,33.94-6.34,58.81,16.45,63.31,20.58,26.24,24.06,26.76,57.38,26.91,67.34C782.31,591.59,749.81,622.58,743.66,628.24Z"/><path class="cls-17" d="M1340.64,1123.33c-4.62-31.58-7.09-47.68-14.93-63a101.33,101.33,0,0,0-8.71-14.12h0c-12.47-16.92-27.31-25.69-41.7-39.88-.12-.12-.24-.23-.35-.35-.66-.65-1.32-1.32-2-2l-.49-.51c-.63-.66-1.27-1.34-1.9-2l-.46-.5c-.71-.78-1.42-1.59-2.13-2.41-.06-.07-.13-.14-.19-.22-.79-.91-1.57-1.86-2.35-2.82l-.17-.21c-.69-.86-1.37-1.74-2.06-2.64-.22-.3-.44-.61-.67-.91-.51-.69-1-1.39-1.53-2.11l-.81-1.15c-.46-.68-.93-1.36-1.39-2.06l-.84-1.28c-.46-.71-.91-1.43-1.37-2.17-.27-.43-.54-.86-.81-1.31-.48-.8-1-1.63-1.44-2.47-.23-.4-.46-.78-.69-1.19-.7-1.25-1.4-2.53-2.09-3.86-18-34.44-10.21-41.11-24.13-58.61-1.14-1.43-2.34-2.8-3.58-4.13-.45-.49-.92-1-1.39-1.43-.78-.81-1.57-1.6-2.39-2.37-.62-.58-1.25-1.14-1.89-1.7s-1.35-1.16-2-1.73-1.55-1.26-2.35-1.87c-.45-.34-.9-.66-1.35-1-46.09-33.67-130.86-23.63-183.25-4.75-6.35,2.29-14,5.1-22.35,8.81,18.18,2.51,36.67,5.81,55.1,10.15,34.61,8.16,89.37,24.77,152.76,61.57,25.89,75.54,71,115.46,80.61,123.45,2.15,1.78,4.5,3.72,7,5.74,5.4,45.08,6.73,115.73-22,193.64-2.19,5.92-4.52,12.23-7.07,18.83A1108.77,1108.77,0,0,1,907.57,1110c-.73,2-1.41,4.27-2,6.66a74.72,74.72,0,0,0-2.16,14.39,1309.78,1309.78,0,0,0,363.24,204.17c-13.84,32.75-33.89,70-68.21,101.91a226.85,226.85,0,0,0,72.13-42.35c54.77-47.78,69.72-107.17,74.12-125.83C1355.32,1223.8,1349.92,1186.85,1340.64,1123.33Z"/><path class="cls-15" d="M1397.55,1232.53c-4.84-203.91-84.61-356.9-132.8-434.08-17.42-2.53-37.91-4.91-60.85-6.41-8.92,20.17-11.54,58.29-7.3,100a93.61,93.61,0,0,1,15.88,9.24c.45.32.9.64,1.35,1,.8.61,1.57,1.24,2.35,1.87s1.36,1.14,2,1.73,1.27,1.12,1.89,1.7c.82.77,1.61,1.56,2.39,2.37.47.47.94.94,1.39,1.43,1.24,1.33,2.44,2.7,3.58,4.13,13.92,17.5,6.17,24.17,24.13,58.61.69,1.33,1.39,2.61,2.09,3.86.23.41.46.79.69,1.19.48.84,1,1.67,1.44,2.47.27.45.54.88.81,1.31.46.74.91,1.46,1.37,2.17l.84,1.28c.46.7.93,1.38,1.39,2.06l.81,1.15c.51.72,1,1.42,1.53,2.11.23.3.45.61.67.91.69.9,1.37,1.78,2.06,2.64l.17.21c.78,1,1.56,1.91,2.35,2.82.06.08.13.15.19.22.71.82,1.42,1.63,2.13,2.41l.46.5c.63.69,1.27,1.37,1.9,2l.49.51c.65.67,1.31,1.34,2,2,.11.12.23.23.35.35,14.39,14.19,29.23,23,41.7,39.88h0a101.33,101.33,0,0,1,8.71,14.12c7.84,15.32,10.31,31.42,14.93,63,9.28,63.52,14.68,100.47,4,145.57-4.4,18.66-19.35,78-74.12,125.83a226.85,226.85,0,0,1-72.13,42.35h0a242.18,242.18,0,0,1-35.32,27.19c-84.1,53.19-173.6,39.29-198.8,34.47,21.81,26.1,80.08,103,77,209.15a282.15,282.15,0,0,1-6.92,54.27c12.16-8,25.52-20.09,38-38.19a774.5,774.5,0,0,1-6.18-100c0-2.63,0-5.26,0-7.92a774.63,774.63,0,0,1,6.19-88.53,392.71,392.71,0,0,0,117.33-30l0,.59h0c-.33,6.16-.52,12.71-.52,19.61a374.31,374.31,0,0,0,11.23,90.48c15,26.33,36,41.65,52.83,37.84a25.4,25.4,0,0,0,10.51-5.31c.48.44,6.76,6,14.72,3.88a15.82,15.82,0,0,0,8.87-6.42A23.48,23.48,0,0,0,1298,1644c2,.5,7.54,1.87,12.92-.62,6.08-2.81,9.92-9.61,10.29-17.35a1139.52,1139.52,0,0,0,50.69-169.21c3.63-16.76,25.82-113.67,25.87-210.34Q1397.71,1239.51,1397.55,1232.53Z"/><path class="cls-12" d="M894.27,404.15c-24.81,5-49.62-2.84-64.48-20.68-16.71-20.06-22.44-54.74-3.1-74.7,12.4-12.8,32.7-17,50.27-11.49,22.29,7.05,31,27,32.18,29.88,3.77-11.66,16-16.24,23.56-12.35,5.73,2.95,9.1,11,7.24,19.25,11.31-11.43,25.43-14.32,33.26-8.91s7.33,17.38,7.19,21.55c-.7,20-17.25,32.88-20.94,35.62Z"/><path class="cls-12" d="M1189.53,435.18a97.57,97.57,0,0,1,1.52-48.4c2.74-9.2,6.76-22.71,19.33-34.08,3.79-3.43,19.19-17.35,39.91-15.4,22.38,2.1,35.45,21.29,39.62,27.41,23.28,34.16,8.55,77,5.62,85.52-9.45,27.52-27.28,45-38.2,53.9Z"/><path class="cls-12" d="M1329.26,1089c-10.12-3.2-40.47-14.48-72.82-65-49-76.44-50.8-161.95-47.6-209.67a32.1,32.1,0,0,1,1.22-14.11c1.42-4.36,3.85-11.87,10.62-14.14,5.25-1.76,10.3.58,12.2,1.6,1.86-7.19,7.2-12.29,13.21-12.85a13.76,13.76,0,0,1,8.56,2.25c2.14-8.59,8.24-15.08,15.71-16.53a18.66,18.66,0,0,1,11.07,1.42c.28-1.13,3.07-11.73,13.56-16.06a23.46,23.46,0,0,1,24.28,4.28A213,213,0,0,0,1330,781a219.93,219.93,0,0,0,19.18,34.8c13.79,21,27.4,42,40.55,63.37,27.94,45.38,52.86,86.15,50,136.56-.88,15.4-2.42,42.18-22.24,60.85C1386,1106.14,1334.7,1090.74,1329.26,1089Z"/><path class="cls-17" d="M968.62,1073.22c-4.23,9.2,1.8,17,3.44,28.18,3.65,24.74-18.45,37.89-13.12,46.46,6.61,10.62,45.1-2.29,91.26-18.09,39-13.33,58.46-20.15,59.26-27.49,2.76-25-98.92-54.22-128.51-40.13C978.11,1063.51,971.67,1066.57,968.62,1073.22Z"/><path class="cls-18" d="M1036.2,641.14a7,7,0,0,1-1.71,1.47,6.38,6.38,0,0,1-5.37.53c-3.11-1.09-60.62-18.64-58.41-40.52,2.49-24.73,80.16-44.73,93.28-26.09C1064,576.53,1075.39,592.73,1036.2,641.14Z"/><path class="cls-19" d="M1010.44,712.47c4.42,6.9,10.8,16.63,18.87,28,18.26,25.84,23.82,30.16,30.73,32.05,9.64,2.64,22.29.64,28.41-7,2.29-2.83,3.07-5.7,4.24-22.07,1-14.35,1.54-21.52,1.51-31.14,0-9.2-.4-21.15-1.71-35.17l-55.71-22.33Z"/><g class="cls-20"><line class="cls-19" x1="1035.92" y1="653.47" x2="1057.18" y2="718.98"/><path class="cls-21" d="M1035.92,653.47a93.52,93.52,0,0,1,8.53,15.34,160.09,160.09,0,0,1,6.2,16.08,155.35,155.35,0,0,1,4.44,16.66,92.41,92.41,0,0,1,2.09,17.43,92.36,92.36,0,0,1-8.54-15.33,158,158,0,0,1-6.19-16.1,160.15,160.15,0,0,1-4.43-16.66A94,94,0,0,1,1035.92,653.47Z"/></g><path class="cls-12" d="M879.92,699.15c4.63,7.6,22.82,35.47,54.59,41.37,40.33,7.5,87.8-23.14,105.72-77.57,53.8,26.57,105.26,17,121.81-10.34,2.49-4.1,10.63-19.26,2.88-46.54"/><path class="cls-22" d="M879.92,699.15a120.49,120.49,0,0,0,18.34,18.92,87.81,87.81,0,0,0,10.52,7.43c1.78,1.16,3.68,2.09,5.55,3.07a29.62,29.62,0,0,0,2.86,1.32l2.86,1.26,3,1a23.52,23.52,0,0,0,3,.94l3,.78a24,24,0,0,0,3,.62,56.92,56.92,0,0,0,12.13,1.08,71.81,71.81,0,0,0,23.84-4.42,89.45,89.45,0,0,0,21.58-11.46c1.69-1.15,3.29-2.44,4.92-3.69s3.17-2.61,4.66-4a110.41,110.41,0,0,0,8.64-8.8A121.79,121.79,0,0,0,1022,683c2-3.62,3.89-7.32,5.55-11.12s3.17-7.69,4.55-11.61l3.27-9.32,8.64,4.32a155.59,155.59,0,0,0,40.23,13.87,119.18,119.18,0,0,0,21,2.18,92.88,92.88,0,0,0,20.83-1.92,67.51,67.51,0,0,0,10-2.87,53.79,53.79,0,0,0,9.28-4.34,48.73,48.73,0,0,0,8.14-6,36.87,36.87,0,0,0,6.38-7.78,41.3,41.3,0,0,0,4.09-9.51,60.38,60.38,0,0,0,2-10.57,90.7,90.7,0,0,0-1-22.24,75.23,75.23,0,0,1,5.49,22.27,57.26,57.26,0,0,1-.33,11.83,44.66,44.66,0,0,1-3.16,11.78,42.32,42.32,0,0,1-6.59,10.6,52.75,52.75,0,0,1-9,8.51,70.9,70.9,0,0,1-21.91,10.81c-15.57,4.7-32,5.16-47.71,2.91a153.33,153.33,0,0,1-45.23-14.16l11.91-5a136.53,136.53,0,0,1-11.44,25.87c-1.21,2-2.39,4.09-3.72,6.06s-2.63,3.94-4,5.87a128.41,128.41,0,0,1-9.08,11l-1.21,1.32-1.25,1.27c-.84.84-1.67,1.69-2.53,2.52-1.75,1.62-3.49,3.24-5.33,4.75s-3.72,3-5.6,4.45-3.87,2.79-5.91,4.06a98.83,98.83,0,0,1-12.58,6.88,89.14,89.14,0,0,1-13.5,5A88.23,88.23,0,0,1,958,747.37a76.76,76.76,0,0,1-14.46.13,67.25,67.25,0,0,1-14.15-2.77,59,59,0,0,1-6.75-2.43,32.66,32.66,0,0,1-3.24-1.49l-3.18-1.58a82.07,82.07,0,0,1-21.53-17.48A94.85,94.85,0,0,1,879.92,699.15Z"/><path class="cls-23" d="M887.18,596.36C874.41,592,869.73,575.09,869.87,564c.23-18.83,14.54-39.46,28.87-38.78,8.36.39,14.09,7.91,15.94,10.34,13,17,8.82,48-8.18,58.18C905.31,594.42,896.47,599.52,887.18,596.36Z"/><path class="cls-23" d="M1096.11,538.13c-12.64,4.35-28.85-7.19-36.2-19.83-6.94-11.94-10.4-32.5,0-40.07,9.51-6.93,25.87.42,34.48,8.18,13.39,12.09,18.7,34.85,9.56,46.18A17.76,17.76,0,0,1,1096.11,538.13Z"/><path class="cls-24" d="M820.23,515.4a35.86,35.86,0,0,1,.64-5.6,51.66,51.66,0,0,1,1.22-5.08,58.53,58.53,0,0,1,3.57-9.13,68.19,68.19,0,0,1,24.58-27.27A61.09,61.09,0,0,1,859,463.8c1.58-.63,3.19-1.24,4.92-1.75a37.09,37.09,0,0,1,5.48-1.24l1,.93-5.89,7-6,7c-4,4.62-8.11,9.16-12.16,13.75s-8.23,9.06-12.4,13.54l-6.29,6.69-6.39,6.6Z"/><path class="cls-24" d="M1030,415.78a27.82,27.82,0,0,1,3.88-2.51,36.39,36.39,0,0,1,3.71-1.76,37.19,37.19,0,0,1,7.1-2,34.55,34.55,0,0,1,13.28.29,34.94,34.94,0,0,1,12.23,5.2,37.15,37.15,0,0,1,5.66,4.75,36.35,36.35,0,0,1,2.67,3.11,29,29,0,0,1,2.51,3.86l-.29,1.35c-2.16-.3-4.3-.69-6.45-1l-6.42-1.17c-4.28-.8-8.53-1.72-12.79-2.58s-8.5-1.86-12.73-2.88l-6.34-1.55c-2.1-.57-4.21-1.09-6.31-1.7Z"/><path class="cls-25" d="M670.34,550.19c-.69-2.37-5.44-18.74,3.45-27.58,8.2-8.15,22.57-4.49,25-3.88,13.41,3.42,20.77,14,24.56,19.4,14,20.12,12.32,43.07,11.2,51.71C730.48,589.27,679.44,581.53,670.34,550.19Z"/><path class="cls-25" d="M1250.38,467.45c-2.06-2.72-23.85-32.29-12-57.63,4.06-8.66,14.32-21.68,24.9-19.94,11,1.82,15.73,18.57,16,19.4C1286.74,437.25,1252.8,465.49,1250.38,467.45Z"/><path class="cls-19" d="M908,556.42c-3.79.87-9.2-5.37-9.77-11.49-.07-.8-.57-7.09,3.45-9.2a7.25,7.25,0,0,1,6.89.58c3.61,2.23,3.91,6.81,4,8.62C912.86,549.19,911.41,555.63,908,556.42Z"/><path class="cls-19" d="M1088.68,496.88c-2.83,2.65-10.65,0-14.23-5-.46-.65-4.06-5.83-1.65-9.68a7.25,7.25,0,0,1,6.25-3c4.24.12,6.8,3.92,7.81,5.42C1089.25,488.17,1091.24,494.47,1088.68,496.88Z"/><path class="cls-26" d="M1002.29,585.65l16.59-10.56"/><path class="cls-26" d="M1004.49,584.86a64.37,64.37,0,0,1,18.87-8.15c12.31-3.1,20.95-1.31,28.57.26,2.8.58,5.46,1.31,6.77,3.55,2.12,3.6-.2,9.45-3.74,12.6-4,3.53-9.1,3.38-12,3.25-7.56-.33-10.94-3.76-18.75-7A61.76,61.76,0,0,0,1004.49,584.86Z"/><path class="cls-14" d="M1346.79,1343.2q-46,0-121.11-29.43c-69.1-27.12-145.16-68.78-193.3-98.72-147.75-91.89-272.26-223.38-370.05-390.83a10.34,10.34,0,1,1,17.86-10.43c96.08,164.51,218.25,293.6,363.12,383.7,47.36,29.45,122.13,70.41,189.93,97,79.36,31.15,133.84,36.62,153.4,15.4,6.28-6.82,9.57-17,9.78-30.25a10.34,10.34,0,0,1,20.68.32c-.29,18.5-5.42,33.29-15.25,44C1390,1336.77,1371.6,1343.2,1346.79,1343.2Z"/><path class="cls-27" d="M1233.24,1294.51s-96.67-39-189.93-97C906.54,1112.43,790,992.59,696.56,841a33.91,33.91,0,0,0-8.45,25.54c39.4,62.12,91.6,132.72,158,199.5a1081.69,1081.69,0,0,0,98.93,88c11,8.59,42.92,33.06,87.3,61,40.73,25.63,72.32,41.8,101.12,56.54,46.28,23.69,75.21,35.57,92.18,42.18,8.18,3.18,15,5.71,19.86,7.45a32.59,32.59,0,0,0,13.58-17.16C1253,1301.88,1244,1298.64,1233.24,1294.51Z"/><path class="cls-28" d="M616.31,821.85A141.34,141.34,0,0,0,660,792a139.82,139.82,0,0,0,19.77-25.14"/><path class="cls-29" d="M630.36,836.91A141.32,141.32,0,0,0,674,807.05a139.79,139.79,0,0,0,19.77-25.13"/></g></svg>