<?xml version="1.0" encoding="utf-8"?>
<!-- Generator: Adobe Illustrator 22.1.0, SVG Export Plug-In . SVG Version: 6.00 Build 0)  -->
<svg version="1.1" id="Layer_1" xmlns="http://www.w3.org/2000/svg" xmlns:xlink="http://www.w3.org/1999/xlink" x="0px" y="0px"
	 viewBox="0 0 502 502" style="enable-background:new 0 0 502 502;" xml:space="preserve">
<style type="text/css">
	.st0{fill:#3E6E94;stroke:#EAEAEA;stroke-miterlimit:10;}
	.st1{fill:#2DA9DD;}
	.st2{fill:#FFFFFF;}
</style>
<g id="Layer_2_1_">
	<path class="st0" d="M451.7,496.8H50.3c-24.8,0-45-20.3-45-45V50.3c0-24.8,20.3-45,45-45h401.5c24.8,0,45,20.3,45,45v401.5
		C496.8,476.5,476.5,496.8,451.7,496.8z"/>
</g>
<g id="Layer_1_1_">
	<path class="st1" d="M352.6,182.2c0-56-45.6-101.6-101.6-101.6s-101.6,45.6-101.6,101.6c0,11.8,9.6,21.3,21.3,21.3
		c11.8,0,21.3-9.6,21.3-21.3c0-32.4,26.5-58.9,58.9-58.9s58.9,26.5,58.9,58.9c0,32.7-26.5,59.3-58.9,59.3
		c-11.8,0-21.3,9.6-21.3,21.3v58.7c0,11.8,9.6,21.3,21.3,21.3c11.7,0,21.3-9.6,21.3-21.3V282C318.2,272,352.6,231.1,352.6,182.2z"/>
	<path class="st2" d="M251,351.4c-16.5,0-29.9-13.4-29.9-29.9v-58.7c0-16.5,13.4-29.9,29.9-29.9c27.7,0,50.4-22.8,50.4-50.8
		c0-27.7-22.6-50.4-50.4-50.4s-50.4,22.6-50.4,50.4c0,16.5-13.4,29.9-29.9,29.9s-29.9-13.4-29.9-29.9C140.9,121.5,190.3,72,251,72
		s110.1,49.4,110.1,110.1c0,25.4-8.8,50.2-24.8,69.9c-14.3,17.6-33.8,30.4-55.4,36.5v32.9C280.9,338,267.5,351.4,251,351.4z
		 M251,114.8c37.2,0,67.4,30.2,67.4,67.4c0,37.4-30.2,67.9-67.4,67.9c-7.1,0-12.8,5.7-12.8,12.8v58.7c0,7.1,5.7,12.8,12.8,12.8
		s12.8-5.7,12.8-12.8V282c0-4,2.8-7.5,6.7-8.4c42.6-9.2,73.5-47.6,73.5-91.4c0-51.3-41.7-93-93-93s-93,41.7-93,93
		c0,7.1,5.7,12.8,12.8,12.8s12.8-5.7,12.8-12.8C183.6,145,213.8,114.8,251,114.8z"/>
	<path class="st1" d="M251,375.3c-11.8,0-21.3,9.6-21.3,21.3v3.4c0,11.8,9.6,21.3,21.3,21.3c11.7,0,21.3-9.6,21.3-21.3v-3.4
		C272.3,384.9,262.8,375.3,251,375.3z"/>
	<path class="st2" d="M251,430c-16.5,0-29.9-13.4-29.9-29.9v-3.4c0-16.5,13.4-29.9,29.9-29.9s29.9,13.4,29.9,29.9v3.4
		C280.9,416.6,267.5,430,251,430z M251,383.9c-7.1,0-12.8,5.7-12.8,12.8v3.4c0,7.1,5.7,12.8,12.8,12.8s12.8-5.7,12.8-12.8v-3.4
		C263.8,389.7,258.1,383.9,251,383.9z"/>
</g>
</svg>
