<?xml version="1.0" encoding="utf-8"?>
<!-- Generator: Adobe Illustrator 22.1.0, SVG Export Plug-In . SVG Version: 6.00 Build 0)  -->
<svg version="1.1" id="Layer_1" xmlns="http://www.w3.org/2000/svg" xmlns:xlink="http://www.w3.org/1999/xlink" x="0px" y="0px"
	 viewBox="0 0 512 512" style="enable-background:new 0 0 512 512;" xml:space="preserve">
<style type="text/css">
	.st0{fill:#3E6E94;stroke:#EAEAEA;stroke-miterlimit:10;}
	.st1{fill:#FFFFFF;}
	.st2{fill:#2DA9DD;}
	.st3{fill:#323643;stroke:#EAEAEA;stroke-miterlimit:10;}
	.st4{fill:#FDB127;}
</style>
<g id="Layer_2_1_">
	<path class="st0" d="M456.7,501.8H55.3c-24.8,0-45-20.3-45-45V55.3c0-24.8,20.3-45,45-45h401.5c24.8,0,45,20.3,45,45v401.5
		C501.8,481.5,481.5,501.8,456.7,501.8z"/>
</g>
<g id="Layer_1_1_">
	<rect x="88" y="90.1" class="st1" width="333.5" height="27.6"/>
	<path class="st2" d="M433.3,129.5v-47H81v47h11.7v234.9h-5.9c-3.5,0-5.9,2.3-5.9,5.9c0,3.5,2.3,5.9,5.9,5.9h5.9h158.5v11.7v0.6
		c-10,2.3-17.6,11.7-17.6,22.9c0,12.9,10.6,23.5,23.5,23.5c12.9,0,23.5-10.6,23.5-23.5c0-11.2-7.6-20-17.6-22.9v-0.6v-11.7h158.5
		h5.9c3.5,0,5.9-2.3,5.9-5.9c0-3.5-2.3-5.9-5.9-5.9h-5.9V129.5H433.3z M268.9,411.3c0,6.5-5.3,11.7-11.7,11.7
		c-6.5,0-11.7-5.3-11.7-11.7c0-6.5,5.3-11.7,11.7-11.7C263.6,399.6,268.9,404.9,268.9,411.3z M92.7,94.2h328.8v23.5H92.7V94.2z
		 M409.8,364.4H104.5V129.5h305.3V364.4z"/>
	<path d="M386.3,288c-3.5,0-5.9,2.3-5.9,5.9v47c0,3.5,2.3,5.9,5.9,5.9s5.9-2.3,5.9-5.9v-47C392.2,290.4,389.9,288,386.3,288z"/>
	<path class="st1" d="M103.3,125.4v242.5h310V125.4H103.3z M341.1,154.7c2.3-2.3,6.5-2.3,8.2,0c1.2,1.2,1.8,2.3,1.8,4.1
		s-0.6,2.9-1.8,4.1c-1.2,1.2-2.3,1.8-4.1,1.8s-2.9-0.6-4.1-1.8s-1.8-2.3-1.8-4.1S340,155.9,341.1,154.7z M310,153h11.7
		c3.5,0,5.9,2.3,5.9,5.9s-2.3,5.9-5.9,5.9H310c-3.5,0-5.9-2.3-5.9-5.9S306.5,153,310,153z M227.8,340.9h-88.1
		c-3.5,0-5.9-2.3-5.9-5.9c0-3.5,2.3-5.9,5.9-5.9h88.1c3.5,0,5.9,2.3,5.9,5.9C233.7,338.5,231.3,340.9,227.8,340.9z M133.9,311.5
		c0-3.5,2.3-5.9,5.9-5.9h58.7c3.5,0,5.9,2.3,5.9,5.9c0,3.5-2.3,5.9-5.9,5.9h-58.7C136.2,317.4,133.9,315,133.9,311.5z M263,217.6
		v2.3l0,0c-1.8,17.6-10,33.5-22.3,44.6c0,0,0,0,0,0.6c0,0-0.6,0-0.6,0.6c-11.7,10.6-27,16.4-44,16.4c-37.6,0-68.1-30.5-68.1-67.5
		c0-35.2,27.6-64.6,62.2-67.5l0,0h2.3c0.6,0,1.2,0,1.8,0s1.2,0,1.8,0s1.8,0,2.3,0c1.2,0,1.8,0,2.9,0c1.8,0,2.9,0.6,4.7,0.6
		c0.6,0,1.2,0,1.8,0.6c1.8,0.6,3.5,0.6,5.3,1.2c0.6,0,1.2,0,1.2,0.6c1.8,0.6,3.5,1.2,5.3,1.8c0.6,0,1.2,0.6,1.2,0.6
		c1.8,0.6,2.9,1.2,4.7,2.3c0.6,0,1.2,0.6,1.8,0.6c1.2,0.6,2.3,1.2,3.5,2.3c0.6,0.6,1.8,1.2,2.3,1.2c0.6,0.6,1.8,1.2,2.3,1.8
		c1.2,0.6,2.3,1.8,2.9,2.3l0,0c1.8,1.2,2.9,2.9,4.7,4.1c1.8,1.8,2.9,2.9,4.1,4.7l0,0c0.6,1.2,1.8,2.3,2.3,3.5
		c0.6,0.6,1.2,1.8,1.8,2.3c0.6,0.6,1.2,1.8,1.8,2.9c0.6,1.2,1.2,2.3,1.8,3.5c0.6,0.6,0.6,1.2,1.2,2.3c0.6,1.2,1.2,2.9,1.8,4.1
		c0,0.6,0.6,1.2,0.6,1.8c0.6,1.8,1.2,2.9,1.8,4.7c0,0.6,0.6,1.2,0.6,1.8c0.6,1.8,0.6,2.9,1.2,4.7c0,0.6,0,1.8,0.6,2.3
		c0,1.2,0.6,2.9,0.6,4.1c0,1.2,0,2.3,0,2.9c0,0.6,0,1.2,0,2.3c0,0.6,0,1.2,0,1.8C263,217,263,217,263,217.6z M298.3,340.9
		c0,3.5-2.3,5.9-5.9,5.9c-3.5,0-5.9-2.3-5.9-5.9v-17.6c0-3.5,2.3-5.9,5.9-5.9c3.5,0,5.9,2.3,5.9,5.9V340.9z M304.1,188.2
		c0-3.5,2.3-5.9,5.9-5.9h47c3.5,0,5.9,2.3,5.9,5.9s-2.3,5.9-5.9,5.9h-47C306.5,194.1,304.1,191.7,304.1,188.2z M321.8,340.9
		c0,3.5-2.3,5.9-5.9,5.9c-3.5,0-5.9-2.3-5.9-5.9v-41.1c0-3.5,2.3-5.9,5.9-5.9c3.5,0,5.9,2.3,5.9,5.9V340.9z M345.2,340.9
		c0,3.5-2.3,5.9-5.9,5.9c-3.5,0-5.9-2.3-5.9-5.9v-29.4c0-3.5,2.3-5.9,5.9-5.9c3.5,0,5.9,2.3,5.9,5.9V340.9z M368.7,340.9
		c0,3.5-2.3,5.9-5.9,5.9s-5.9-2.3-5.9-5.9v-70.5c0-3.5,2.3-5.9,5.9-5.9s5.9,2.3,5.9,5.9V340.9z M386.3,164.7h-17.6
		c-3.5,0-5.9-2.3-5.9-5.9s2.3-5.9,5.9-5.9h17.6c3.5,0,5.9,2.3,5.9,5.9S389.9,164.7,386.3,164.7z"/>
	<circle class="st3" cx="197.5" cy="212.8" r="69.5"/>
	<circle class="st3" cx="197.5" cy="212.8" r="69.5"/>
	<path class="st2" d="M196.5,149.2c-35.1,0-63.6,28.5-63.6,63.6s28.5,63.6,63.6,63.6V149.2z"/>
	<path class="st4" d="M228.9,156.2c-9.7-5.3-20.4-7.4-30.9-6.9v23.5l-0.1,40.7l34-22.3l19.7-12.9
		C246.3,169.2,238.6,161.5,228.9,156.2z"/>
</g>
</svg>
