<svg xmlns="http://www.w3.org/2000/svg" viewBox="0 0 512 512"><defs><style>.cls-1{isolation:isolate;}.cls-2{fill:#3e6e94;stroke:#eaeaea;stroke-miterlimit:10;}.cls-3{fill:#f1f2f2;}.cls-4{fill:#414042;}.cls-5{fill:#bcbec0;}.cls-6{fill:#2da9dd;}.cls-7,.cls-8{fill:#6d6e71;}.cls-8{opacity:0.3;mix-blend-mode:multiply;}.cls-9{fill:#58595b;}.cls-10{fill:#e6e7e8;}.cls-11{fill:#df270f;}.cls-12{fill:#ffc101;}.cls-13{fill:#9bba11;}</style></defs><title>compet-game</title><g class="cls-1"><g id="Layer_1" data-name="Layer 1"><g id="Layer_2" data-name="Layer 2"><path class="cls-2" d="M456.7,501.8H55.3a45.13,45.13,0,0,1-45-45V55.3a45.13,45.13,0,0,1,45-45H456.8a45.13,45.13,0,0,1,45,45V456.8A45.22,45.22,0,0,1,456.7,501.8Z"/></g></g><g id="Layer_2-2" data-name="Layer 2"><path class="cls-3" d="M427.43,230.36c-19-120.54-87.52-110.63-113.11-91.64s-85,19-110.64,0-94.12-28.9-113.11,91.64-4.12,154.39,28.07,154.39,55.32-61.09,86.69-61.09S259,322,259,322s22.29,1.65,53.66,1.65,54.5,61.09,86.69,61.09S446.42,350.9,427.43,230.36Z"/><path class="cls-4" d="M403.85,378.14c-33.23,0-57.09-63.05-89.46-63.05S259,313.38,259,313.38s-23,1.71-55.39,1.71-56.23,63.05-89.47,63.05c-8.87,0-16.47-2.49-22.46-8.51,6.32,10.86,15.55,15.12,27,15.12,32.2,0,55.32-61.09,86.69-61.09S259,322,259,322s22.29,1.65,53.66,1.65,54.5,61.09,86.69,61.09c11.42,0,20.65-4.26,27-15.12C420.33,375.65,412.73,378.14,403.85,378.14Z"/><path class="cls-5" d="M198.72,142.92c27.89,20.69,92.67,20.69,120.56,0,12.07-9,32.91-16,54.33-10.58-22.78-10.39-46.45-3.15-59.29,6.38-25.6,19-85,19-110.64,0-12.84-9.53-36.51-16.77-59.29-6.38C165.81,126.87,186.65,134,198.72,142.92Z"/><path class="cls-6" d="M280.91,199.91A21.91,21.91,0,1,1,259,178,21.92,21.92,0,0,1,280.91,199.91Z"/><circle class="cls-4" cx="151.7" cy="196.24" r="29.72" transform="translate(-5.67 4.52) rotate(-1.67)"/><path class="cls-7" d="M177,196.24a25.32,25.32,0,1,1-25.32-25.32A25.32,25.32,0,0,1,177,196.24Z"/><path class="cls-8" d="M169.55,178.27a25.32,25.32,0,0,1-37.4,34,25.32,25.32,0,1,0,37.4-34Z"/><path class="cls-4" d="M153.87,175.32a2.17,2.17,0,1,1-2.17-2.17A2.17,2.17,0,0,1,153.87,175.32Z"/><path class="cls-4" d="M153.87,217.73a2.17,2.17,0,1,1-2.17-2.17A2.17,2.17,0,0,1,153.87,217.73Z"/><path class="cls-4" d="M172.91,198.7a2.17,2.17,0,1,1,2.17-2.17A2.17,2.17,0,0,1,172.91,198.7Z"/><path class="cls-4" d="M130.5,198.7a2.17,2.17,0,1,1,2.17-2.17A2.17,2.17,0,0,1,130.5,198.7Z"/><path class="cls-4" d="M238.24,260.08a33,33,0,1,1-33-33A33,33,0,0,1,238.24,260.08Z"/><path class="cls-9" d="M233.35,260.08A28.14,28.14,0,1,1,205.21,232,28.14,28.14,0,0,1,233.35,260.08Z"/><path class="cls-7" d="M210.87,279.42A13.66,13.66,0,0,1,230.32,267a25.63,25.63,0,0,0-.27-14.86,13.66,13.66,0,0,1-18.31-17.3,25.18,25.18,0,0,0-13.05,0,13.67,13.67,0,0,1-18.31,17.3,25.63,25.63,0,0,0-.27,14.86,13.66,13.66,0,0,1,18.16,18.16,25.35,25.35,0,0,0,13.89,0A13.55,13.55,0,0,1,210.87,279.42Z"/><path class="cls-4" d="M345.81,260.09a32.71,32.71,0,1,1-32.71-32.72A32.71,32.71,0,0,1,345.81,260.09Z"/><path class="cls-7" d="M341,260.09a27.87,27.87,0,1,1-27.86-27.87A27.86,27.86,0,0,1,341,260.09Z"/><path class="cls-8" d="M332.74,240.32a27.87,27.87,0,0,1-41.17,37.47,27.87,27.87,0,1,0,41.17-37.47Z"/><path class="cls-4" d="M315.49,237.07a2.39,2.39,0,1,1-2.39-2.39A2.39,2.39,0,0,1,315.49,237.07Z"/><path class="cls-4" d="M315.49,283.75a2.39,2.39,0,1,1-2.39-2.39A2.39,2.39,0,0,1,315.49,283.75Z"/><path class="cls-4" d="M336.44,262.79a2.39,2.39,0,1,1,2.38-2.38A2.38,2.38,0,0,1,336.44,262.79Z"/><circle class="cls-4" cx="289.76" cy="260.41" r="2.39"/><path class="cls-10" d="M274.65,199.91A15.65,15.65,0,1,1,259,184.27,15.65,15.65,0,0,1,274.65,199.91Z"/><path class="cls-5" d="M226.65,203.12a9.08,9.08,0,1,1-9.08-9.08A9.08,9.08,0,0,1,226.65,203.12Z"/><path class="cls-5" d="M309.51,203.12a9.08,9.08,0,1,1-9.08-9.08A9.08,9.08,0,0,1,309.51,203.12Z"/><path class="cls-4" d="M353.32,198.3a15.23,15.23,0,1,1-15.23-15.24A15.22,15.22,0,0,1,353.32,198.3Z"/><path class="cls-6" d="M350.43,198.3A12.34,12.34,0,1,1,338.09,186,12.34,12.34,0,0,1,350.43,198.3Z"/><path class="cls-4" d="M408.48,198.3a15.23,15.23,0,1,1-15.23-15.24A15.22,15.22,0,0,1,408.48,198.3Z"/><circle class="cls-11" cx="393.25" cy="198.3" r="12.34"/><path class="cls-4" d="M365.67,186a15.24,15.24,0,1,1,15.23-15.24A15.24,15.24,0,0,1,365.67,186Z"/><path class="cls-12" d="M365.67,183.06A12.35,12.35,0,1,1,378,170.71,12.34,12.34,0,0,1,365.67,183.06Z"/><path class="cls-4" d="M365.67,241.1a15.23,15.23,0,1,1,15.23-15.23A15.23,15.23,0,0,1,365.67,241.1Z"/><path class="cls-13" d="M365.67,238.22A12.35,12.35,0,1,1,378,225.87,12.34,12.34,0,0,1,365.67,238.22Z"/></g></g></svg>