<?xml version="1.0" encoding="utf-8"?>
<!-- Generator: Adobe Illustrator 22.1.0, SVG Export Plug-In . SVG Version: 6.00 Build 0)  -->
<svg version="1.1" id="Layer_1" xmlns="http://www.w3.org/2000/svg" xmlns:xlink="http://www.w3.org/1999/xlink" x="0px" y="0px"
	 viewBox="0 0 503.5 503.5" style="enable-background:new 0 0 503.5 503.5;" xml:space="preserve">
<style type="text/css">
	.st0{fill:#93DEFF;stroke:#EAEAEA;stroke-miterlimit:10;}
	.st1{fill:#FFFFFF;}
	.st2{fill:#F7F8FA;}
	.st3{fill:#3B6F8D;}
</style>
<g id="Layer_2_1_">
	<path class="st0" d="M452.2,498.2H51.3C26.4,498.2,6,477.9,6,452.9V52.1c0-25,20.4-45.3,45.3-45.3h400.9
		c24.9,0,45.3,20.4,45.3,45.3V453C497.5,477.9,477.1,498.2,452.2,498.2z"/>
</g>
<g id="Layer_1_1_">
	<g>
		<path class="st1" d="M357.4,230.1L357.4,230.1v104.3c19.9-16.5,27.4-34.3,27.4-34.3v-80.3l-0.6-0.7l69.3-28.1v-27.4
			c0,0-59.7,24.7-96.1,39.8l0,0l0,0V230.1z M254.5,368.8c-102.9,0-130.4-68.6-130.4-68.6v-79.6l0.7-1.4l129.7,53.6l102.9-42.5v104.3
			C342.3,347,330,353.1,330,353.1C311.5,361.9,286.7,368.8,254.5,368.8z"/>
		<path class="st1" d="M55.5,162.9l199-82.4l199.1,82.4c0,0-59.7,24.7-96.1,39.8l0,0l0,0v26.8l0,0l-103,42.5l-129.6-53.6l-69.3-28.1
			C55.5,190.3,55.5,162.9,55.5,162.9z M271,171.1c2.7-2.1,4.1-4.8,4.1-8.2c0-7.6-8.9-13.8-20.6-13.8s-20.6,6.2-20.6,13.8
			s8.9,13.8,20.6,13.8C261.4,176.6,267.5,174.6,271,171.1L271,171.1z"/>
	</g>
	<path class="st2" d="M275.1,162.9c0,2.7-1.4,5.5-4.1,8.2c-3.5,3.5-9.6,5.5-16.5,5.5c-11.7,0-20.6-6.2-20.6-13.8s8.9-13.8,20.6-13.8
		C266.1,149.1,275.1,155.3,275.1,162.9"/>
	<path class="st2" d="M357.4,382.5c7.6,0,13.8,6.2,13.8,13.8S365,410,357.4,410s-13.8-6.2-13.8-13.8S349.9,382.5,357.4,382.5"/>
	<path class="st3" d="M384.9,454.5c-1.4,0-2.7-1.4-3.5-2.7l-6.8-27.4v-0.7c0-1.4,1.4-2.7,2.7-3.5c2.1-0.7,3.5,0.7,4.1,2.7l6.8,27.4
		v0.7c0,1.4-1.4,2.7-2.7,3.5H384.9z M330,454.5h-0.7c-1.4-0.7-2.7-2.1-2.7-3.5v-0.7l6.8-27.4c0.7-2.1,2.1-2.7,4.1-2.7
		c1.4,0.7,2.7,2.1,2.7,3.5v0.7l-6.8,27.4C332.7,453.2,331.4,454.5,330,454.5z M357.4,454.5c-2.1,0-3.5-1.4-3.5-3.5v-20.6
		c0-2.1,1.4-3.5,3.5-3.5s3.5,1.4,3.5,3.5V451C360.9,453.2,359.5,454.5,357.4,454.5z M357.4,413.3c-9.6,0-17.1-7.6-17.1-17.1
		c0-8.2,6.2-15.1,13.8-17.1v-44.6l0,0V230.1l0,0v-22L328,219l0,0l-72.1,29.5c-0.7,0.7-2.1,0.7-2.7,0l-199-82.4
		c-1.4-0.7-2.1-2.1-2.1-3.5s0.7-2.7,2.1-3.5l199-82.3c0.7-0.7,2.1-0.7,2.7,0L455,159.2c1.4,0.7,2.1,2.1,2.1,3.5s-0.7,2.7-2.1,3.5
		l-94,39.1v19.9l89.2-37.1v-4.8c0-2.1,1.4-3.5,3.5-3.5s3.5,1.4,3.5,3.5v6.8c0,1.4-0.7,2.7-2.1,3.5l-94,38.4v95.4
		c13.8-11.7,19.2-25.4,20.6-28.1V252c0-2.1,1.4-3.5,3.5-3.5s3.5,1.4,3.5,3.5v48c0,0.7,0,0.7,0,1.4c0,0.7-7.6,20.6-27.4,35v43.3
		c7.6,1.4,13.8,8.2,13.8,17.1C374.6,405.8,367.1,413.3,357.4,413.3z M357.4,385.9c-5.5,0-10.3,4.8-10.3,10.3s4.8,10.3,10.3,10.3
		s10.3-4.8,10.3-10.3S363,385.9,357.4,385.9z M64.4,162.9l190.1,78.9l93.4-38.4l-75.5-28.1c-4.1,3.5-10.3,5.5-17.1,5.5
		c-13.8,0-24-7.6-24-17.1s10.3-17.1,24-17.1c13.8,0,24,7.6,24,17.1c0,2.1-0.7,4.1-1.4,6.2l80.3,30.2l87.8-36.4L255.8,84.6
		L64.4,162.9z M254.5,152.6c-9.6,0-17.1,4.8-17.1,10.3s7.6,10.3,17.1,10.3c5.5,0,11-2.1,13.8-4.8l0.7-0.7c1.4-1.4,2.1-3.5,2.1-5.5
		C271.7,157.3,264.1,152.6,254.5,152.6z M254.5,372.2c-104.3,0-133.1-70-133.8-70.7c0-0.7,0-0.7,0-1.4v-48c0-2.1,1.4-3.5,3.5-3.5
		s3.5,1.4,3.5,3.5v47.4c2.7,6.2,32.3,64.5,123.5,65.9v-65.2c0-2.1,1.4-3.5,3.5-3.5c2.1,0,3.5,1.4,3.5,3.5v65.2
		c33.6-0.7,56.9-8.9,70.7-15.8c1.4-0.7,3.5,0,4.8,1.4s0,3.5-1.4,4.8C316.2,363.2,290.9,372.2,254.5,372.2z M254.5,276.1
		c-0.7,0-0.7,0-1.4,0l-199-82.4c-1.4-0.7-2.1-2.1-2.1-3.5v-6.8c0-2.1,1.4-3.5,3.5-3.5s3.5,1.4,3.5,3.5v4.8l195.6,81l74.2-30.9
		c2.1-0.7,3.5,0,4.8,2.1c0.7,2.1,0,3.5-2.1,4.8L256,276.8C255.2,276.1,255.2,276.1,254.5,276.1z"/>
</g>
</svg>
