<?xml version="1.0" encoding="utf-8"?>
<!-- Generator: Adobe Illustrator 22.1.0, SVG Export Plug-In . SVG Version: 6.00 Build 0)  -->
<svg version="1.1" xmlns="http://www.w3.org/2000/svg" xmlns:xlink="http://www.w3.org/1999/xlink" x="0px" y="0px"
	 viewBox="0 0 503.5 503.5" style="enable-background:new 0 0 503.5 503.5;" xml:space="preserve">
<style type="text/css">
	.st0{fill:#93DEFF;stroke:#EAEAEA;stroke-miterlimit:10;}
	.st1{fill:#E0E5E9;}
	.st2{fill:#FFFFFF;}
	.st3{fill:#E4F2DE;}
	.st4{fill:#3B6F8D;}
</style>
<g id="Layer_2">
	<path class="st0" d="M452.6,497.2H50.9C26.2,497.2,6,477,6,452.3V50.7C6,26,26.2,5.8,50.9,5.8h401.7c24.7,0,44.9,20.2,44.9,44.9
		v401.7C497.5,477,477.3,497.2,452.6,497.2z"/>
</g>
<g id="Layer_1">
	<path class="st1" d="M190.9,271.7v40.5h81l4,39.8l9.4,95.2H336l-23-168.8l-0.7-6.7H190.9L190.9,271.7z M379.3,278.5l0.7-6.7
		c25.6,0,43.2,4,54.1,11.5c9.4,6.7,13.5,16.2,13.5,29v108L407,433.8v13.5h-50.6L379.3,278.5z"/>
	<path class="st2" d="M400.3,184v-13.5c0-3.4-2.7-6.7-6.7-6.7V157c0-18.9-14.9-33.8-33.8-33.8h-27c-18.9,0-33.8,14.9-33.8,33.8v6.7
		c-4,0-6.7,3.4-6.7,6.7V184c0,3.4,2.7,6.7,6.7,6.7c0,13.5,6.7,27,6.7,27c6.7,13.5,14.2,27,40.5,27s33.8-13.5,40.5-27
		c0,0,6.7-13.5,6.7-27C397.6,190.7,400.3,187.4,400.3,184L400.3,184L400.3,184z M434,96.2v187.7c-10.8-8.1-28.3-12.2-54.1-11.5
		l-0.7,6.7h-26.4c0-3.4-2.7-6.7-6.7-6.7s-6.7,3.4-6.7,6.7h-26.4l-0.7-6.7H190.9h-54.1c0,13.5,13.5,40.5,40.5,40.5h13.5h81l4,39.8
		l-4,0.7H96.4c-14.9,0-27-11.5-27-27V96.8h364.7L434,96.2L434,96.2z M447.5,69.8v26.4H434H69.3H55.9V69.1h195.9L447.5,69.8
		L447.5,69.8L447.5,69.8z"/>
	<path class="st1" d="M190.9,271.7v40.5h-13.5c-27,0-40.5-27-40.5-40.5H190.9z M400.3,170.4V184c0,3.4-2.7,6.7-6.7,6.7
		c0,13.5-6.7,27-6.7,27c-6.7,13.5-14.2,27-40.5,27c-26.4,0-33.8-13.5-40.5-27c0,0-6.7-13.5-6.7-27c-4,0-6.7-3.4-6.7-6.7v-13.5
		c0-3.4,2.7-6.7,6.7-6.7V157c0-18.9,14.9-33.8,33.8-33.8h27c18.9,0,33.8,14.9,33.8,33.8v6.7C397.6,163.7,400.3,167.1,400.3,170.4z"
		/>
	<path class="st2" d="M346.2,285.3c4,0,6.7-3.4,6.7-6.7h26.4l-23,168.8h-20.3l-22.9-168.8h26.4C339.5,281.8,342.2,285.3,346.2,285.3
		"/>
	<path class="st3" d="M346.2,271.7c4,0,6.7,3.4,6.7,6.7c0,3.4-2.7,6.7-6.7,6.7s-6.7-3.4-6.7-6.7
		C339.5,275.1,342.2,271.7,346.2,271.7"/>
	<path class="st4" d="M285.5,450.7c-2.1,0-3.4-1.3-3.4-3.4l-13.5-131.7h-91.1c-29,0-43.9-28.3-43.9-43.9c0-2.1,1.3-3.4,3.4-3.4
		h175.6c2.1,0,3.4,1.3,3.4,2.7l20.3,148.5c0,2.1-1.3,3.4-2.7,4c-2.1,0-3.4-1.3-4-2.7L309.9,275H194.3v33.8h77.6
		c2.1,0,3.4,1.3,3.4,3.4l13.5,135.1C288.9,448.7,287.5,450.7,285.5,450.7L285.5,450.7z M140.2,275.1c2.1,12.2,13.5,33.8,37.1,33.8
		h10.1v-33.8H140.2z M407,450.7c-2.1,0-3.4-1.3-3.4-3.4v-94.6c0-2.1,1.3-3.4,3.4-3.4c2.1,0,3.4,1.3,3.4,3.4v94.6
		C410.4,449.4,409.1,450.7,407,450.7z M359.8,423.7L359.8,423.7c-2.1,0-3.4-2.1-3.4-4l20.3-148.5c0-2.1,2.1-2.7,4-2.7
		c29.7,0,49.3,5.4,60.1,16.2c6.7,6.7,10.1,16.2,10.1,27.7v108c0,2.1-1.3,3.4-3.4,3.4c-2.1,0-3.4-1.3-3.4-3.4V312.2
		c0-9.4-2.7-16.9-8.1-22.9c-9.4-9.4-26.4-14.2-52.7-14.2L363.7,421C363.1,422.3,361.1,423.7,359.8,423.7z M251.7,356.2H96.4
		c-16.9,0-30.4-13.5-30.4-30.4V123.2c0-2.1,1.3-3.4,3.4-3.4c2.1,0,3.4,1.3,3.4,3.4v202.6c0,13.5,10.1,23.7,23.7,23.7h155.3
		c2.1,0,3.4,1.3,3.4,3.4C255.1,354.8,253.7,356.2,251.7,356.2z M346.2,342.6c-2.1,0-3.4-1.3-3.4-3.4v-51.4c-4-1.3-6.7-5.4-6.7-9.4
		c0-5.4,4.7-10.1,10.1-10.1s10.1,4.7,10.1,10.1c0,4.7-2.7,8.1-6.7,9.4v51.4C349.6,341.3,348.3,342.6,346.2,342.6z M346.2,275.1
		c-2.1,0-3.4,1.3-3.4,3.4c0,2.1,1.3,3.4,3.4,3.4s3.4-1.3,3.4-3.4C349.6,276.5,348.3,275.1,346.2,275.1z M434,261.6
		c-2.1,0-3.4-1.3-3.4-3.4v-162c0-2.1,1.3-3.4,3.4-3.4h10.1V72.5H59.2v20.3H407c2.1,0,3.4,1.3,3.4,3.4s-1.3,3.4-3.4,3.4H55.9
		c-2.1-0.1-3.4-1.4-3.4-3.4V69.1c0-2.1,1.3-3.4,3.4-3.4h192.5V55.7c0-2.1,1.3-3.4,3.4-3.4s3.4,1.3,3.4,3.4v10.1h192.5
		c2.1,0,3.4,1.3,3.4,3.4v27c0,2.1-1.3,3.4-3.4,3.4h-10.1v158.7C437.4,260.2,436.1,261.6,434,261.6z M346.2,248.1
		c-29,0-37.1-16.9-43.2-29c0-0.7-6.1-12.8-6.7-25.6c-4-1.3-6.7-5.4-6.7-9.4v-13.5c0-4.7,2.7-8.1,6.7-9.4v-4
		c0-20.3,16.9-37.1,37.1-37.1h27c20.3,0,37.1,16.9,37.1,37.1v4c4,1.3,6.7,5.4,6.7,9.4V184c0,4.7-2.7,8.1-6.7,9.4
		c-0.7,12.8-6.7,25-6.7,25.6C383.4,231.2,375.3,248.1,346.2,248.1z M332.7,126.6c-16.9,0-30.4,13.5-30.4,30.4v6.7
		c0,2.1-1.3,3.4-3.4,3.4s-3.4,1.3-3.4,3.4V184c0,2.1,1.3,3.4,3.4,3.4s3.4,1.3,3.4,3.4c0,12.8,6.1,25.6,6.1,25.6
		c7.4,14.9,14.2,25,37.8,25s30.4-10.1,37.8-25c0,0,6.1-12.8,6.1-25.6c0-2.1,1.3-3.4,3.4-3.4c2.1,0,3.4-1.3,3.4-3.4v-13.5
		c0-2.1-1.3-3.4-3.4-3.4c-2.1,0-3.4-1.3-3.4-3.4V157c0-16.9-13.5-30.4-30.4-30.4L332.7,126.6L332.7,126.6z M258.5,234.6H191
		c-2.1,0-3.4-1.3-3.4-3.4c0-2.1,1.3-3.4,3.4-3.4h67.5c2.1,0,3.4,1.3,3.4,3.4C261.9,233.3,260.5,234.6,258.5,234.6z M157.2,234.6
		h-20.3c-2.1,0-3.4-1.3-3.4-3.4c0-2.1,1.3-3.4,3.4-3.4h20.3c2.1,0,3.4,1.3,3.4,3.4C160.6,233.3,159.2,234.6,157.2,234.6z
		 M258.5,194.1H136.9c-2.1,0-3.4-1.3-3.4-3.4c0-2.1,1.3-3.4,3.4-3.4h121.6c2.1,0,3.4,1.3,3.4,3.4
		C261.8,192.7,260.5,194.1,258.5,194.1z M366.5,180.6h-6.7c-2.1,0-3.4-1.3-3.4-3.4c0-2.1,1.3-3.4,3.4-3.4h6.7c2.1,0,3.4,1.3,3.4,3.4
		C369.9,179.2,368.6,180.6,366.5,180.6z M332.7,180.6H326c-2.1,0-3.4-1.3-3.4-3.4c0-2.1,1.3-3.4,3.4-3.4h6.7c2.1,0,3.4,1.3,3.4,3.4
		C336.1,179.2,334.8,180.6,332.7,180.6z M244.9,153.6h-27c-2.1,0-3.4-1.3-3.4-3.4s1.3-3.4,3.4-3.4h27c2.1,0,3.4,1.3,3.4,3.4
		S247,153.6,244.9,153.6z M190.9,153.6h-54.1c-2.1,0-3.4-1.3-3.4-3.4s1.3-3.4,3.4-3.4h54.1c2.1,0,3.4,1.3,3.4,3.4
		S193,153.6,190.9,153.6z"/>
</g>
</svg>
