<?xml version="1.0" encoding="utf-8"?>
<!-- Generator: Adobe Illustrator 22.1.0, SVG Export Plug-In . SVG Version: 6.00 Build 0)  -->
<svg version="1.1" xmlns="http://www.w3.org/2000/svg" xmlns:xlink="http://www.w3.org/1999/xlink" x="0px" y="0px"
	 viewBox="0 0 503.5 503.5" style="enable-background:new 0 0 503.5 503.5;" xml:space="preserve">
<style type="text/css">
	.st0{fill:#93DEFF;stroke:#EAEAEA;stroke-miterlimit:10;}
	.st1{fill:#FFFFFF;}
	.st2{fill:#E0E5E8;}
	.st3{fill:#323643;}
	.st4{fill:#3B6F8D;}
</style>
<g id="Layer_2">
	<path class="st0" d="M452,498.2H51.5c-25,0-45.5-20.5-45.5-45.5V52.3c0-25,20.5-45.5,45.5-45.5H452c25,0,45.5,20.5,45.5,45.5v400.4
		C497.5,477.8,477,498.2,452,498.2z"/>
</g>
<g id="Layer_1">
	<g>
		<polygon class="st1" points="245.5,258.3 271.6,258.3 271.6,166.7 245.5,166.7 		"/>
		<path class="st2" d="M297.8,114.4v327h65.4V153.6v-39.2V88.2c0-7.2-5.9-13.1-13.1-13.1h-39.2c-7.2,0-13.1,5.9-13.1,13.1
			L297.8,114.4L297.8,114.4z"/>
	</g>
	<g>
		<path class="st3" d="M441.7,153.6v274.7c0,7.2-5.9,13.1-13.1,13.1h-65.4V153.6H441.7z M441.7,127.5v26.1h-78.5v-39.2h65.4
			C435.8,114.4,441.7,120.3,441.7,127.5z"/>
		<path class="st3" d="M153.9,258.3h39.2v-91.6h-39.2V258.3z M219.4,101.3v340.1h-91.6V140.6v-39.2H219.4z M219.4,101.3h-91.6V75.1
			c0-7.2,5.9-13.1,13.1-13.1h65.4c7.2,0,13.1,5.9,13.1,13.1v13.1V101.3z"/>
	</g>
	<path class="st1" d="M127.8,140.6v300.8H75.4c-7.2,0-13.1-5.9-13.1-13.1V114.4c0-7.2,5.9-13.1,13.1-13.1h52.3
		C127.8,101.3,127.8,140.6,127.8,140.6z"/>
	<polygon class="st3" points="153.9,258.3 193.1,258.3 193.1,166.7 153.9,166.7 	"/>
	<path class="st2" d="M245.5,258.3h26.1v-91.6h-26.1L245.5,258.3L245.5,258.3z M297.8,114.4v327h-78.5V101.3V88.2h78.5V114.4z"/>
	<path class="st4" d="M428.6,444.7H75.4c-9.1,0-16.3-7.2-16.3-16.4V114.4c0-9.1,7.2-16.3,16.3-16.3h26.1c2,0,3.3,1.3,3.3,3.3
		s-1.3,3.3-3.3,3.3H75.4c-5.2,0-9.8,4.6-9.8,9.8v313.9c0,5.2,4.6,9.8,9.8,9.8h49.1V143.9H88.5c-2,0-3.3-1.3-3.3-3.3s1.3-3.3,3.3-3.3
		h35.9V75.1c0-9.1,7.2-16.3,16.4-16.3h65.4c9.1,0,16.3,7.2,16.3,16.3v9.8h49.1c2,0,3.3,1.3,3.3,3.3s-1.3,3.3-3.3,3.3h-49.1v346.7h72
		v-350c0-9.1,7.2-16.3,16.3-16.3h39.2c9.1,0,16.3,7.2,16.3,16.3v62.2H409c2,0,3.3,1.3,3.3,3.3c0,2-1.3,3.3-3.3,3.3h-42.5v281.2h62.2
		c5.2,0,9.8-4.6,9.8-9.8V127.5c0-5.2-4.6-9.8-9.8-9.8h-39.2c-2,0-3.3-1.3-3.3-3.3s1.3-3.3,3.3-3.3h39.2c9.1,0,16.3,7.2,16.3,16.3
		v300.8C445,437.5,437.8,444.7,428.6,444.7z M301.1,438.1h58.9V88.2c0-5.9-3.9-9.8-9.8-9.8h-39.2c-5.2,0-9.8,4.6-9.8,9.8v22.9H337
		c2,0,3.3,1.3,3.3,3.3s-1.3,3.3-3.3,3.3h-35.9V438.1L301.1,438.1z M131.1,438.1h85v-363c0-5.9-3.9-9.8-9.8-9.8h-65.4
		c-5.2,0-9.8,4.6-9.8,9.8V98h62.2c2,0,3.3,1.3,3.3,3.3s-1.3,3.3-3.3,3.3h-62.2V438.1z M415.6,405.5h-26.1c-2,0-3.3-1.3-3.3-3.3
		c0-2,1.3-3.3,3.3-3.3h26.1c2,0,3.3,1.3,3.3,3.3C418.8,404.2,417.5,405.5,415.6,405.5z M337.1,405.5H324c-2,0-3.3-1.3-3.3-3.3
		c0-2,1.3-3.3,3.3-3.3h13.1c2,0,3.3,1.3,3.3,3.3C340.3,404.2,339,405.5,337.1,405.5z M271.6,405.5h-26.1c-2,0-3.3-1.3-3.3-3.3
		c0-2,1.3-3.3,3.3-3.3h26.1c2,0,3.3,1.3,3.3,3.3C274.9,404.2,273.6,405.5,271.6,405.5z M193.1,405.5h-39.2c-2,0-3.3-1.3-3.3-3.3
		c0-2,1.3-3.3,3.3-3.3h39.2c2,0,3.3,1.3,3.3,3.3C196.4,404.2,195.1,405.5,193.1,405.5z M101.6,405.5H88.5c-2,0-3.3-1.3-3.3-3.3
		c0-2,1.3-3.3,3.3-3.3h13.1c2,0,3.3,1.3,3.3,3.3C104.9,404.2,103.6,405.5,101.6,405.5z M415.6,379.2h-26.1c-2,0-3.3-1.3-3.3-3.3
		c0-2,1.3-3.3,3.3-3.3h26.1c2,0,3.3,1.3,3.3,3.3C418.8,377.9,417.5,379.2,415.6,379.2z M337.1,379.2H324c-2,0-3.3-1.3-3.3-3.3
		c0-2,1.3-3.3,3.3-3.3h13.1c2,0,3.3,1.3,3.3,3.3C340.3,377.9,339,379.2,337.1,379.2z M271.6,379.2h-26.1c-2,0-3.3-1.3-3.3-3.3
		c0-2,1.3-3.3,3.3-3.3h26.1c2,0,3.3,1.3,3.3,3.3C274.9,377.9,273.6,379.2,271.6,379.2z M193.1,379.2h-39.2c-2,0-3.3-1.3-3.3-3.3
		c0-2,1.3-3.3,3.3-3.3h39.2c2,0,3.3,1.3,3.3,3.3C196.4,377.9,195.1,379.2,193.1,379.2z M101.6,379.2H88.5c-2,0-3.3-1.3-3.3-3.3
		c0-2,1.3-3.3,3.3-3.3h13.1c2,0,3.3,1.3,3.3,3.3C104.9,377.9,103.6,379.2,101.6,379.2z M415.6,287.7c-2,0-3.3-1.3-3.3-3.3v-65.4
		c0-2,1.3-3.3,3.3-3.3s3.3,1.3,3.3,3.3v65.4C418.8,286.4,417.5,287.7,415.6,287.7z M389.4,287.7c-2,0-3.3-1.3-3.3-3.3v-65.4
		c0-2,1.3-3.3,3.3-3.3c2,0,3.3,1.3,3.3,3.3v65.4C392.6,286.4,391.3,287.7,389.4,287.7z M271.6,261.5h-26.1c-2,0-3.3-1.3-3.3-3.3
		v-91.5c0-2,1.3-3.3,3.3-3.3h26.1c2,0,3.3,1.3,3.3,3.3v91.6C274.9,260.2,273.6,261.5,271.6,261.5z M248.8,255h19.6v-85h-19.6V255
		L248.8,255z M193.1,261.5h-39.2c-2,0-3.3-1.3-3.3-3.3v-91.5c0-2,1.3-3.3,3.3-3.3h39.2c2,0,3.3,1.3,3.3,3.3v91.6
		C196.4,260.2,195.1,261.5,193.1,261.5z M157.2,255h32.7v-85h-32.7V255z M101.6,248.5H88.5c-2,0-3.3-1.3-3.3-3.3
		c0-2,1.3-3.3,3.3-3.3h13.1c2,0,3.3,1.3,3.3,3.3C104.9,247.2,103.6,248.5,101.6,248.5z M337.1,222.3H324c-2,0-3.3-1.3-3.3-3.3
		c0-2,1.3-3.3,3.3-3.3h13.1c2,0,3.3,1.3,3.3,3.3C340.3,221,339,222.3,337.1,222.3z M101.6,222.3H88.5c-2,0-3.3-1.3-3.3-3.3
		c0-2,1.3-3.3,3.3-3.3h13.1c2,0,3.3,1.3,3.3,3.3C104.9,221,103.6,222.3,101.6,222.3z M337.1,196.1H324c-2,0-3.3-1.3-3.3-3.3
		c0-2,1.3-3.3,3.3-3.3h13.1c2,0,3.3,1.3,3.3,3.3C340.3,194.8,339,196.1,337.1,196.1z M337.1,170H324c-2,0-3.3-1.3-3.3-3.3
		c0-2,1.3-3.3,3.3-3.3h13.1c2,0,3.3,1.3,3.3,3.3C340.3,168.7,339,170,337.1,170z"/>
</g>
</svg>
