<?xml version="1.0" encoding="utf-8"?>
<!-- Generator: Adobe Illustrator 22.1.0, SVG Export Plug-In . SVG Version: 6.00 Build 0)  -->
<svg version="1.1" xmlns="http://www.w3.org/2000/svg" xmlns:xlink="http://www.w3.org/1999/xlink" x="0px" y="0px"
	 viewBox="0 0 503.5 503.5" style="enable-background:new 0 0 503.5 503.5;" xml:space="preserve">
<style type="text/css">
	.st0{fill:#93DEFF;stroke:#EAEAEA;stroke-miterlimit:10;}
	.st1{fill:#E0E5E9;}
	.st2{fill:#E0E7ED;}
	.st3{fill:#F7F7F9;}
	.st4{fill:#FFFFFF;}
	.st5{fill:#3B6F8D;}
</style>
<g id="Layer_2">
	<path class="st0" d="M452.5,497.2H51c-24.8,0-45-20.3-45-45V50.8c0-24.8,20.3-45,45-45h401.5c24.8,0,45,20.3,45,45v401.5
		C497.5,477,477.2,497.2,452.5,497.2z"/>
</g>
<g id="Layer_1">
	<path class="st1" d="M338.8,211.3c0-70.2-56.8-127.1-127.1-127.1S84.5,141.1,84.5,211.3s56.8,127.1,127.1,127.1
		S338.8,281.6,338.8,211.3 M365.5,211.3c0,6.7-0.7,13.4-1.3,20.1c-3.4,25.4-12.7,48.8-26.7,68.9c-10,14.7-22.7,27.4-37.5,37.5
		c-24.8,17.4-55.5,28.1-88.3,28.1C126.7,365.9,57.8,297,57.8,212S126.7,58.1,211.6,58.1c64.9,0,120.4,40.1,143.1,97
		C361.5,171.9,365.5,191.3,365.5,211.3"/>
	<path class="st2" d="M390.9,353.1l-37.5,37.5l-0.7,0.7l-52.1-52.2l-0.7-1.3c14.7-10,27.4-22.7,37.5-37.5l1.3,0.7L390.9,353.1z"/>
	<path class="st3" d="M437.8,400c10.7,10.7,10.7,27.4,0,38.1c-10.7,10.7-27.4,10.7-38.1,0l-46.8-46.8l0.7-0.7l37.5-37.5l0,0
		L437.8,400z"/>
	<path class="st4" d="M211.6,84.2c70.2,0,127.1,56.8,127.1,127.1s-56.8,127.1-127.1,127.1S84.5,281.6,84.5,211.3
		S141.4,84.2,211.6,84.2L211.6,84.2z M271.8,198l-60.2-60.2L151.4,198v73.6h46.8v-40.1h26.7v40.1h46.8L271.8,198L271.8,198z"/>
	<polygon class="st4" points="271.8,198 271.8,271.5 225,271.5 225,231.4 198.3,231.4 198.3,271.5 151.4,271.5 151.4,198 
		211.6,137.8 	"/>
	<path class="st5" d="M419,448.9c-8,0-15.4-3.4-21.4-8.7l-78.9-79.6c-1.3-1.3-1.3-3.4,0-4.7c1.3-1.3,3.4-1.3,4.7,0l78.9,79.6
		c4.7,4.7,10,6.7,16.7,6.7l0,0c6,0,12.1-2.7,16.7-6.7c4.7-4.7,6.7-10,6.7-16.7c0-6.7-2.7-12.1-6.7-16.7l-44.8-44.8l-16.7,16.7
		c-1.3,1.3-3.4,1.3-4.7,0c-1.3-1.3-1.3-3.4,0-4.7l18.7-18.7c0.7-0.7,1.3-0.7,2.7-0.7l0,0c0.7,0,2,0.7,2.7,0.7l46.8,46.8
		c6,5.3,8.7,13.4,8.7,21.4c0,8-3.4,15.4-8.7,21.4C434.4,445.5,427,448.9,419,448.9L419,448.9z M211.6,368.6
		c-86.9,0-157.2-70.2-157.2-157.3S124.7,54.1,211.6,54.1s157.2,70.2,157.2,157.2S298.6,368.6,211.6,368.6z M211.6,60.8
		c-82.9,0-150.5,67.6-150.5,150.5s67.6,150.5,150.5,150.5s150.5-67.6,150.5-150.5S294.6,60.8,211.6,60.8z M211.6,341.8
		c-72.3,0-130.4-58.2-130.4-130.4S139.4,80.9,211.6,80.9S342.1,139,342.1,211.3S283.9,341.8,211.6,341.8z M211.6,87.6
		c-68.2,0-123.8,55.5-123.8,123.8s55.5,123.8,123.8,123.8s123.8-55.5,123.8-123.8S279.9,87.6,211.6,87.6z M372.9,337.8
		c-0.7,0-2,0-2.7-0.7l-14-14c-0.7-0.7-0.7-1.3-0.7-2.7c0-1.3,0-2,0.7-2.7c1.3-1.3,3.4-1.3,4.7,0l14,14c0.7,0.7,0.7,1.3,0.7,2.7
		s0,2-0.7,2.7C374.2,337.8,373.5,337.8,372.9,337.8z M432.4,274.9h-40.1c-2,0-3.4-1.3-3.4-3.4v-40.1c0-2,1.3-3.4,3.4-3.4
		c2,0,3.4,1.3,3.4,3.4v36.8h33.5v-68.9l-59.5-59.5c-0.7-0.7-0.7-1.3-0.7-2.7c0-1.3,0-2,0.7-2.7c1.3-1.3,3.4-1.3,4.7,0l60.2,60.2l0,0
		l13.4,13.4c0.7,0.7,0.7,1.3,0.7,2.7s0,2-0.7,2.7c-1.3,1.3-3.4,1.3-4.7,0l-7.4-7.4v65.5C435.7,273.6,434.4,274.9,432.4,274.9z
		 M271.8,274.9H225c-2,0-3.4-1.3-3.4-3.4v-36.8h-20.1v36.8c0,2-1.3,3.4-3.4,3.4h-46.8c-2,0-3.4-1.3-3.4-3.4V206l-7.4,7.4
		c-1.3,1.3-3.4,1.3-4.7,0c-1.3-1.3-1.3-3.4,0-4.7l73.6-73.6c1.3-1.3,3.4-1.3,4.7,0l60.2,60.2l0,0l13.4,13.4c1.3,1.3,1.3,3.4,0,4.7
		c-1.3,1.3-3.4,1.3-4.7,0l-7.4-7.4v65.5C275.2,273.6,273.9,274.9,271.8,274.9z M228.4,268.2h40.1v-68.9l-56.8-56.8l-56.9,56.8v68.9
		h40.1v-36.8c0-2,1.3-3.4,3.4-3.4H225c2,0,3.4,1.3,3.4,3.4V268.2L228.4,268.2z"/>
</g>
</svg>
