<?xml version="1.0" encoding="utf-8"?>
<!-- Generator: Adobe Illustrator 22.1.0, SVG Export Plug-In . SVG Version: 6.00 Build 0)  -->
<svg version="1.1" id="Layer_1" xmlns="http://www.w3.org/2000/svg" xmlns:xlink="http://www.w3.org/1999/xlink" x="0px" y="0px"
	 viewBox="0 0 1280 800" style="enable-background:new 0 0 1280 800;" xml:space="preserve">
<style type="text/css">
	.st0{fill:#29AAE1;}
	.st1{fill:#3B6F8D;}
	.st2{fill:#FFB715;stroke:#FFFFFF;stroke-width:2;stroke-miterlimit:10;}
	.st3{fill:#FFB715;stroke:#FFFFFF;stroke-width:3;stroke-miterlimit:10;}
	.st4{fill:#29AAE1;stroke:#FFFFFF;stroke-width:6;stroke-miterlimit:10;}
	.st5{fill:#43C3EF;stroke:#FFFFFF;stroke-width:2;stroke-miterlimit:10;}
	.st6{fill:#FFFFFF;}
</style>
<title>openhouse-2018-logo</title>
<path class="st0" d="M331.9,197.9c-92.2,0-167.3,75-167.3,167.3s75,167.3,167.3,167.3c0.7,0,1.5-0.1,2.2-0.2c1,0.3,2.1,0.5,3.2,0.5
	h38.5c10.8,0,16.8,5,16.8,6.7s-6,6.7-16.8,6.7h-98.9c-5.8,0-10.5,4.7-10.5,10.5s4.7,10.5,10.5,10.5h98.9c21.2,0,37.8-12.2,37.8-27.7
	s-16.6-27.7-37.8-27.7h-38.5c-0.7,0-1.5,0.1-2.2,0.2c-1-0.3-2.1-0.5-3.2-0.5c-80.7,0-146.3-65.6-146.3-146.3s65.6-146.3,146.3-146.3
	s146.3,65.6,146.3,146.3c0,41.1-17.4,80.3-47.7,108.1c-4.2,4-4.4,10.6-0.4,14.8c3.9,4.1,10.3,4.4,14.5,0.7
	c34.7-31.7,54.5-76.6,54.5-123.6C499.1,273,424.1,197.9,331.9,197.9z"/>
<path class="st0" d="M378.5,583.7h-93c-5.8,0-10.5,4.7-10.5,10.5s4.7,10.5,10.5,10.5h93c5.8,0,10.5-4.7,10.5-10.5
	S384.3,583.7,378.5,583.7z"/>
<path class="st0" d="M349.2,620.9h-34.4c-5.8,0-10.5,4.7-10.5,10.5s4.7,10.5,10.5,10.5l0,0h34.4c5.8,0,10.5-4.7,10.5-10.5
	S355,620.9,349.2,620.9L349.2,620.9z"/>
<path class="st0" d="M453.6,370.7c5,0,9-4,9-9c0-42.1-21.6-81.2-57.1-103.7c-4.2-2.7-9.7-1.5-12.4,2.7c-2.7,4.2-1.5,9.7,2.7,12.4
	c0,0,0.1,0.1,0.1,0.1c30.3,19.2,48.7,52.6,48.7,88.5C444.6,366.7,448.6,370.7,453.6,370.7C453.6,370.7,453.6,370.7,453.6,370.7z"/>
<path class="st0" d="M336.9,236c-5,0-9,4-9,9s4,9,9,9c12.7,0,25.3,2.3,37.2,6.8c4.5,2.1,9.9,0.1,12-4.4c2.1-4.5,0.1-9.9-4.4-12
	c-0.4-0.2-0.8-0.3-1.2-0.5C366.6,238.7,351.8,236,336.9,236z"/>
<path class="st1" d="M287.8,423.9v-0.4c0-4.8,0-9.6,0.1-14.4v-39.4c-0.2-1.7-1.7-3-3.4-3h-4.2c-1.8,0.1-3.3,1.5-3.3,3.4v28.1
	c-4-9.5-7.9-19-11.8-28.6c-0.8-1.9-2.7-3-4.8-2.8h-5.1c-1.7-0.2-2.6,0.6-2.7,2.2v54.9c0,1.7,1.5,3.1,3.2,3.1h4.1
	c1.9,0,3.4-1.5,3.4-3.3c0,0,0,0,0,0v-27.8c3.9,9.4,7.9,18.9,11.9,28.3c0.7,1.9,2.6,3,4.6,2.8h5.1c1.4,0.2,2.7-0.8,2.9-2.2
	C287.9,424.3,287.9,424.1,287.8,423.9"/>
<path class="st1" d="M327.5,426.9c1.9,0,3.5-1.4,3.6-3.2v-4.2c-0.2-1.8-1.6-3.2-3.5-3.4h-19.4c-0.9,0-1.7-0.7-1.7-1.6
	c0,0,0-0.1,0-0.1v-10.3c0.1-0.9,0.8-1.6,1.7-1.6h12.1c1.8,0.1,3.4-1.3,3.5-3.1c0-0.1,0-0.1,0-0.2V395c0-1.8-1.5-3.3-3.4-3.3
	c0,0,0,0,0,0h-12.1c-0.9,0-1.6-0.7-1.7-1.6v-10.9c0-0.9,0.8-1.6,1.7-1.7h19.2c1.9,0,3.4-1.4,3.6-3.3V370c-0.2-1.8-1.7-3.2-3.5-3.5
	h-28.8c-1.7,0.2-2.9,1.7-2.9,3.5v53.7c-0.1,1.7,1.2,3.1,2.9,3.1c0.1,0,0.2,0,0.4,0L327.5,426.9z"/>
<path class="st1" d="M254,353.5c-0.8,0.1-1.3,0.7-1.3,1.5c0.1,0.7,0.6,1.2,1.3,1.3h67.9c0.8-0.1,1.3-0.7,1.3-1.5
	c-0.1-0.7-0.6-1.2-1.3-1.3H254z"/>
<path class="st1" d="M383.6,443.6c-3.1-6.9-18-40-21-47c3-6.9,6-13.9,9.1-20.8c0.8-1.6,1.5-3.3,2.2-5c1.1-2.4,0.3-3.8-2.2-4.2h-5.1
	c-2-0.3-4,0.9-4.7,2.8c-1.9,4.3-3.8,8.6-5.6,12.9c-1.8-4.3-10.8-23.5-12.7-27.8c-0.8-1.9-2.7-3-4.7-2.8h-5.1
	c-2.5,0.4-3.2,1.8-2.3,4.2c0.8,1.7,1.5,3.4,2.2,5c3.1,7,13.3,28.8,16.4,35.8c-3.1,7-6.2,14-9.2,20.9c-0.7,1.7-1.4,3.3-2.2,4.9
	c-1,2.4-0.3,3.8,2.2,4.2h5.1c2,0.2,4-1,4.7-2.9c1.9-4.1,3.7-8.3,5.6-12.6c1.9,4.2,15.6,34.5,17.5,38.7c0.7,2,2.7,3.2,4.7,2.9h5.1
	c2.6-0.3,3.3-1.7,2.2-4.2C385.1,446.8,384.4,445.2,383.6,443.6"/>
<path class="st1" d="M416.9,366.6h-31.9c-1.8,0.1-3.3,1.5-3.3,3.4v4.2c0,1.8,1.4,3.3,3.3,3.4c0,0,0,0,0,0h8.9
	c0.9,0.1,1.6,0.8,1.7,1.7v46.1c0.2,1.7,1.6,3,3.3,3.1h4.2c0.6,0,1.1-0.1,1.6-0.3h0.1c-0.1,0,0-0.1,0.1-0.2c0.4-0.3,0.7-0.6,1-1
	c0.2-0.4,0.4-0.8,0.6-1.3v-40.8c0-1.8,0-3.7,0.1-5.5c0-0.9,0.8-1.7,1.7-1.7h8.8c1.8-0.1,3.3-1.5,3.4-3.4V370
	C420.2,368.2,418.7,366.7,416.9,366.6"/>
<path class="st1" d="M255.6,436c-2.9,0.3-4.5,1.9-4.8,4.8v7.1c0.2,2.9,1.8,4.5,4.8,4.7c2.6,0,4.7-2.1,4.8-4.7v-2.8
	c0-0.2-0.2-0.4-0.5-0.4h-3.9c-0.2,0-0.4,0.2-0.4,0.4v2.1c0,0.2,0.2,0.4,0.4,0.4c0,0,0,0,0.1,0h1c0.2,0,0.4,0.2,0.4,0.4
	c-0.1,1-0.9,1.7-1.8,1.7c-1,0-1.8-0.7-1.8-1.7c0,0,0-0.1,0-0.1v-7c0-1,0.8-1.8,1.8-1.8c0,0,0,0,0.1,0c1,0,1.8,0.8,1.8,1.8v0.8
	c0,0.5,0.4,0.9,0.9,0.9h1.1c0.5,0,0.9-0.4,0.9-1v-0.9C260.4,438.2,258.3,436,255.6,436"/>
<path class="st1" d="M271.2,436.2h-7.8c-0.5,0.1-0.8,0.5-0.8,0.9v14.5c0,0.5,0.3,0.8,0.8,0.9c0,0,0.1,0,0.1,0h7.7
	c0.5,0,0.9-0.4,1-0.9v-1.1c-0.1-0.5-0.4-0.9-0.9-0.9h-5.2c-0.2,0-0.4-0.2-0.5-0.4c0,0,0,0,0,0v-2.8c0-0.2,0.2-0.4,0.5-0.4h3.3
	c0.5,0,0.9-0.3,0.9-0.8c0,0,0,0,0-0.1v-1.1c0-0.5-0.4-0.9-0.9-0.9c0,0,0,0,0,0h-3.3c-0.2,0-0.4-0.2-0.5-0.4v-2.9
	c0-0.2,0.2-0.4,0.5-0.5h5.2c0.5,0,0.9-0.4,1-0.9v-1.1C272.1,436.6,271.7,436.2,271.2,436.2"/>
<path class="st1" d="M282.9,436.2h-1.1c-0.5,0-0.9,0.4-0.9,0.9v7.6c-1.1-2.6-2.2-5.1-3.2-7.7c-0.2-0.5-0.7-0.8-1.3-0.8H275
	c-0.5,0-0.7,0.2-0.7,0.6v14.8c0,0.5,0.4,0.8,0.9,0.8h1.1c0.5,0,0.9-0.4,0.9-0.9c0,0,0,0,0,0V444c1.1,2.6,2.1,5.1,3.2,7.6
	c0.2,0.5,0.7,0.8,1.2,0.8h1.4c0.4,0.1,0.7-0.2,0.8-0.6c0-0.1,0-0.1,0-0.2v-0.1c0-1.3,0-2.6,0-3.9V437
	C283.7,436.5,283.3,436.2,282.9,436.2"/>
<path class="st1" d="M294.6,436.2h-7.8c-0.5,0.1-0.8,0.5-0.8,0.9v14.5c0,0.4,0.3,0.8,0.8,0.9c0,0,0.1,0,0.1,0h7.6
	c0.5,0,0.9-0.4,1-0.9v-1.1c0-0.5-0.4-0.9-0.9-0.9h-5.2c-0.3,0-0.4-0.2-0.5-0.5v-2.8c0-0.2,0.2-0.4,0.5-0.4h3.3
	c0.5,0,0.9-0.3,0.9-0.8c0,0,0,0,0-0.1v-1.1c0-0.5-0.4-0.9-0.9-0.9c0,0,0,0,0,0h-3.3c-0.2,0-0.4-0.2-0.5-0.4v-2.9
	c0-0.2,0.2-0.4,0.5-0.5h5.2c0.5,0,0.9-0.4,1-0.9v-1.1C295.5,436.6,295.1,436.2,294.6,436.2"/>
<path class="st1" d="M302.3,436.2h-3.8c-0.5,0.1-0.8,0.5-0.8,0.9v14.5c0,0.5,0.4,0.9,0.9,0.9c0,0,0,0,0,0h1.1c0.5,0,0.9-0.3,0.9-0.8
	c0,0,0,0,0-0.1v-5.3c0-0.2,0.2-0.4,0.5-0.5h1.1c1,0,1.8,0.8,1.9,1.8v3.9c0,0.5,0.4,0.9,0.8,0.9c0,0,0.1,0,0.1,0h1.1
	c0.5,0,0.9-0.4,0.9-0.8c0,0,0,0,0,0v-4.1c0-1.1-0.4-2.3-1.2-3.1c0.9-0.9,1.3-2.1,1.4-3.4C307.1,438.4,305,436.2,302.3,436.2
	 M302.2,442.9h-1.1c-0.3,0-0.5-0.2-0.5-0.4c0,0,0,0,0,0v-2.8c0-0.3,0.2-0.5,0.5-0.5h1.1c1,0,1.9,0.8,1.9,1.9
	S303.2,442.9,302.2,442.9"/>
<path class="st1" d="M314.1,436c-2.9,0.3-4.5,1.9-4.8,4.8v10.8c0,0.5,0.4,0.8,0.9,0.8h1.1c0.5,0,0.9-0.4,0.9-0.9v-3.8
	c0-0.2,0.2-0.4,0.5-0.5h2.8c0.2,0,0.4,0.2,0.4,0.5v3.8c0,0.5,0.4,0.9,0.9,0.9h1.2c0.5,0,0.9-0.4,0.9-0.9v-10.7
	C318.6,437.9,317,436.3,314.1,436 M316,443.9c0,0.2-0.2,0.4-0.4,0.5h-2.8c-0.2,0-0.4-0.1-0.5-0.4c0,0,0-0.1,0-0.1v-3
	c0-1,0.8-1.9,1.9-1.9s1.9,0.8,1.9,1.9L316,443.9z"/>
<path class="st1" d="M330.6,436.2h-8.6c-0.5,0-0.9,0.4-0.9,0.9v1.1c0,0.5,0.4,0.9,0.9,0.9c0,0,0,0,0,0h2.4c0.2,0,0.4,0.2,0.5,0.5v12
	c0,0.5,0.4,0.8,0.9,0.8h1.1c0.1,0,0.3,0,0.4-0.1l0,0l0,0c0.1-0.1,0.2-0.2,0.3-0.3c0.1-0.1,0.1-0.2,0.1-0.4v-10.6c0-0.5,0-1,0-1.5
	c0-0.2,0.2-0.4,0.5-0.5h2.4c0.5,0,0.9-0.4,0.9-0.9v-1.1C331.4,436.6,331,436.2,330.6,436.2"/>
<path class="st1" d="M336.2,436.2h-1.1c-0.5,0-0.9,0.4-0.9,0.9v14.5c0,0.5,0.4,0.8,0.8,0.8c0,0,0,0,0.1,0h1.1c0.1,0,0.3,0,0.4-0.1
	l0,0l0,0c0.1-0.1,0.2-0.2,0.3-0.3c0.1-0.1,0.1-0.2,0.1-0.4v-14.6c0-0.2-0.1-0.4-0.1-0.5C336.8,436.4,336.5,436.2,336.2,436.2"/>
<path class="st1" d="M344.6,436c-2.9,0.3-4.5,1.9-4.8,4.8v7.1c0.1,2.6,2.4,4.7,5,4.6c2.5-0.1,4.5-2.1,4.6-4.6v-7.1
	C349.4,438.2,347.3,436,344.6,436 M346.5,447.9c0,1-0.8,1.8-1.8,1.8c0,0,0,0,0,0c-1,0-1.8-0.7-1.8-1.7c0,0,0-0.1,0-0.1v-7
	c0-1,0.8-1.9,1.9-1.9c1,0,1.9,0.8,1.9,1.9V447.9z"/>
<path class="st1" d="M360.2,436.2h-1.1c-0.5,0-0.9,0.4-0.9,0.9v7.6c-1.1-2.6-2.1-5.1-3.2-7.7c-0.2-0.5-0.7-0.8-1.3-0.8h-1.4
	c-0.5,0-0.7,0.2-0.7,0.6v14.8c0,0.5,0.4,0.8,0.9,0.8h1.1c0.5,0,0.9-0.4,0.9-0.9c0,0,0,0,0,0V444c1.1,2.6,2.1,5.1,3.2,7.6
	c0.2,0.5,0.7,0.8,1.2,0.8h1.4c0.4,0.1,0.7-0.2,0.8-0.6c0-0.1,0-0.1,0-0.2v-0.1c0-1.3,0-2.6,0-3.9V437
	C361.1,436.5,360.7,436.2,360.2,436.2"/>
<path class="st1" d="M251.8,295.7v43c0.1,1.3,1.1,2.4,2.5,2.5h3.4c1.5-0.1,2.6-1.3,2.5-2.8c0,0,0,0,0,0c0-1.5,0-3,0.1-4.6v-11.9
	c2.7,5,5.4,10,8.2,14.8c0.4,0.7,0.8,1.4,1.2,2.1c0.6,1.5,2.2,2.5,3.8,2.3h4.1c1.1,0.1,2.1-0.6,2.2-1.7c0,0,0-0.1,0-0.1
	c-0.1-0.5-0.2-1.1-0.5-1.5c-0.4-0.8-0.9-1.6-1.4-2.5c-1.7-3-3.4-6.1-5.1-9.1c-1.4-2.6-2.8-5.2-4.2-7.7c-0.1-0.3-0.2-0.5-0.3-0.8
	c-0.3-0.2-0.5-0.5-0.6-0.8c0.2-0.2,0.4-0.5,0.6-0.7c0.9-1.7,1.8-3.4,2.8-5.1c1.8-3.2,3.6-6.4,5.3-9.7c1-1.8,2-3.6,3-5.4
	c0.5-0.6,0.6-1.5,0.1-2.2c-0.5-0.6-1.2-0.9-2-0.8h-4.1c-1.7-0.3-3.3,0.7-3.8,2.3c-2.8,4.9-5.5,9.8-8.2,14.8
	c-0.4,0.7-0.8,1.4-1.2,2.1v-16.5c0-1.4-1.1-2.7-2.5-2.8h-3.4c-1.4,0-2.5,1.1-2.5,2.5C251.8,295.6,251.8,295.6,251.8,295.7"/>
<path class="st1" d="M292.6,293c-0.6,0-1.2,0-1.7-0.1h-2.1c-1.5,0.1-2.2,0.8-2.2,2.2v43.5c0.1,1.4,1.2,2.5,2.6,2.5h3.3
	c1.5-0.1,2.6-1.2,2.7-2.7v-27.8c2.1,3.5,4.1,7,6.2,10.5c0.2,0.4,0.6,0.8,1.1,1c0.3,0.1,0.7,0.2,1,0.1c0.3,0,0.6,0,0.9-0.1
	c0.5-0.2,0.9-0.6,1.2-1c2.1-3.5,4.2-7,6.2-10.6v27.8c0,1.5,1.2,2.7,2.6,2.7c0,0,0,0,0,0h3.4c1.5,0,2.7-1.2,2.7-2.6v-43
	c-0.1-0.1-0.1-0.2-0.1-0.3c0.1-1.1-0.7-2.2-1.8-2.3c-0.1,0-0.3,0-0.4,0h-3.8c-0.9,0.2-1.7,0.7-2.2,1.5c-2.9,4.6-5.8,9.2-8.7,13.7
	c-2.9-4.5-5.8-8.9-8.6-13.5C294.4,293.8,293.5,293.2,292.6,293"/>
<path class="st1" d="M331.2,341.2h3.4c0.4,0,0.9-0.1,1.3-0.3c0,0,0-0.1,0.1-0.1h0c0.3-0.2,0.6-0.5,0.8-0.9c0.2-0.3,0.4-0.7,0.5-1.1
	v-43.1c0-0.5-0.2-1-0.5-1.5c-0.5-0.8-1.3-1.3-2.2-1.3h-3.4c-1.5,0.1-2.6,1.3-2.6,2.8v43c0,1.3,1.1,2.4,2.4,2.4
	C331.1,341.2,331.2,341.2,331.2,341.2"/>
<path class="st1" d="M348,301.7h7.1c0.7,0,1.3,0.6,1.4,1.4v35.6c0.1,1.4,1.3,2.4,2.6,2.5h3.4c0.4,0,0.9-0.1,1.3-0.3h0.1
	c0,0,0-0.1,0.1-0.1c0.3-0.2,0.6-0.5,0.8-0.8c0.2-0.3,0.3-0.7,0.5-1v-31.4c0-1.5,0-2.9,0.1-4.4c0-0.7,0.6-1.3,1.4-1.4h7
	c1.5-0.1,2.6-1.2,2.7-2.7v-3.4c-0.1-1.5-1.2-2.6-2.7-2.7H348c-1.5,0-2.6,1.2-2.6,2.7v3.3C345.3,300.5,346.5,301.7,348,301.7
	C348,301.7,348,301.7,348,301.7"/>
<path class="st1" d="M385.1,341.2h23c1.5,0,2.6-1.2,2.7-2.6v-3.4c-0.1-1.5-1.3-2.6-2.8-2.7h-15.3c-0.7,0-1.3-0.6-1.4-1.4v-35.5
	c0-1.5-1.2-2.7-2.7-2.7c0,0,0,0,0,0h-3.4c-1.4,0-2.5,1.1-2.6,2.5v43C382.7,339.9,383.7,341.1,385.1,341.2"/>
<path class="st1" d="M409.5,353.5h-55.9c-0.8,0.1-1.3,0.7-1.3,1.5c0.1,0.7,0.6,1.2,1.3,1.3h56c0.8-0.1,1.3-0.7,1.3-1.5
	C410.7,354.1,410.1,353.5,409.5,353.5"/>
<path class="st2" d="M525.6,197.5h-3.7c-0.2,0-0.4,0-0.6,0c-0.7,0-1.9,0.3-1.9,2.2V243c0.1,0.7,0.5,1.9,2.3,1.9h3.9
	c2.2,0,2.5-1.3,2.5-2.1v-43.1C528.1,198.9,527.8,197.5,525.6,197.5z"/>
<path class="st2" d="M569,197.4c0,0-0.1,0-0.1,0h-27.7c0,0-0.1,0-0.2,0c-1.2,0.3-2.1,1.2-2.2,2.5v3.3c0.1,1.2,1.1,2.2,2.3,2.2h7.6
	c1.8,0.2,2.1,1.2,2.1,1.8v35.8c0,0,0,0.1,0,0.1c0.2,1.1,1.2,1.9,2.3,1.9h3.7c1.1,0,2.1-0.9,2.2-2v-31.2c0-1.4,0-3,0.1-4.5
	c0-0.7,0.3-1.6,2.1-1.8h7.7c1.2-0.1,2.2-0.9,2.5-2.1c0,0,0-0.1,0-0.1v-3.2c0,0,0-0.1,0-0.1C571.1,198.6,570.2,197.7,569,197.4z"/>
<path class="st2" d="M638.3,237.2h-16.9c-1.3-0.1-1.9-0.7-2-1.8v-35.7c-0.1-1.3-1.1-2.3-2.4-2.3h-3.6c-1.1,0.1-2.1,1-2.2,2.1v43.2
	c0,1.1,0.9,2.1,2.1,2.1h25.1c1.2,0,2.2-0.9,2.4-2.1c0,0,0-0.1,0-0.1v-3.2c0,0,0-0.1,0-0.1C640.6,238.1,639.6,237.3,638.3,237.2z"/>
<path class="st2" d="M664.7,197c-9,0.9-14,5.5-14.8,13.9v32c0.1,1.1,1.1,2,2.3,1.9h3.6c1.3,0,2.3-1,2.4-2.3v-11.1
	c0.1-1.1,0.9-1.9,2-1.9h9.2c1.3,0.2,1.9,0.8,2,1.9v11.2c0,1.3,1.1,2.3,2.3,2.3h3.6c1.2-0.1,2.2-1,2.3-2.2v-31.9
	C678.7,202.5,673.7,197.8,664.7,197z M671.4,220c-0.1,1.1-0.9,1.9-2,2h-9.2c-1,0.2-1.9-0.5-2.1-1.5c0-0.2,0-0.3,0-0.5v-9
	c0.4-3.7,2.6-5.6,6.7-6.1c4,0.4,6.2,2.3,6.6,6L671.4,220z"/>
<path class="st2" d="M703,197.4h-12.6c-0.1,0-0.1,0-0.2,0c-1,0.4-1.7,1.4-1.6,2.4v43c0,0.7,0.4,1.9,2.2,2h12.2
	c9.1-0.6,14.3-5.1,15.3-13.6v-19.9C717.4,203.1,712.2,198.4,703,197.4z M696.7,235.6v-28.3c0-0.7,0.2-1.7,2-2h4.1
	c4.2,0.5,6.4,2.4,6.7,6v20c-0.3,3.8-2.5,5.8-6.6,6.1h-3.9C697.4,237.4,696.8,236.8,696.7,235.6L696.7,235.6z"/>
<path class="st2" d="M744.5,220c0.9-1.6,1.9-3.3,3-5.1c2-3.2,4-6.4,5.9-9.7c1.1-1.8,2.2-3.6,3.2-5.5c0.5-0.4,0.6-1.1,0.2-1.6
	c-0.3-0.4-0.8-0.6-1.3-0.6h-0.3h-4.4c-1.5-0.3-3.1,0.5-3.7,1.9c-3,4.9-6.1,9.9-9,14.9c-0.4,0.6-1.2,1.8-2.6,3.8v-18.5
	c0-1.2-0.9-2.2-2.2-2.3h-3.7c-1.2,0-2.2,1-2.2,2.2c0,0,0,0,0,0V243c0.1,1.1,1.1,2,2.2,1.9h3.7c1.2,0,2.1-1,2.1-2.2
	c0-1.5,0-3.1,0.1-4.6v-13.5c4,6.1,7.5,11.5,10.3,16c0.4,0.7,0.8,1.5,1.2,2.2c0.7,1.3,2.1,2.1,3.5,2h4.7c0.8,0.1,1.5-0.5,1.7-1.3
	c0-0.1,0-0.1,0-0.2c-0.1-0.4-0.2-0.8-0.4-1.2c-0.5-0.8-1-1.6-1.5-2.4c-1.8-3-3.7-6.1-5.6-9.1c-1.5-2.6-3.1-5.3-4.7-7.8
	c-0.1-0.2-0.2-0.4-0.2-0.6c0-0.1-0.1-0.2-0.2-0.3c-0.3-0.3-0.5-0.6-0.7-1c0.4-0.4,0.7-0.8,0.8-0.9C744.5,220.1,744.5,220,744.5,220z
	"/>
<path class="st2" d="M780.5,197.4h-12.3c-1.1,0.3-1.9,1.2-2,2.4v42.9c0.1,1.2,1.1,2.1,2.3,2.1h3.7c1.2,0,2.2-0.9,2.3-2.2
	c0,0,0,0,0,0v-15.6c0.1-1.1,1-2,2.2-2h3.7c4,0.3,6.2,2.3,6.7,5.9v11.8c0.1,1.2,1.1,2.2,2.3,2.1h3.6c1.2,0,2.2-0.9,2.3-2.2
	c0,0,0,0,0,0v-12.2c0-3.3-1.4-6.4-4.2-9.1c2.7-2.6,4.4-6.2,4.7-10C794.7,203,789.6,198.3,780.5,197.4z M787,211.3
	c-0.5,3.8-2.7,5.8-6.6,6.1h-3.7c-1.4-0.1-2.1-0.7-2.2-1.9v-8.4c0.1-0.7,0.4-1.7,2.2-1.9h3.7C784.3,205.6,786.5,207.6,787,211.3z"/>
<path class="st2" d="M819.5,197c-9,0.9-14,5.5-14.8,13.9v32c0.1,1.1,1.1,2,2.3,1.9h3.6c1.3,0,2.3-1,2.4-2.3v-11.1
	c0.1-1.1,0.8-1.7,2-1.9h9.2c1.3,0.2,1.9,0.8,2,1.9v11.2c0,1.3,1.1,2.3,2.3,2.3h3.6c1.2-0.1,2.2-1,2.3-2.2v-31.9
	C833.5,202.5,828.5,197.8,819.5,197z M826.2,220c-0.1,1.1-0.9,1.9-2,2H815c-1,0.2-1.9-0.5-2.1-1.5c0-0.2,0-0.3,0-0.5v-9
	c0.4-3.7,2.6-5.6,6.7-6.1c4,0.4,6.2,2.3,6.6,6L826.2,220z"/>
<path class="st2" d="M873,211.4c-1-8.4-6.1-13.1-15.2-13.9h-12.5c0,0-0.1,0-0.2,0c-1.1,0.3-1.8,1.2-1.8,2.3v43
	c0,1.2,0.9,2.1,2.1,2.1c0,0,0.1,0,0.1,0h12.2c9.1-0.7,14.2-5.3,15.1-13.7c-0.2-3.4-1.8-6.7-4.8-9.8C871,218.7,872.7,215.2,873,211.4
	z M851.6,235.5v-8.3c0-1.1,0.8-2,1.8-2c0.1,0,0.1,0,0.2,0h4c4,0.4,6.2,2.4,6.5,6c-0.3,3.8-2.5,5.8-6.5,6.1h-4.1
	C852.2,237.2,851.6,236.6,851.6,235.5L851.6,235.5z M857.7,217.5h-4c-1.4,0-2.1-0.6-2.2-1.9v-8.2c0-1.1,0.9-2,2-2.1h4.1
	c4.1,0.4,6.2,2.4,6.5,6C863.8,215.2,861.7,217.2,857.7,217.5L857.7,217.5z"/>
<path class="st2" d="M896.8,197c-9,0.9-14,5.5-14.9,13.9v32c0.1,1.1,1.1,2,2.3,1.9h3.5c1.3,0,2.3-1,2.4-2.3v-11.1
	c0.1-1.1,0.8-1.7,2-1.9h9.2c1.3,0.2,1.9,0.8,2,1.9v11.2c0,1.3,1.1,2.3,2.3,2.3h3.6c1.2-0.1,2.2-1,2.3-2.2v-31.9
	C910.8,202.5,905.8,197.8,896.8,197z M903.4,220c-0.1,1.1-0.9,1.9-2,2h-9.2c-1,0.2-1.9-0.5-2.1-1.5c0-0.2,0-0.3,0-0.5v-9
	c0.4-3.7,2.6-5.6,6.7-6.1c4,0.4,6.2,2.3,6.6,6L903.4,220z"/>
<path class="st2" d="M947.9,197.5h-3.6c-1.3,0.1-2.3,1-2.3,2.3v23.6c-4.6-8.7-8.5-16.7-11.6-23.9c-0.5-1.2-1.8-2-3.1-2h-0.3h-4.5
	c-1.1-0.2-1.7,0.3-1.8,1.3v44.1c0.1,1.1,1.1,2,2.2,1.9h3.5c1.3,0,2.3-1,2.4-2.2v-23.4c4.5,8.7,8.4,16.6,11.7,23.7
	c0.6,1.3,1.9,2,3.3,1.9h4.6c0.9,0.1,1.8-0.6,1.9-1.5c0-0.1,0-0.1,0-0.2v-0.3c0-3.8,0-7.7,0.1-11.6v-31.6c0,0,0-0.1,0-0.1
	C950.1,198.3,949.1,197.5,947.9,197.5z"/>
<path class="st2" d="M988,223h-12.5c-0.4,0-0.8,0.3-0.8,0.7c0,0,0,0.1,0,0.1v6.2c0,0.4,0.3,0.7,0.7,0.7c0,0,0,0,0.1,0h3.2
	c0.9,0.1,1.7,0.7,1.9,1.6c-0.6,3.6-2.7,5.4-6.5,5.7c-4.2-0.3-6.4-2.2-6.7-5.9v-20.9c0.3-3.7,2.5-5.6,6.7-6c4,0.4,6.1,2.3,6.5,5.9
	v2.5c0.1,1.3,1.2,2.2,2.4,2.2h3.5c1.3-0.1,2.3-1.1,2.4-2.4v-2.7c-1-8.2-6-12.9-14.8-13.8h-0.1c-9,0.9-14,5.6-14.7,13.9v21
	c0.7,8.3,5.7,12.8,14.7,13.4h0.1c8.8-0.7,13.8-5.2,14.8-13.4v-8c0-0.1,0-0.2-0.1-0.2C988.7,223.3,988.4,223,988,223z"/>
<path class="st3" d="M975.3,642.1H434.4c-7.3,0-13.2-5.9-13.2-13.2v-46.1c0-7.3,5.9-13.2,13.2-13.2h540.9c7.3,0,13.2,5.9,13.2,13.2
	v46.1C988.5,636.2,982.6,642.1,975.3,642.1"/>
<path class="st4" d="M523.7,460.8c-2.8-2.2-4.4-5.6-4.2-9.1v-159c0-3.5,1.5-6.9,4.1-9.2c2.8-2.5,6.4-3.8,10.1-3.7h59.2
	c22.9,0,40.4,4.1,52.4,12.3s18,21.6,18,40.2c0,9.7-1.8,18-5.3,25c-3.4,6.8-8.7,12.4-15.3,16.2c-7.1,4.1-14.8,7-22.9,8.6
	c-9.7,1.9-19.6,2.8-29.5,2.7h-42.6v66.9c0.2,3.5-1.4,6.9-4.1,9.1C537.7,465.3,529.6,465.2,523.7,460.8L523.7,460.8z M590.3,364.9
	c15.6,0,27-2.5,34.3-7.4c7.3-4.9,11-13.3,11-25.2c0-11.6-3.5-19.8-10.3-24.6s-18-7.2-33.4-7.2h-44v64.5L590.3,364.9z"/>
<path class="st4" d="M681.6,460.3c-2.7-2.2-4.2-5.4-4.3-8.8v-159c0-3.4,1.4-6.6,3.8-8.8c2.5-2.5,5.9-3.9,9.4-3.8h103.6
	c3.5,0,6.3,1,8.2,3c1.9,1.9,3,4.6,2.9,7.3c0,2.7-1,5.4-2.9,7.4c-2,2.1-4.7,3.1-8.2,3.1h-88.6v58.7h83.9c3.6,0,6.4,1,8.4,3
	c1.9,1.9,3,4.4,2.9,7.1c0,2.7-1.1,5.3-3,7.2c-2,2-4.8,3-8.3,3h-83.9v63.8h92.3c3.5,0,6.3,1,8.2,3.1c1.9,2,3,4.6,2.9,7.4
	c0,2.7-1,5.4-2.9,7.3c-2,2-4.7,3-8.2,3H691.3C687.7,464.1,684.2,462.8,681.6,460.3z"/>
<path class="st4" d="M829.7,461.1c-2.6-2-4-5.2-3.8-8.4V296.5c0-5.2,1.5-9.2,4.5-12.2c3-3,7.1-4.6,11.4-4.5c3.5,0.1,7,1,10.1,2.6
	c3.6,1.8,6.6,4.4,9,7.6l101.8,136.7V291.3c-0.2-3.3,1.2-6.4,3.8-8.4c2.6-2,5.9-3.1,9.2-3c3.3-0.1,6.5,1,9.1,3c2.6,2,4.1,5.2,3.9,8.4
	v156.2c0,5.1-1.7,9.1-5,12.1c-3.3,3-7.7,4.6-12.2,4.5c-3.3,0-6.5-0.8-9.5-2.2c-3.1-1.4-5.8-3.6-7.8-6.3L852,318.9v133.8
	c0.2,3.3-1.3,6.4-3.9,8.4c-2.6,2-5.9,3.1-9.2,3C835.5,464.2,832.3,463.1,829.7,461.1z"/>
<path class="st5" d="M554.8,498h-4.9c-0.4,0-0.7,0.2-1,0.4c-0.2,0.2-0.5,0.2-0.7,0.2c-0.3,0-0.5,0.2-0.6,0.4c0,0.1,0,0.2,0,0.2
	c-0.3,0.2-0.4,0.5-0.5,0.8v0.2c-0.1,5.4-0.1,10.9-0.1,16.4c-0.1,1-0.8,1.6-2,1.9h-12.9c-2.4,0-2.8-1.1-3-1.8v-16.4
	c-0.1-0.4-0.3-0.8-0.6-1.1c-0.7-0.6-1.5-1-2.4-1.2h-4.8c-2.1,0.4-2.6,1.5-2.6,2.3v44.2c0.1,0.8,0.6,1.8,2.5,1.9h4.8h0
	c0.1,0.1,0.3,0.1,0.5,0.1c0.2-0.1,0.3-0.2,0.4-0.4c0.2,0,0.4,0,0.6,0c0.1,0,0.2,0,0.2,0c0.2-0.1,0.5-0.3,0.7-0.5
	c0.2-0.3,0.4-0.6,0.4-1l0.2-16.2c0-0.3,0-1.2,2-1.9h12.7c1.8,0.1,2.8,0.7,3.1,1.9c0,5.4,0,10.8,0.1,15.9c0,0.5,0.2,1,0.6,1.4
	c0.6,0.5,1.4,0.8,2.2,0.8h4.9c2-0.1,2.8-1.2,3.1-2c0-0.1,0-0.1,0-0.2v-44c0-0.1,0-0.1,0-0.2C557.2,498.9,556.1,498.1,554.8,498z"/>
<path class="st5" d="M588.5,497.5c-11.5,0.9-17.8,5.7-18.8,14.2v21.6c1.1,8.4,7.4,13,18.8,13.8h0.1c11.4-0.7,17.9-5.3,19.2-13.8
	v-21.6C606.5,503.2,600.1,498.4,588.5,497.5z M597.4,533.4c-0.5,3.8-3.4,5.8-8.8,6.1c-5.4-0.3-8.2-2.3-8.7-6v-21.6
	c0.5-3.8,3.3-5.8,8.7-6.2c5.4,0.4,8.3,2.4,8.8,6.2V533.4z"/>
<path class="st5" d="M654.8,498h-4.7c-2.1,0.4-2.7,1.5-2.9,2.5c0,10.8-0.1,22.1-0.1,33.3c-0.4,3.9-3.3,5.8-8.9,5.8
	c-5.4-0.2-8.1-2.1-8.3-5.9c-0.1-11-0.2-22.2-0.2-33.3c-0.1-0.9-0.7-2-2.9-2.4h-4.6c-1.5,0.2-2.4,0.9-2.6,2.1v33.6
	c0,2.4,0.9,4.8,2.4,6.7c3.8,4.4,9.3,6.6,16.4,6.6s12.6-2.2,16.5-6.7c1.5-1.9,2.4-4.2,2.7-6.6v-33.5c0-0.1,0-0.1,0-0.2
	C657.1,498.9,656,498.1,654.8,498z"/>
<path class="st5" d="M684.2,506.4c4.9-0.6,9.9,0.3,14.2,2.7c0.8,0.3,1.5,0.6,2.1,0.9c1.3,0.6,2.9,0.3,3.9-0.8c0.7-1,1.5-1.9,2.4-2.8
	c0.5-0.5,0.7-1.2,0.6-1.9c-0.2-0.7-0.8-1.2-1.5-1.5c-0.7-0.2-2.6-1.1-5.6-2.6c0-0.2-0.2-0.3-0.4-0.4c-1.1-0.2-3.9-0.9-8.5-1.9
	c-0.1-0.1-0.2-0.1-0.2-0.1c-5.3-1-10.9,0-15.5,2.9c-4.8,2.9-7.3,6.8-7.4,11.3c-0.1,0.8,0.1,1.6,0.4,2.3c1.3,3.8,4.6,6.5,9.7,8.1
	c2.7,1.1,5.4,2.1,7.8,3c2.8,1,5.4,2.3,7.9,4c1.6,1.7,2.3,3.3,2.1,4.7s-1.6,3-4,4.2c-2.5,0.8-5.3,0.9-7.8,0.1
	c-2.4-0.7-4.8-1.6-7.2-2.7c-0.9-0.3-1.7-0.6-2.4-0.9c-1.3-0.6-2.9-0.3-3.9,0.8c-0.8,0.9-1.5,1.8-2.2,2.7l-0.1,0.1
	c-0.6,1-0.2,2.2,0.7,2.7c0.1,0.1,0.2,0.1,0.3,0.1c0.7,0.3,1.3,0.6,2,0.9c3.4,1.7,7.1,2.9,10.8,3.8c0.1,0.1,0.1,0.1,0.2,0.1
	c1.7,0.4,3.5,0.5,5.2,0.5c3.8,0,7.6-0.9,11-2.6c5.3-2.6,8-6.4,8.1-11.5c0-0.8-0.1-1.5-0.4-2.3c-1.3-3.8-4.6-6.6-9.6-8.4
	c-2.7-1-5.4-2.1-8-3.2c-2.8-0.8-5.4-2-7.9-3.5c-1.5-1.7-2.2-3.3-1.9-4.7C679.5,509.2,681.2,507.7,684.2,506.4z"/>
<path class="st5" d="M750.8,498h-32.3c-1.8,0.4-2.3,1.5-2.3,2.4v44.2c0.1,0.9,0.6,2,2.6,2h32c2.1-0.1,2.9-1.1,3.1-2c0,0,0-0.1,0-0.1
	v-3.2c0,0,0-0.1,0-0.2c-0.4-1.3-1.6-2.2-3-2.2h-21.9c-2.4-0.1-2.8-1.1-2.8-1.8v-8.5c0.2-0.8,0.6-1.8,2.7-1.9h13.8
	c2.1-0.1,2.8-1.2,2.9-2.1c0,0,0-0.1,0-0.1V521c0,0,0-0.1,0-0.1c-0.2-0.9-0.8-2-3-2.1h-13.7c-2.2-0.1-2.6-1.2-2.8-1.8v-9
	c0-0.4,0.2-1.6,2.7-2h21.7c1.8-0.1,2.8-0.8,3.2-2.1c0,0,0-0.1,0-0.1v-3.2c0,0,0-0.1,0-0.1C753.3,499.1,752.1,498.1,750.8,498z"/>
<path class="st5" d="M847.6,538.8h-20.5c7-6.9,13.5-13.4,19.3-19.3c1.4-1.2,2.6-2.6,3.4-4.2c0,0,0-0.1,0-0.1
	c0.2-1.2,0.3-2.3,0.3-3.5c-1.1-8.4-7.5-13.2-19.1-14.1c-11.5,0.9-17.8,5.7-18.7,14.3v2.7c0,0.9,0.5,2.1,2.7,2.2h4.5
	c2.2-0.2,2.9-1.3,3-2.3V512c0.4-3.9,3.2-5.9,8.6-6.3c4.7,0.2,7.5,2,8.6,5.5c-0.1,1-0.2,1.9-0.2,2.9c-8.6,8.9-17.5,17.6-26.4,25.8
	c-0.2,0.3-0.4,0.6-0.4,1v3.5c0.2,0.9,0.8,2,3,2.2h31.8c1.4,0.1,2.7-0.8,3.2-2.1c0,0,0-0.1,0-0.2V541c0,0,0-0.1,0-0.1
	C850.4,539.7,849.4,539,847.6,538.8z"/>
<path class="st5" d="M881.1,497.5c-11.5,1-17.9,5.7-19,14.3v21.5c1,8.4,7.4,13.1,19,13.8l0,0c11.4-0.7,17.9-5.3,19.1-13.8v-21.5
	C899,503.2,892.6,498.5,881.1,497.5z M889.9,533.4c-0.5,3.8-3.4,5.9-8.7,6.2c-5.5-0.4-8.3-2.4-8.9-6.2v-21.3
	c0.5-3.8,3.4-5.9,8.9-6.4c5.4,0.4,8.2,2.5,8.8,6.3L889.9,533.4z"/>
<path class="st5" d="M934.4,497.6h-4.5c-0.8,0-1.6,0.2-2.2,0.7c-0.9,0.3-1.7,0.7-2.5,1c-2.2,1.1-4.4,2.1-6.7,3.1
	c-1.1,0.5-2.3,1-3.4,1.5c-2.6,0.8-2.9,2.3-2.7,3.3v4.4c0,0.9,0.6,1.7,1.5,1.8c0.1,0,0.1,0,0.2,0c0.7-0.1,1.4-0.4,2.1-0.8
	c3-1.2,6.6-2.8,10.7-4.8v36.7c0.2,0.8,0.8,1.8,2.9,2h4.7c2-0.2,2.6-1.3,2.8-2.2c0,0,0-0.1,0-0.1v-19.9c0-7.2,0.1-14.5,0.2-21.7V500
	c0,0,0-0.1,0-0.1C937.1,498.5,935.8,497.6,934.4,497.6z"/>
<path class="st5" d="M983.4,523.2c3.7-3.5,5.6-7.3,5.8-11.5c-1.2-8.5-7.5-13.3-18.9-14.2c-11.6,1-17.9,5.7-18.8,14.3
	c0,4,1.9,7.9,5.6,11.4c-3.7,3.1-5.6,6.5-5.6,10.1c0.9,8.5,7.3,13.1,18.8,13.8h0.1c11.3-0.7,17.6-5.3,18.8-13.8
	C989.1,529.6,987.1,526.3,983.4,523.2z M970.4,527.1c5,0.6,7.6,2.7,7.9,6.2c-0.4,3.6-3,5.6-7.9,6.2c-5.1-0.6-7.8-2.6-8.2-6.2
	C962.6,529.8,965.3,527.8,970.4,527.1z M962.1,511.7c0.5-3.5,3.2-5.6,8.2-6.2c4.9,0.6,7.5,2.6,7.9,6.2c-0.3,3.7-2.9,5.7-7.9,6.2
	C965.3,517.4,962.6,515.3,962.1,511.7L962.1,511.7z"/>
<path class="st6" d="M439.8,620.2h-1.9v-22.1c0-0.6-0.4-1-1-1h-2.6c-0.6,0-1,0.4-1,1v23.4c0,2.1,0.9,3,3,3h3.4c0.6,0,1-0.4,1-1v-2.3
	C440.8,620.6,440.3,620.2,439.8,620.2z"/>
<path class="st6" d="M467.4,586.9h-2.6c-0.6,0-1,0.4-1,1v2.8h-15.6c-0.6,0-1,0.4-1,1v2.3c0,0.6,0.4,1,1,1h15.6v21.3
	c0,3.2-3.3,4.4-6,4.4s-6-1.1-6-4.4v-18.2c0-0.6-0.4-1-1-1h-2.6c-0.6,0-1,0.4-1,1v18.2c0,6,5.3,8.7,10.6,8.7s10.6-2.7,10.6-8.7v-28.3
	C468.4,587.4,468,586.9,467.4,586.9C467.4,586.9,467.4,586.9,467.4,586.9z"/>
<path class="st6" d="M491.3,596.6c-8,0-12.5,5.5-12.5,15c0,8.3,3.9,13.3,10.3,13.3c2.2,0,4.3-0.6,6.1-1.6c0.4-0.2,0.6-0.8,0.5-1.2
	l-0.8-2.1c-0.1-0.3-0.3-0.5-0.6-0.6c-0.3-0.1-0.6-0.1-0.8,0c-1.3,0.8-2.9,1.2-4.4,1.2c-4.7,0-5.7-4.9-5.7-9c0-4.9,1.4-10.8,7.9-10.8
	c2.9,0,6.1,0.9,6.1,7.6v15c0,0.6,0.4,1,1,1h2.6c0.6,0,1-0.4,1-1v-15C502.1,600.6,498.5,596.6,491.3,596.6z"/>
<path class="st6" d="M531.3,597.1h-2.6c-0.6,0-1,0.4-1,1v18.2c0,3.2-3.2,4.4-6,4.4s-6-1.1-6-4.4v-18.2c0-0.6-0.4-1-1-1H512
	c-0.6,0-1,0.4-1,1v18.2c0,6,5.3,8.7,10.6,8.7s10.6-2.7,10.6-8.7v-18.2C532.3,597.5,531.8,597.1,531.3,597.1z"/>
<path class="st6" d="M536.5,590.7h-10v-1.2c0-2.3-0.9-3.1-3.3-3.1h-3.4c-0.6,0-1,0.4-1,1v2.3c0,0.6,0.4,1,1,1h2.1v3.3
	c0,0.6,0.4,1,1,1h12.6c0.4,0,0.7-0.2,0.9-0.6l1-2.3c0.1-0.3,0.1-0.7-0.1-1C537.2,590.9,536.9,590.7,536.5,590.7z"/>
<path class="st6" d="M547.6,596.6c-2,0-3.9,0.4-5.8,1.1c-0.5,0.2-0.8,0.7-0.6,1.2l0.7,2.2c0.2,0.5,0.7,0.8,1.3,0.7c0,0,0,0,0,0
	c1.4-0.5,2.8-0.8,4.3-0.9c1.6,0,3.8,0.5,3.8,4.8v17.8c0,0.6,0.4,1,1,1h2.6c0.6,0,1-0.4,1-1v-17.8
	C555.9,599.9,552.9,596.6,547.6,596.6z"/>
<path class="st6" d="M586.1,598.1c0-0.6-0.4-1-1-1h-2.6c-0.6,0-1,0.4-1,1v13.5c0,6.2-3.5,9-7,9s-5-1.9-5-5.7v-16.8c0-0.6-0.4-1-1-1
	h-2.6c-0.6,0-1,0.4-1,1v16.8c0,9,6.5,10,9.3,10c2.9,0,5.6-1.1,7.6-3.1c0.1,0.5,0.2,1.1,0.3,1.8c0.1,0.5,0.5,0.8,1,0.8h2.6
	c0.3,0,0.6-0.1,0.8-0.3c0.2-0.2,0.3-0.5,0.2-0.8c-0.4-2.5-0.6-5.1-0.5-7.6L586.1,598.1z"/>
<path class="st6" d="M605.7,596.6c-8.3,0-11.2,5.8-11.2,10.8c-0.1,3.4,1,6.6,3.2,9.2L595,623c-0.1,0.3-0.1,0.7,0.1,0.9
	c0.2,0.3,0.5,0.4,0.8,0.5h2.8c0.4,0,0.8-0.2,0.9-0.6l4.3-10.2h4.7c0.6,0,1-0.4,1-1v-2.3c0-0.6-0.4-1-1-1h-7.2
	c-0.4,0-0.8,0.2-0.9,0.6l-0.6,1.5c-0.5-1.3-0.7-2.6-0.7-4c0-4.2,2.3-6.5,6.6-6.5c5.3,0,6,2.5,6,4.8v17.8c0,0.6,0.4,1,1,1h2.6
	c0.6,0,1-0.4,1-1v-17.8C616.3,600,612.3,596.6,605.7,596.6z"/>
<path class="st6" d="M663.1,598.1c0-0.6-0.4-1-1-1h-2.6c-0.6,0-1,0.4-1,1v13.5c0,6.2-3.5,9-7,9s-5-1.9-5-5.7v-7.5
	c0-7.6-3.3-10.9-11.2-10.9c-3.3,0.1-6.6,0.6-9.8,1.5c-0.3,0.1-0.6,0.3-0.7,0.6c-0.1,0.3-0.1,0.6,0,0.9l2.9,5.4
	c-2.3,1.9-2.5,3.8-2.5,7.4v9.2c0,2.1,0.9,3,3,3h5.3c0.6,0,1-0.4,1-1v-2.3c0-0.6-0.4-1-1-1h-3.7v-7.3c0-3.6,0.4-4.8,2.9-6.2
	c0.5-0.3,0.7-0.9,0.4-1.3l-2.1-4c1.4-0.3,2.9-0.4,4.3-0.5c4.9,0,6.6,1.7,6.6,6.6v7.5c0,9,6.5,10,9.3,10c2.9,0,5.6-1.1,7.6-3.1
	c0.1,0.5,0.2,1.1,0.3,1.8c0.1,0.5,0.5,0.8,1,0.8h2.6c0.3,0,0.6-0.1,0.8-0.3c0.2-0.2,0.3-0.5,0.2-0.8c-0.4-2.5-0.6-5.1-0.5-7.6
	L663.1,598.1z"/>
<path class="st6" d="M681.8,602.2h-6.7v-1.8c0-0.6-0.4-1-1-1h-2.6c-0.6,0-1,0.4-1,1v3.1c0,3,2.4,3,3.2,3h8c0.6,0,1-0.4,1-1v-2.3
	C682.7,602.7,682.3,602.2,681.8,602.2z"/>
<path class="st6" d="M681.8,616.1h-6.7v-1.8c0-0.6-0.4-1-1-1h-2.6c-0.6,0-1,0.4-1,1v3.1c0,3,2.4,3,3.2,3h8c0.6,0,1-0.4,1-1v-2.3
	C682.7,616.6,682.3,616.2,681.8,616.1z"/>
<path class="st6" d="M697.9,579.3h-11.7c-0.4,0-0.7,0.2-0.9,0.6l-1,2.3c-0.2,0.3-0.1,0.7,0.1,1c0.2,0.3,0.5,0.5,0.8,0.5h7.2
	c-1.7,2.8-2.2,6-2.2,11.5v26.3c0,2.1,0.9,3,3,3h3.4c0.6,0,1-0.4,1-1v-2.3c0-0.6-0.4-1-1-1h-1.9v-25c0-5.9,1-9,4-12.8
	c0.1-0.2,0.2-0.4,0.2-0.6v-1.4c0-0.6-0.4-1-0.9-1.1C698,579.3,698,579.3,697.9,579.3z"/>
<path class="st6" d="M715.7,596.6c-5.5,0-9.7,2.7-10.9,7.1c-0.1,0.5,0.1,1,0.6,1.2l2.5,0.9c0.2,0.1,0.5,0.1,0.8,0
	c0.2-0.1,0.4-0.3,0.5-0.6c0.9-2.9,3.1-4.3,6.5-4.3c4.6,0,7,3.3,7,9.7c0,9-4.1,10.2-7.7,10.2c-4.1,0-6.5-2.7-6.5-7.3V613h6.5
	c0.6,0,1-0.4,1-1v-2.3c0-0.6-0.4-1-1-1h-8c-2.3,0-3.2,0.9-3.2,3.1v1.2c0,7.5,4.2,12,11.1,12c8.1,0,12.3-4.8,12.3-14.4
	C727.3,599,721,596.6,715.7,596.6z"/>
<path class="st6" d="M747.6,596.6c-2.8-0.1-5.5,1.1-7.5,3.1c-0.1-0.5-0.2-1.1-0.3-1.7c-0.1-0.5-0.5-0.8-1-0.8h-2.6
	c-0.3,0-0.6,0.1-0.8,0.3c-0.2,0.2-0.3,0.5-0.2,0.8c0.4,2.5,0.6,5.1,0.5,7.6v17.6c0,0.6,0.4,1,1,1h2.6c0.6,0,1-0.4,1-1v-13.5
	c0-6.2,3.4-9,6.7-9s5.1,1.8,5.1,5.7v16.9c0,0.6,0.4,1,1,1h2.6c0.6,0,1-0.4,1-1v-16.9C756.8,600.2,753.4,596.6,747.6,596.6z"/>
<path class="st6" d="M758.3,586.4h-2.6c-0.6,0-1,0.4-1,1v3.3h-13.5c-0.4,0-0.7,0.2-0.9,0.6l-1,2.3c-0.2,0.5,0,1.1,0.5,1.3
	c0.1,0.1,0.3,0.1,0.4,0.1h18.1c0.6,0,1-0.4,1-1v-6.6C759.4,586.9,758.9,586.4,758.3,586.4C758.3,586.4,758.3,586.4,758.3,586.4z"/>
<path class="st6" d="M778.8,596.6c-5.5,0-9.3,2.5-10.6,7c-0.1,0.5,0.1,1,0.6,1.2l2.5,0.9c0.2,0.1,0.5,0.1,0.8,0
	c0.2-0.1,0.4-0.3,0.5-0.6c0.9-2.8,2.8-4.2,6.1-4.2s5.5,2.1,5.5,5.7v2.3c-1.9-0.3-3.9-0.5-5.8-0.5c-10.3,0-11.5,6-11.5,8.5
	c0,6,4.6,8.2,8.5,8.2c1.9,0,3.8-0.4,5.5-1.3c0.5-0.2,0.7-0.8,0.5-1.2l-0.8-2.1c-0.2-0.5-0.8-0.8-1.3-0.6c0,0-0.1,0-0.1,0
	c-1.2,0.6-2.5,0.9-3.8,0.9c-1.8,0-4-0.7-4-3.9c0-1.8,0.7-4.2,6.8-4.2c2,0,4,0.2,5.9,0.6v10.3c0,0.6,0.4,1,1,1h2.6c0.6,0,1-0.4,1-1
	v-17C788.9,600.4,785,596.6,778.8,596.6z"/>
<path class="st6" d="M801.6,596.6c-2,0-3.9,0.4-5.8,1.1c-0.5,0.2-0.8,0.7-0.6,1.2l0.7,2.2c0.1,0.3,0.3,0.5,0.5,0.6
	c0.2,0.1,0.5,0.1,0.8,0.1c1.4-0.5,2.8-0.8,4.3-0.9c1.6,0,3.7,0.5,3.7,4.8v17.8c0,0.6,0.4,1,1,1h2.6c0.6,0,1-0.4,1-1v-17.8
	C809.9,599.9,806.9,596.6,801.6,596.6z"/>
<path class="st6" d="M830.2,596.6c-8,0-12.5,5.5-12.5,15c0,8.3,3.9,13.3,10.3,13.3c2.2,0,4.3-0.6,6.2-1.6c0.4-0.2,0.6-0.8,0.5-1.2
	l-0.8-2.1c-0.1-0.3-0.3-0.5-0.6-0.6c-0.3-0.1-0.6-0.1-0.8,0c-1.3,0.8-2.9,1.2-4.4,1.2c-4.7,0-5.7-4.9-5.7-9c0-4.9,1.4-10.8,7.9-10.8
	c2.9,0,6.1,0.9,6.1,7.6v15c0,0.6,0.4,1,1,1h2.6c0.6,0,1-0.4,1-1v-15C841,600.6,837.4,596.6,830.2,596.6z"/>
<path class="st6" d="M860,596.6c-3.3,0.1-6.6,0.6-9.8,1.5c-0.3,0.1-0.5,0.3-0.7,0.6c-0.1,0.3-0.1,0.6,0,0.9l2.9,5.4
	c-2.3,1.9-2.5,3.8-2.5,7.4v11.2c0,0.6,0.4,1,1,1h2.6c0.6,0,1-0.4,1-1v-10.5c0-3.6,0.4-4.8,2.9-6.2c0.5-0.3,0.7-0.9,0.4-1.3l-2.1-4
	c1.4-0.3,2.9-0.4,4.3-0.5c4.9,0,6.6,1.7,6.6,6.6v16c0,0.6,0.4,1,1,1h2.6c0.6,0,1-0.4,1-1v-16C871.2,599.8,867.9,596.6,860,596.6z"/>
<path class="st6" d="M889.5,608c-3.4-0.9-5.4-1.6-5.4-3.6c0-3,3.1-3.5,4.9-3.5c2.4,0.1,4.8,0.6,6.9,1.7c0.3,0.1,0.5,0.1,0.8,0
	c0.3-0.1,0.5-0.3,0.6-0.6l0.9-2.2c0.2-0.5,0-1-0.5-1.3c-2.7-1.2-5.7-1.9-8.7-1.9c-5.9,0-9.5,2.9-9.5,7.7c0,5.7,4.8,7,8.7,8.1
	c3.7,1,5.9,1.8,5.9,4.3s-1.8,4-5.2,4c-2.7-0.1-5.4-0.7-7.8-1.9c-0.5-0.2-1.1,0-1.3,0.5c0,0,0,0.1,0,0.1l-0.8,2.3
	c-0.2,0.5,0,1,0.5,1.2c2.9,1.4,6.1,2.1,9.4,2.1c6.3,0,10-3.1,10-8.2C898.7,610.4,893.6,609,889.5,608z"/>
<path class="st6" d="M916.6,616.1h-6.7v-1.8c0-0.6-0.4-1-1-1h-2.6c-0.6,0-1,0.4-1,1v3.1c0,3,2.4,3,3.2,3h8c0.6,0,1-0.4,1-1v-2.3
	C917.6,616.6,917.1,616.2,916.6,616.1z"/>
<path class="st6" d="M916.6,602.2h-6.7v-1.8c0-0.6-0.4-1-1-1h-2.6c-0.6,0-1,0.4-1,1v3.1c0,3,2.4,3,3.2,3h8c0.6,0,1-0.4,1-1v-2.3
	C917.6,602.7,917.1,602.2,916.6,602.2z"/>
<path class="st6" d="M944.7,597.1h-2.6c-0.6,0-1,0.4-1,1v18.2c0,3.2-3.2,4.4-6,4.4s-6-1.1-6-4.4v-18.2c0-0.6-0.4-1-1-1h-2.6
	c-0.6,0-1,0.4-1,1v18.2c0,6,5.3,8.7,10.6,8.7s10.6-2.7,10.6-8.7v-18.2C945.8,597.5,945.4,597.1,944.7,597.1
	C944.8,597.1,944.8,597.1,944.7,597.1z"/>
<path class="st6" d="M951,590.7h-11.4v-2.8c0-0.6-0.4-1-1-1H936c-0.6,0-1,0.4-1,1v4.2c0,2.4,1.2,2.9,3.1,2.9H950
	c0.4,0,0.7-0.2,0.9-0.6l1-2.3c0.1-0.3,0.1-0.7-0.1-1C951.6,590.9,951.3,590.8,951,590.7z"/>
<path class="st6" d="M965,597.1h-1.9c-0.6,0-1,0.4-1,1v2.3c0,0.6,0.4,1,1,1h1.9c4.7,0,6.5,2.5,6.5,9c0,4.4-1.2,9.7-7.1,9.8
	l-4.5-10.3c-0.2-0.4-0.5-0.6-0.9-0.6h-2.9c-0.3,0-0.7,0.2-0.8,0.5c-0.2,0.3-0.2,0.6-0.1,0.9l5.3,12.2c0.3,1.1,1.4,1.8,2.5,1.6h1.2
	c7.6,0,11.8-5,11.8-14S972.5,597.1,965,597.1z"/>
</svg>
