<?xml version="1.0" encoding="utf-8"?>
<!-- Generator: Adobe Illustrator 22.1.0, SVG Export Plug-In . SVG Version: 6.00 Build 0)  -->
<svg version="1.1" xmlns="http://www.w3.org/2000/svg" xmlns:xlink="http://www.w3.org/1999/xlink" x="0px" y="0px"
	 viewBox="0 0 1080 1080" style="enable-background:new 0 0 1080 1080;" xml:space="preserve">
<style type="text/css">
	.st0{fill:#FFFFFF;}
	.st1{fill:#EDF6F7;}
	.st2{fill:#6B839A;}
	.st3{fill:none;stroke:#6B839A;stroke-width:5;stroke-linecap:round;stroke-linejoin:round;}
	.st4{fill:#6D859B;}
	.st5{fill:#EDF6F7;stroke:#6B839A;stroke-width:5;stroke-linecap:round;stroke-linejoin:round;}
</style>
<g id="Layer_2">
	<path class="st0" d="M998.2,1071.6H79.8c-40,0-72.3-32.4-72.3-72.3V80.8c0-40,32.4-72.3,72.3-72.3h918.5c40,0,72.3,32.4,72.3,72.3
		v918.5C1070.6,1039.2,1038.2,1071.6,998.2,1071.6z"/>
</g>
<g id="Layer_1">
	<title>workshop_networks</title>
	<g id="Layer_2_1_">
		<path class="st1" d="M589.5,767c-51.3,0.1-100.5-20-136.9-56.2c-48,28.5-107.8,28.2-155.5-0.8c-52.2,32.6-121,16.7-153.6-35.5
			s-16.7-121,35.5-153.6c17.7-11.1,38.2-16.9,59.1-16.9c2.4,0,4.9,0.1,7.4,0.3c27.2-45.9,76.7-74.1,130.1-74.3
			c3.7,0,7.6,0.1,11.4,0.4C407.1,333.2,493.4,263,593,263c101.6,0,188.8,72.6,207.1,172.6c4.6-0.4,9.3-0.6,13.9-0.6
			c84.6,0,153.5,68.9,153.5,153.5S898.6,742,814,742c-32.3,0.1-63.7-10.1-89.8-29C688,747.7,639.7,767.1,589.5,767z"/>
		<path class="st2" d="M593,265.5c102.9,0,188.3,74.7,205,172.8c5.3-0.6,10.7-0.8,16-0.8c83.4,0,151,67.6,151,151
			c0,83.4-67.6,151-151,151c-32.4,0-64-10.4-90-29.8c-75.6,73.8-196.5,72.9-271-2c-47.9,29.3-108.2,29-155.9-0.6
			c-50.6,32.6-118.1,18-150.7-32.6c-32.6-50.6-18-118.1,32.6-150.7c17.6-11.3,38-17.3,58.9-17.4c3,0,5.9,0.1,8.8,0.4
			c26.5-46,75.6-74.4,128.7-74.4c4.5,0,9,0.2,13.4,0.6C407.7,337.5,492,265.5,593,265.5 M593,260.5c-100,0-186.6,69.6-208.1,167.3
			c-3.2-0.2-6.3-0.3-9.4-0.3c-53.8,0-103.6,28.1-131.4,74.2c-2-0.1-4.1-0.2-6.1-0.2c-63,0-114,51.1-114,114c0,63,51.1,114,114,114
			c20.8,0,41.3-5.7,59.1-16.5c47.7,28.3,107,28.7,155.1,1c75.6,73.2,195.4,74.1,272.2,2.2c70.5,49.5,167.8,32.4,217.3-38.2
			s32.4-167.8-38.2-217.3c-26.2-18.4-57.5-28.3-89.5-28.3c-3.9,0-7.9,0.1-11.9,0.5C782.8,332.7,695,260.4,593,260.5z"/>
		<path class="st3" d="M592.5,296.5c-64.6,0-123.4,36.9-151.6,94.9"/>
		<path class="st3" d="M791.5,471.5c-8.3,0-16.6,0.8-24.7,2.3c0.2-2.9,0.2-5.9,0.2-8.8c0-80-56.3-149-134.7-165.1"/>
		<path class="st3" d="M911.8,531c-12-21-29.5-38.3-50.6-50.1"/>
		<path class="st3" d="M929,596c0-14.7-2.4-29.3-7.2-43.1"/>
		<path class="st3" d="M244.1,699.1c-46.8,0-84.8-38-84.8-84.8"/>
		<path class="st3" d="M170.7,562.8c16-21,41-33.4,67.4-33.4"/>
	</g>
	<g id="Layer_3">
		<path class="st1" d="M264.1,353.1h132.1c11.5,0,20.8,9.3,20.8,20.8v132.1c0,11.5-9.3,20.8-20.8,20.8H264.1
			c-11.5,0-20.8-9.3-20.8-20.8V374C243.2,362.5,252.6,353.1,264.1,353.1z"/>
		<path class="st2" d="M396.2,355.6c10.1,0,18.3,8.2,18.3,18.3c0,0,0,0,0,0v132.1c0,10.1-8.2,18.3-18.3,18.4c0,0,0,0-0.1,0H264.1
			c-10.1,0-18.3-8.2-18.3-18.3V374c0-10.1,8.2-18.3,18.3-18.3H396.2 M396.2,350.6H264.1c-12.9,0-23.3,10.4-23.3,23.3v132.1
			c0,12.9,10.4,23.4,23.3,23.4l0,0h132.1c12.9,0,23.3-10.4,23.3-23.3V374C419.5,361.1,409.1,350.6,396.2,350.6z"/>
		<rect x="287.3" y="398.5" class="st0" width="84.7" height="84.7"/>
		<path class="st3" d="M278.2,388.4h104.3c0.3,0,0.5,0.2,0.5,0.5v104.3c0,0.3-0.2,0.5-0.5,0.5H278.2c-0.3,0-0.5-0.2-0.5-0.5V389
			C277.7,388.7,277.9,388.4,278.2,388.4z"/>
		<rect x="275.8" y="308.9" class="st4" width="13.9" height="37.8"/>
		<rect x="307.8" y="308.5" class="st4" width="13.9" height="37.8"/>
		<rect x="339.1" y="308.9" class="st4" width="13.9" height="37.8"/>
		<rect x="371.5" y="308.8" class="st4" width="13.9" height="37.8"/>
		<rect x="275.8" y="532.6" class="st4" width="13.9" height="37.8"/>
		<rect x="307.8" y="532.2" class="st4" width="13.9" height="37.8"/>
		<rect x="339.1" y="532.6" class="st4" width="13.9" height="37.8"/>
		<rect x="371.5" y="532.5" class="st4" width="13.9" height="37.8"/>
		<rect x="423.7" y="481.1" class="st4" width="37.8" height="13.9"/>
		<rect x="423.3" y="449.1" class="st4" width="37.8" height="13.9"/>
		<rect x="423.7" y="417.8" class="st4" width="37.8" height="13.9"/>
		<rect x="423.6" y="385.4" class="st4" width="37.8" height="13.9"/>
		<rect x="199.2" y="481.5" class="st4" width="37.8" height="13.9"/>
		<rect x="198.8" y="449.5" class="st4" width="37.8" height="13.9"/>
		<rect x="199.2" y="418.2" class="st4" width="37.8" height="13.9"/>
		<rect x="199.1" y="385.8" class="st4" width="37.8" height="13.9"/>
	</g>
	<g id="Layer_4">
		<path class="st0" d="M745.4,524c-5.8,0.2-10.7-4.3-10.9-10.1c-0.2-5.8,4.3-10.7,10.1-10.9c5.8-0.2,10.7,4.3,10.9,10.1
			c0,0.1,0,0.3,0,0.4C755.6,519.1,751.1,523.8,745.4,524z"/>
		<path class="st2" d="M745.4,505.5c4.4-0.2,8.2,3.2,8.4,7.6c0.2,4.4-3.2,8.2-7.6,8.4c-4.4,0.2-8.2-3.2-8.4-7.6c0-0.1,0-0.3,0-0.4
			C737.7,509.1,741.1,505.6,745.4,505.5C745.4,505.5,745.4,505.5,745.4,505.5 M745.4,500.5c-7.2-0.2-13.2,5.4-13.4,12.6
			c-0.2,7.2,5.4,13.2,12.6,13.4c7.2,0.2,13.2-5.4,13.4-12.6c0-0.1,0-0.3,0-0.4C758.1,506.4,752.5,500.6,745.4,500.5z"/>
		<polyline class="st3" points="372.1,731.5 579.6,513 733,513 		"/>
		<polyline class="st3" points="298,710.5 414.4,588 455.7,588 563.7,474.2 660.9,474.2 		"/>
		<path class="st0" d="M670.4,485c-5.8,0.2-10.7-4.3-10.9-10.1c-0.2-5.8,4.3-10.7,10.1-10.9c5.8-0.2,10.7,4.3,10.9,10.1
			c0,0.1,0,0.3,0,0.4C680.6,480.1,676,484.8,670.4,485z"/>
		<path class="st2" d="M670.4,466.5c4.4-0.2,8.2,3.2,8.4,7.6s-3.2,8.2-7.6,8.4c-4.4,0.2-8.2-3.2-8.4-7.6c0-0.1,0-0.3,0-0.4
			C662.6,470.1,666,466.6,670.4,466.5C670.4,466.5,670.4,466.5,670.4,466.5 M670.4,461.5c-7.2-0.2-13.2,5.5-13.4,12.6
			c-0.2,7.2,5.5,13.2,12.6,13.4c7.2,0.2,13.2-5.5,13.4-12.6c0-0.1,0-0.2,0-0.4C683.1,467.4,677.5,461.6,670.4,461.5L670.4,461.5z"/>
		<polyline class="st3" points="331.3,725.5 428.1,623.5 521.2,623.5 589.1,552 		"/>
		<path class="st0" d="M591.5,559c-5.8,0.2-10.7-4.3-10.9-10.1c-0.2-5.8,4.3-10.7,10.1-10.9c5.8-0.2,10.7,4.3,10.9,10.1
			c0,0.1,0,0.3,0,0.4C601.7,554.1,597.2,558.8,591.5,559z"/>
		<path class="st2" d="M591.5,540.5c4.4-0.2,8.2,3.2,8.4,7.6c0.2,4.4-3.2,8.2-7.6,8.4c-4.4,0.2-8.2-3.2-8.4-7.6c0-0.1,0-0.3,0-0.4
			C583.8,544.1,587.2,540.6,591.5,540.5 M591.5,535.5c-7.2-0.2-13.2,5.4-13.4,12.6c-0.2,7.2,5.4,13.2,12.6,13.4
			c7.2,0.2,13.2-5.4,13.4-12.6c0-0.1,0-0.3,0-0.4C604.2,541.4,598.6,535.6,591.5,535.5z"/>
		<polyline class="st5" points="430.6,721.5 487.6,661.5 556,661.5 		"/>
		<path class="st0" d="M564.6,671c-5.8,0.2-10.7-4.3-10.9-10.1c-0.2-5.8,4.3-10.7,10.1-10.9c5.8-0.2,10.7,4.3,10.9,10.1
			c0,0.1,0,0.3,0,0.4C574.8,666.1,570.3,670.8,564.6,671z"/>
		<path class="st2" d="M564.6,652.5c4.4-0.2,8.2,3.2,8.4,7.6c0.2,4.4-3.2,8.2-7.6,8.4c-4.4,0.2-8.2-3.2-8.4-7.6c0-0.1,0-0.3,0-0.4
			C556.9,656.1,560.3,652.6,564.6,652.5C564.6,652.5,564.6,652.5,564.6,652.5 M564.6,647.5c-7.2-0.2-13.2,5.4-13.4,12.6
			c-0.2,7.2,5.4,13.2,12.6,13.4c7.2,0.2,13.2-5.4,13.4-12.6c0-0.1,0-0.3,0-0.4C577.3,653.4,571.6,647.6,564.6,647.5z"/>
	</g>
</g>
</svg>
