<svg xmlns="http://www.w3.org/2000/svg" viewBox="0 0 1080 1080"><defs><style>.cls-1,.cls-10,.cls-6{fill:#fff;}.cls-1,.cls-10,.cls-2,.cls-4,.cls-5,.cls-6,.cls-7,.cls-8,.cls-9{stroke:#6b839a;}.cls-1,.cls-10,.cls-2,.cls-4,.cls-6,.cls-7,.cls-8,.cls-9{stroke-linecap:round;stroke-linejoin:round;}.cls-1,.cls-4,.cls-5,.cls-7{stroke-width:5px;}.cls-2,.cls-7{fill:none;}.cls-2{stroke-width:3px;}.cls-3,.cls-5{fill:#6b839a;}.cls-4,.cls-8,.cls-9{fill:#edf6f7;}.cls-5{stroke-miterlimit:10;}.cls-6{stroke-width:2px;}.cls-8{stroke-width:10px;opacity:0.5;}.cls-9{stroke-width:4px;}</style></defs><title>workshop_datascience</title><g id="Layer_3" data-name="Layer 3"><path class="cls-1" d="M620.07,526.35l269,73.38C848.87,747.32,694.29,835.65,546.7,795.4S310.77,600.57,351,453c33.2-121.74,145.08-206.5,271.27-205.49Z"/><path class="cls-2" d="M838.36,373.65a208.47,208.47,0,0,0-57-46.92"/><path class="cls-2" d="M885.42,541.5a208.62,208.62,0,0,0-34.75-151.86"/><path class="cls-2" d="M852.46,350.39a208.51,208.51,0,0,0-31-26.4"/><path class="cls-2" d="M910.89,497.65a208.55,208.55,0,0,0-52.14-140.44"/><path class="cls-3" d="M655.85,519.45,857.1,574.33a208.59,208.59,0,0,0-99.34-236.89Z"/><path class="cls-4" d="M751.57,250q-12.35-5.28-25.13-9.38"/><path class="cls-4" d="M714.29,237.06a287.06,287.06,0,0,0-68.59-10l-7,287,137-252.33q-7.87-4.28-16-8.05"/><path class="cls-2" d="M694.77,218.48c29.64,3.83,75.83,21.18,82,27.28"/><line class="cls-2" x1="671.05" y1="217.21" x2="683.95" y2="217.79"/></g><g id="Layer_6" data-name="Layer 6"><path class="cls-4" d="M588.18,664.05H223.71V758.5a13,13,0,0,0-.68,4.07c0,26,81.56,47,182.18,47,98.56,0,178.83-20.21,182.06-45.45h.91Z"/><ellipse class="cls-3" cx="407.52" cy="662.27" rx="184.6" ry="47.03"/><path class="cls-4" d="M587.39,541.66H222.92v94.45a12.74,12.74,0,0,0-.69,4.07c0,26,81.57,47,182.18,47,98.56,0,178.83-20.21,182.07-45.45h.91Z"/><ellipse class="cls-3" cx="406.72" cy="539.88" rx="184.6" ry="47.03"/><path class="cls-4" d="M588.18,420.11H223.71v94.45a13,13,0,0,0-.68,4.06c0,26,81.56,47,182.18,47,98.56,0,178.83-20.2,182.06-45.44h.91Z"/><ellipse class="cls-1" cx="406.15" cy="418.33" rx="182.23" ry="47.03"/></g><g id="Layer_2" data-name="Layer 2"><circle class="cls-5" cx="477.26" cy="749.93" r="123.29"/><path class="cls-1" d="M488,787.31c42.31,2.49,81.46-5.1,111.56-19.57a123.29,123.29,0,0,1-245.18-24.32c.16-2.69.41-5.36.74-8C383.17,763.7,431.76,784,488,787.31Z"/><circle class="cls-4" cx="417.98" cy="771.16" r="27.1"/><circle class="cls-6" cx="417.96" cy="771.64" r="18.82"/></g><g id="Layer_5" data-name="Layer 5"><path class="cls-4" d="M546.57,487.05a142.76,142.76,0,1,0,200.8,20.88A142.75,142.75,0,0,0,546.57,487.05ZM713.22,694.32a122.66,122.66,0,1,1,17.95-172.53A122.64,122.64,0,0,1,713.22,694.32Z"/><line class="cls-1" x1="681.49" y1="586.81" x2="619.23" y2="651.97"/><line class="cls-7" x1="689.83" y1="533.55" x2="631.83" y2="594.26"/><line class="cls-7" x1="620.97" y1="607.45" x2="608.25" y2="620.77"/><line class="cls-7" x1="609.33" y1="574.18" x2="566.09" y2="619.44"/><rect class="cls-4" x="760.51" y="680.4" width="47.62" height="203.52" rx="12" ry="12" transform="translate(-317.61 669.5) rotate(-39.08)"/><rect class="cls-3" x="794.88" y="776.92" width="48.23" height="97.92" rx="12" ry="12" transform="translate(-337.41 701.15) rotate(-39.08)"/><circle class="cls-8" cx="636.36" cy="598.37" r="117.93"/></g><g id="Layer_4" data-name="Layer 4"><circle class="cls-5" cx="350.89" cy="371.12" r="61.64"/><path class="cls-1" d="M344.45,389.46c-21.19,0-40.51-4.94-55.1-13a61.64,61.64,0,0,0,123.09-4.95c0-1.34-.05-2.68-.14-4C397.45,380.75,372.6,389.46,344.45,389.46Z"/><circle class="cls-9" cx="379.85" cy="383.45" r="13.55"/><circle class="cls-10" cx="379.85" cy="383.69" r="9.41"/></g></svg>