<?xml version="1.0" encoding="utf-8"?>
<!-- Generator: Adobe Illustrator 22.1.0, SVG Export Plug-In . SVG Version: 6.00 Build 0)  -->
<svg version="1.1" xmlns="http://www.w3.org/2000/svg" xmlns:xlink="http://www.w3.org/1999/xlink" x="0px" y="0px"
	 viewBox="0 0 1080 1080" style="enable-background:new 0 0 1080 1080;" xml:space="preserve">
<style type="text/css">
	.st0{fill:#FFFFFF;}
	.st1{fill:#6B839A;}
	.st2{fill:#EDF6F7;stroke:#6B839A;stroke-width:10;stroke-linecap:round;stroke-linejoin:round;}
	.st3{fill:#EDF6F7;stroke:#6B839A;stroke-width:5;stroke-linecap:round;stroke-linejoin:round;}
	.st4{fill:none;stroke:#6B839A;stroke-width:5;stroke-linecap:round;stroke-linejoin:round;}
	.st5{fill:#FFFFFF;stroke:#6B839A;stroke-width:5;stroke-linecap:round;stroke-linejoin:round;}
	.st6{fill:none;stroke:#FFFFFF;stroke-width:10;stroke-linecap:round;stroke-linejoin:round;}
	.st7{fill:none;stroke:#EDF6F7;stroke-width:5;stroke-linecap:round;stroke-linejoin:round;}
</style>
<g id="Layer_2">
	<path class="st0" d="M999.6,1071.6H78.4c-39.2,0-71-31.8-71-71V79.4c0-39.2,31.8-71,71-71h921.1c39.2,0,71,31.8,71,71v921.1
		C1070.6,1039.8,1038.8,1071.6,999.6,1071.6z"/>
</g>
<g id="Layer_1">
	<title>workshop_se</title>
	<g id="Layer_2_1_">
		<rect x="506.6" y="327.1" class="st1" width="41.1" height="179.4"/>
	</g>
	<g id="Layer_3">
		<polyline class="st2" points="671.8,795.4 616.7,795.4 583,795.4 		"/>
		<path class="st3" d="M516.2,797.8H360.1c-7.8,0-14.1-6.3-14.1-14.1V411.1c0-7.8,6.3-14.1,14.1-14.1h332.3
			c7.8,0,14.1,6.3,14.1,14.1v372.6c0,7.8-6.3,14.1-14.1,14.1"/>
		<line class="st4" x1="548.7" y1="797.8" x2="527.4" y2="797.8"/>
		<path class="st1" d="M421.6,429.7h210.1c7.8,0,14.1,6.3,14.1,14.1v124.4c0,7.8-6.3,14.1-14.1,14.1H421.6
			c-7.8,0-14.1-6.3-14.1-14.1V443.7C407.5,436,413.8,429.7,421.6,429.7z"/>
		<rect x="501.2" y="600.6" class="st5" width="47.5" height="47.5"/>
		<path class="st1" d="M442.3,630.1l30.4,17.6c3.2,1.9,7.3,0.7,9.2-2.5c0.6-1,0.9-2.2,0.9-3.4v-35.1c0-3.7-2.9-6.7-6.6-6.8
			c-1.2,0-2.4,0.3-3.4,0.9l-30.4,17.6c-3.2,1.8-4.3,6-2.5,9.2C440.4,628.6,441.2,629.5,442.3,630.1z"/>
		<path class="st1" d="M607.8,618.4l-30.4-17.6c-3.2-1.9-7.3-0.8-9.2,2.4c-0.6,1-0.9,2.2-0.9,3.4v35.2c0,3.7,3,6.7,6.7,6.8
			c1.2,0,2.4-0.3,3.4-0.9l30.4-17.6c3.2-1.8,4.4-5.9,2.6-9.1C609.8,619.9,608.9,619,607.8,618.4z"/>
		<path class="st1" d="M510.6,663.3h28.8c5.2,0,9.4,4.2,9.4,9.4v5.5c0,5.2-4.2,9.4-9.4,9.4h-28.8c-5.2,0-9.4-4.2-9.4-9.4v-5.5
			C501.2,667.5,505.4,663.3,510.6,663.3z"/>
		<polyline class="st6" points="474.9,482.2 433,506.8 474.9,530.7 		"/>
		<polyline class="st6" points="577.3,482.2 619.1,506.8 577.3,530.7 		"/>
		<line class="st6" x1="550.6" y1="466.7" x2="500.4" y2="546.1"/>
		<line class="st7" x1="548.7" y1="438.7" x2="606.3" y2="438.7"/>
		<line class="st7" x1="618" y1="438.7" x2="628.6" y2="438.7"/>
	</g>
	<g id="Layer_6">
		<path class="st3" d="M379.8,223.2H671c7.8,0,14.1,6.3,14.1,14.1V324c0,7.8-6.3,14.1-14.1,14.1H379.8c-7.8,0-14.1-6.3-14.1-14.1
			v-86.7C365.7,229.5,372,223.2,379.8,223.2z"/>
		<ellipse class="st1" cx="527.4" cy="280.5" rx="126.8" ry="68.1"/>
		<ellipse class="st1" cx="448.5" cy="292" rx="67.7" ry="62.6"/>
		<ellipse class="st1" cx="605.2" cy="292" rx="67.7" ry="62.6"/>
		<ellipse class="st5" cx="606.3" cy="292.2" rx="43.8" ry="40.5"/>
		<ellipse class="st5" cx="447" cy="292.2" rx="43.8" ry="40.5"/>
		<ellipse class="st5" cx="447.3" cy="292.2" rx="34.6" ry="32"/>
		<ellipse class="st5" cx="606.3" cy="292.2" rx="34.6" ry="32"/>
		<path class="st7" d="M666.5,292.9c0.3,3.5,0,3.6-0.3,7.2c-0.2,2.2-0.4,4.3-0.8,6.4"/>
		<path class="st7" d="M638,244.2c14.6,8.7,24.7,23.4,27.6,40.2"/>
		<path class="st7" d="M509.6,292.9c0.3,3.5,0,3.6-0.3,7.2c-0.2,2.1-0.4,4.3-0.8,6.4"/>
		<path class="st7" d="M481,244.2c14.6,8.8,24.6,23.4,27.5,40.2"/>
		<path class="st1" d="M298.9,715.7h23.7c7.8,0,14.1,6.3,14.1,14.1V820c0,7.8-6.3,14.1-14.1,14.1h-23.7c-7.8,0-14.1-6.3-14.1-14.1
			v-90.3C284.8,722,291.1,715.7,298.9,715.7z"/>
		<path class="st1" d="M730,715.7h23.7c7.8,0,14.1,6.3,14.1,14.1V820c0,7.8-6.3,14.1-14.1,14.1H730c-7.8,0-14.1-6.3-14.1-14.1v-90.3
			C715.9,722,722.2,715.7,730,715.7z"/>
		<rect x="715.9" y="423.2" class="st1" width="18.3" height="165.4"/>
		<rect x="318.4" y="423.7" class="st1" width="18.3" height="165.4"/>
		<path class="st5" d="M296.9,579.5h61.3c7.8,0,14.1,6.3,14.1,14.1v61.3c0,7.8-6.3,14.1-14.1,14.1h-61.3c-7.8,0-14.1-6.3-14.1-14.1
			v-61.3C282.8,585.8,289.1,579.5,296.9,579.5z"/>
		<path class="st5" d="M693.2,579.5h61.3c7.8,0,14.1,6.3,14.1,14.1v61.3c0,7.8-6.3,14.1-14.1,14.1h-61.3c-7.8,0-14.1-6.3-14.1-14.1
			v-61.3C679.1,585.8,685.4,579.5,693.2,579.5z"/>
		<path class="st3" d="M308.6,591.2h37.9c7.8,0,14.1,6.3,14.1,14.1v37.9c0,7.8-6.3,14.1-14.1,14.1h-37.9c-7.8,0-14.1-6.3-14.1-14.1
			v-37.9C294.5,597.5,300.8,591.2,308.6,591.2z"/>
		<path class="st3" d="M704.9,591.2h37.9c7.8,0,14.1,6.3,14.1,14.1v37.9c0,7.8-6.3,14.1-14.1,14.1h-37.9c-7.8,0-14.1-6.3-14.1-14.1
			v-37.9C690.9,597.5,697.2,591.2,704.9,591.2z"/>
	</g>
	<g id="Layer_4">
		<line class="st4" x1="454" y1="813" x2="627.4" y2="813"/>
		<line class="st4" x1="650.1" y1="813" x2="685.1" y2="813"/>
		<line class="st4" x1="598.2" y1="828.2" x2="660.2" y2="828.2"/>
		<line class="st4" x1="577.3" y1="828.2" x2="567.3" y2="828.2"/>
		<line class="st4" x1="734.2" y1="830.6" x2="802.1" y2="830.6"/>
		<line class="st4" x1="767.8" y1="813" x2="786.8" y2="813"/>
		<line class="st4" x1="796.2" y1="813" x2="845.5" y2="813"/>
		<line class="st4" x1="813.8" y1="830.6" x2="827.9" y2="830.6"/>
		<line class="st4" x1="308.4" y1="830.6" x2="376.3" y2="830.6"/>
		<line class="st4" x1="388" y1="830.6" x2="402.1" y2="830.6"/>
		<line class="st4" x1="326.6" y1="813" x2="394.5" y2="813"/>
	</g>
</g>
</svg>
