<svg xmlns="http://www.w3.org/2000/svg" viewBox="0 0 1080 1080"><defs><style>.cls-1{fill:#6b839a;}.cls-2,.cls-5,.cls-6{fill:#edf6f7;}.cls-2,.cls-3,.cls-4,.cls-5,.cls-6{stroke:#6b839a;stroke-linecap:round;stroke-linejoin:round;}.cls-2,.cls-3,.cls-4{stroke-width:5px;}.cls-3{fill:#fff;}.cls-4{fill:none;}.cls-5,.cls-6{stroke-width:10px;}.cls-5{opacity:0.5;}</style></defs><title>workshop_multi</title><g id="Layer_2" data-name="Layer 2"><rect class="cls-1" x="199.11" y="382.89" width="577.47" height="407.98"/><rect class="cls-2" x="237.11" y="349.87" width="577.47" height="407.98"/><polyline class="cls-3" points="859.58 586.88 859.58 715.72 282.11 715.72 282.11 307.74 859.58 307.74 859.58 382.89"/><line class="cls-3" x1="859.58" y1="463.74" x2="859.58" y2="568.56"/><line class="cls-3" x1="859.58" y1="401.95" x2="859.58" y2="442.86"/></g><g id="Layer_3" data-name="Layer 3"><line class="cls-4" x1="838.07" y1="340.1" x2="838.07" y2="602.59"/><line class="cls-4" x1="838.07" y1="617.09" x2="838.07" y2="648.58"/><line class="cls-4" x1="817.07" y1="447.89" x2="817.07" y2="628.61"/><line class="cls-4" x1="817.07" y1="643.15" x2="817.07" y2="680.86"/><path class="cls-2" d="M321.1,678.25H744.59L639.65,411.65c-8.84-22.46-40.58-23.88-51.46-2.31l-67.51,133.9c-7.78,15.42-30,15.69-38.18.46l-18.29-34.15c-12.34-23.05-46-22.68-57.84.63Z"/><path class="cls-4" d="M364.65,600.15l23.66-12.65a24,24,0,0,1,24.5,1.14l5.25,3.46A24,24,0,0,0,443,593l10.14-5.68a24,24,0,0,1,23.34-.07l10.64,5.9a24,24,0,0,0,24.72-.9l4.95-3.24a24,24,0,0,1,25.5-.44l7.22,4.36a24,24,0,0,0,24.12.39l9.6-5.39a24,24,0,0,1,24.95.92l2.76,1.82a23.94,23.94,0,0,0,27-.38h0a24,24,0,0,1,27.24-.22l.68.47a24,24,0,0,0,27.85-.66l12.12-9.1"/><circle class="cls-2" cx="389.17" cy="379.29" r="39.19"/></g><g id="Layer_5" data-name="Layer 5"><path class="cls-1" d="M545,456.43A132.6,132.6,0,1,0,732.51,461,132.61,132.61,0,0,0,545,456.43ZM714.59,636.11A113.94,113.94,0,1,1,718.53,475,113.93,113.93,0,0,1,714.59,636.11Z"/><line class="cls-3" x1="712.31" y1="557.12" x2="652.57" y2="615.76"/><line class="cls-4" x1="721.64" y1="507.92" x2="665.98" y2="562.55"/><line class="cls-4" x1="655.51" y1="574.48" x2="643.3" y2="586.47"/><line class="cls-4" x1="645.69" y1="543.25" x2="604.2" y2="583.97"/><circle class="cls-5" cx="636.36" cy="552.91" r="109.55"/><rect class="cls-6" x="761.69" y="614.22" width="44.23" height="189.05" rx="12" ry="12" transform="translate(-272.55 736.42) rotate(-43.62)"/><rect class="cls-1" x="796.74" y="701.2" width="44.8" height="90.96" rx="12" ry="12" transform="translate(-288.97 771.26) rotate(-43.62)"/></g></svg>