<?xml version="1.0" encoding="utf-8"?>
<!-- Generator: Adobe Illustrator 22.1.0, SVG Export Plug-In . SVG Version: 6.00 Build 0)  -->
<svg version="1.1" xmlns="http://www.w3.org/2000/svg" xmlns:xlink="http://www.w3.org/1999/xlink" x="0px" y="0px"
	 viewBox="0 0 1080 1080" style="enable-background:new 0 0 1080 1080;" xml:space="preserve">
<style type="text/css">
	.st0{fill:#FFFFFF;}
	.st1{fill:#6B839A;}
	.st2{fill:#EDF6F7;stroke:#6B839A;stroke-width:10;stroke-linecap:round;stroke-linejoin:round;}
	.st3{fill:#EDF6F7;stroke:#6B839A;stroke-width:5;stroke-linecap:round;stroke-linejoin:round;}
	.st4{fill:none;stroke:#6B839A;stroke-width:5;stroke-linecap:round;stroke-linejoin:round;}
	.st5{fill:#FFFFFF;stroke:#6B839A;stroke-width:5;stroke-linecap:round;stroke-linejoin:round;}
	.st6{fill:none;stroke:#FFFFFF;stroke-width:10;stroke-linecap:round;stroke-linejoin:round;}
	.st7{fill:none;stroke:#EDF6F7;stroke-width:5;stroke-linecap:round;stroke-linejoin:round;}
</style>
<g id="Layer_2">
	<path class="st0" d="M1025.1,1071.6H52.9c-25.1,0-45.5-20.4-45.5-45.5V53.9c0-25.1,20.4-45.5,45.5-45.5h972.1
		c25.1,0,45.5,20.4,45.5,45.5v972.1C1070.6,1051.2,1050.2,1071.6,1025.1,1071.6z"/>
</g>
<g id="Layer_1">
	<title>workshop_se</title>
	<g id="Layer_2_1_">
		<rect x="505.3" y="360.7" class="st1" width="35.1" height="153"/>
	</g>
	<g id="Layer_3">
		<polyline class="st2" points="646.2,760.3 599.2,760.3 570.5,760.3 		"/>
		<path class="st3" d="M513.5,762.3H380.4c-6.6,0-12-5.4-12-12V432.4c0-6.6,5.4-12,12-12h283.5c6.6,0,12,5.4,12,12v317.8
			c0,6.6-5.4,12-12,12"/>
		<line class="st4" x1="541.2" y1="762.3" x2="523" y2="762.3"/>
		<path class="st1" d="M432.8,448.3H612c6.6,0,12,5.4,12,12v106.1c0,6.6-5.4,12-12,12H432.8c-6.6,0-12-5.4-12-12V460.3
			C420.8,453.6,426.2,448.3,432.8,448.3z"/>
		<rect x="500.7" y="594.1" class="st5" width="40.5" height="40.5"/>
		<path class="st1" d="M450.4,619.2l25.9,15c2.7,1.6,6.2,0.6,7.8-2.1c0.5-0.9,0.8-1.9,0.8-2.9v-29.9c0-3.2-2.5-5.7-5.7-5.8
			c-1,0-2,0.3-2.9,0.8l-25.9,15c-2.7,1.6-3.7,5.1-2.1,7.8C448.8,618,449.5,618.7,450.4,619.2z"/>
		<path class="st1" d="M591.6,609.3l-26-15c-2.7-1.6-6.2-0.7-7.8,2.1c-0.5,0.9-0.8,1.9-0.8,2.9v30c0,3.2,2.5,5.7,5.7,5.8
			c1,0,2-0.3,2.9-0.8l26-15c2.8-1.5,3.7-5,2.2-7.8C593.3,610.5,592.6,609.8,591.6,609.3z"/>
		<path class="st1" d="M508.7,647.6h24.5c4.4,0,8,3.6,8,8v4.7c0,4.4-3.6,8-8,8h-24.5c-4.4,0-8-3.6-8-8v-4.7
			C500.7,651.1,504.3,647.6,508.7,647.6z"/>
		<polyline class="st6" points="478.2,493 442.5,514 478.2,534.4 		"/>
		<polyline class="st6" points="565.6,493 601.3,514 565.6,534.4 		"/>
		<line class="st6" x1="542.8" y1="479.9" x2="500" y2="547.5"/>
		<line class="st7" x1="541.2" y1="455.9" x2="590.3" y2="455.9"/>
		<line class="st7" x1="600.4" y1="455.9" x2="609.4" y2="455.9"/>
	</g>
	<g id="Layer_6">
		<path class="st3" d="M397.1,272.1h248.4c6.6,0,12,5.4,12,12v74c0,6.6-5.4,12-12,12H397.1c-6.6,0-12-5.4-12-12v-74
			C385.1,277.5,390.5,272.1,397.1,272.1z"/>
		<ellipse class="st1" cx="523" cy="321" rx="108.2" ry="58.1"/>
		<ellipse class="st1" cx="455.7" cy="330.8" rx="57.8" ry="53.4"/>
		<ellipse class="st1" cx="589.4" cy="330.8" rx="57.8" ry="53.4"/>
		<ellipse class="st5" cx="590.3" cy="331" rx="37.3" ry="34.5"/>
		<ellipse class="st5" cx="454.5" cy="331" rx="37.3" ry="34.5"/>
		<ellipse class="st5" cx="454.7" cy="331" rx="29.5" ry="27.3"/>
		<ellipse class="st5" cx="590.3" cy="331" rx="29.5" ry="27.3"/>
		<path class="st7" d="M641.7,331.6c0.3,3,0,3-0.2,6.1c-0.1,1.8-0.4,3.7-0.7,5.5"/>
		<path class="st7" d="M617.4,290c12.4,7.5,21,20,23.5,34.3"/>
		<path class="st7" d="M507.8,331.6c0.3,3,0,3-0.2,6.1c-0.1,1.8-0.4,3.7-0.7,5.5"/>
		<path class="st7" d="M483.5,290c12.4,7.5,21,20,23.5,34.3"/>
		<path class="st1" d="M328.1,692.3h20.2c6.6,0,12,5.4,12,12v77c0,6.6-5.4,12-12,12h-20.2c-6.6,0-12-5.4-12-12v-77
			C316.1,697.6,321.5,692.3,328.1,692.3z"/>
		<path class="st1" d="M695.9,692.3h20.2c6.6,0,12,5.4,12,12v77c0,6.6-5.4,12-12,12h-20.2c-6.6,0-12-5.4-12-12v-77
			C683.9,697.6,689.2,692.3,695.9,692.3z"/>
		<rect x="683.9" y="442.8" class="st1" width="15.6" height="141.1"/>
		<rect x="344.7" y="443.2" class="st1" width="15.6" height="141.1"/>
		<path class="st5" d="M326.4,576.1h52.3c6.6,0,12,5.4,12,12v52.3c0,6.6-5.4,12-12,12h-52.3c-6.6,0-12-5.4-12-12v-52.3
			C314.4,581.5,319.8,576.1,326.4,576.1z"/>
		<path class="st5" d="M664.5,576.1h52.3c6.6,0,12,5.4,12,12v52.3c0,6.6-5.4,12-12,12h-52.3c-6.6,0-12-5.4-12-12v-52.3
			C652.5,581.5,657.8,576.1,664.5,576.1z"/>
		<path class="st3" d="M336.4,586.1h32.3c6.6,0,12,5.4,12,12v32.3c0,6.6-5.4,12-12,12h-32.3c-6.6,0-12-5.4-12-12v-32.3
			C324.4,591.5,329.7,586.1,336.4,586.1z"/>
		<path class="st3" d="M674.5,586.1h32.3c6.6,0,12,5.4,12,12v32.3c0,6.6-5.4,12-12,12h-32.3c-6.6,0-12-5.4-12-12v-32.3
			C662.5,591.4,667.9,586.1,674.5,586.1z"/>
	</g>
	<g id="Layer_4">
		<line class="st4" x1="460.4" y1="775.3" x2="608.4" y2="775.3"/>
		<line class="st4" x1="627.7" y1="775.3" x2="657.5" y2="775.3"/>
		<line class="st4" x1="583.4" y1="788.3" x2="636.4" y2="788.3"/>
		<line class="st4" x1="565.6" y1="788.3" x2="557.1" y2="788.3"/>
		<line class="st4" x1="699.5" y1="790.3" x2="757.4" y2="790.3"/>
		<line class="st4" x1="728.1" y1="775.3" x2="744.4" y2="775.3"/>
		<line class="st4" x1="752.4" y1="775.3" x2="794.4" y2="775.3"/>
		<line class="st4" x1="767.4" y1="790.3" x2="779.4" y2="790.3"/>
		<line class="st4" x1="336.2" y1="790.3" x2="394.1" y2="790.3"/>
		<line class="st4" x1="404.1" y1="790.3" x2="416.1" y2="790.3"/>
		<line class="st4" x1="351.7" y1="775.3" x2="409.6" y2="775.3"/>
	</g>
</g>
</svg>
