<svg xmlns="http://www.w3.org/2000/svg" viewBox="0 0 1080 1080"><defs><style>.cls-1{fill:#6b839a;}.cls-2,.cls-3{fill:#edf6f7;}.cls-2,.cls-3,.cls-4,.cls-7{stroke:#6b839a;}.cls-2,.cls-3,.cls-4,.cls-5,.cls-6,.cls-7{stroke-linecap:round;stroke-linejoin:round;}.cls-2,.cls-5{stroke-width:10px;}.cls-3,.cls-4,.cls-6,.cls-7{stroke-width:5px;}.cls-4{fill:#fff;}.cls-5,.cls-6,.cls-7{fill:none;}.cls-5{stroke:#fff;}.cls-6{stroke:#edf6f7;}</style></defs><title>workshop_se</title><g id="Layer_2" data-name="Layer 2"><rect class="cls-1" x="498.96" y="385.46" width="35.08" height="153"/></g><g id="Layer_3" data-name="Layer 3"><polyline class="cls-2" points="639.87 785 592.88 785 564.13 785"/><path class="cls-3" d="M507.15,787H374a12,12,0,0,1-12-12V457.17a12,12,0,0,1,12-12H657.5a12,12,0,0,1,12,12V775a12,12,0,0,1-12,12"/><line class="cls-3" x1="534.89" y1="787" x2="516.69" y2="787"/><rect class="cls-1" x="414.43" y="473" width="203.2" height="130.08" rx="12" ry="12"/><rect class="cls-4" x="494.35" y="618.82" width="40.54" height="40.54"/><path class="cls-1" d="M444.05,643.94l25.94,15a5.73,5.73,0,0,0,8.59-5V624a5.72,5.72,0,0,0-8.59-5l-25.94,15A5.73,5.73,0,0,0,444.05,643.94Z"/><path class="cls-1" d="M585.29,634l-25.95-15a5.72,5.72,0,0,0-8.59,5v30a5.73,5.73,0,0,0,8.59,5l25.95-15A5.73,5.73,0,0,0,585.29,634Z"/><rect class="cls-1" x="494.35" y="672.3" width="40.54" height="20.7" rx="8" ry="8"/><polyline class="cls-5" points="471.88 517.77 436.19 538.79 471.88 559.16"/><polyline class="cls-5" points="559.24 517.77 594.92 538.79 559.24 559.16"/><line class="cls-5" x1="536.47" y1="504.63" x2="493.65" y2="572.29"/><line class="cls-6" x1="534.89" y1="480.67" x2="583.97" y2="480.67"/><line class="cls-6" x1="594" y1="480.67" x2="603.04" y2="480.67"/></g><g id="Layer_6" data-name="Layer 6"><rect class="cls-3" x="378.76" y="296.89" width="272.42" height="97.95" rx="12" ry="12"/><ellipse class="cls-1" cx="516.69" cy="345.77" rx="108.17" ry="58.08"/><ellipse class="cls-1" cx="449.36" cy="355.56" rx="57.79" ry="53.41"/><ellipse class="cls-1" cx="583.08" cy="355.56" rx="57.79" ry="53.41"/><ellipse class="cls-4" cx="583.97" cy="355.72" rx="37.34" ry="34.51"/><ellipse class="cls-4" cx="448.11" cy="355.72" rx="37.34" ry="34.51"/><ellipse class="cls-4" cx="448.36" cy="355.72" rx="29.52" ry="27.28"/><ellipse class="cls-4" cx="583.97" cy="355.72" rx="29.52" ry="27.28"/><path class="cls-6" d="M635.36,356.32c.28,3,0,3.05-.23,6.11a53.88,53.88,0,0,1-.71,5.49"/><path class="cls-6" d="M611,314.74A49.93,49.93,0,0,1,634.52,349"/><path class="cls-6" d="M501.46,356.32c.27,3,0,3.05-.23,6.11-.15,1.83-.38,3.67-.71,5.49"/><path class="cls-6" d="M477.13,314.74A49.93,49.93,0,0,1,500.61,349"/><rect class="cls-1" x="309.76" y="717" width="44.24" height="101" rx="12" ry="12"/><rect class="cls-1" x="677.5" y="717" width="44.24" height="101" rx="12" ry="12"/><rect class="cls-1" x="677.5" y="467.5" width="15.62" height="141.08"/><rect class="cls-1" x="338.38" y="467.92" width="15.62" height="141.08"/><rect class="cls-4" x="308.05" y="600.84" width="76.28" height="76.28" rx="12" ry="12"/><rect class="cls-4" x="646.1" y="600.84" width="76.28" height="76.28" rx="12" ry="12"/><rect class="cls-3" x="318" y="610.82" width="56.33" height="56.33" rx="12" ry="12"/><rect class="cls-3" x="656.14" y="610.81" width="56.33" height="56.33" rx="12" ry="12"/></g><g id="Layer_4" data-name="Layer 4"><line class="cls-7" x1="454.04" y1="800" x2="602" y2="800"/><line class="cls-7" x1="621.31" y1="800" x2="651.19" y2="800"/><line class="cls-7" x1="577.08" y1="813" x2="630" y2="813"/><line class="cls-7" x1="559.24" y1="813" x2="550.75" y2="813"/><line class="cls-7" x1="693.12" y1="815" x2="751" y2="815"/><line class="cls-7" x1="721.74" y1="800" x2="738" y2="800"/><line class="cls-7" x1="746" y1="800" x2="788" y2="800"/><line class="cls-7" x1="761" y1="815" x2="773" y2="815"/><line class="cls-7" x1="329.88" y1="815" x2="387.76" y2="815"/><line class="cls-7" x1="397.76" y1="815" x2="409.76" y2="815"/><line class="cls-7" x1="345.39" y1="800" x2="403.27" y2="800"/></g></svg>