<svg xmlns="http://www.w3.org/2000/svg" viewBox="0 0 1080 1080"><defs><style>.cls-1,.cls-6{fill:#edf6f7;}.cls-2{fill:#6b839a;}.cls-3{fill:none;}.cls-3,.cls-6{stroke:#6b839a;stroke-linecap:round;stroke-linejoin:round;stroke-width:5px;}.cls-4{fill:#fff;}.cls-5{fill:#6d859b;}</style></defs><title>workshop_networks</title><g id="Layer_2" data-name="Layer 2"><path class="cls-1" d="M589.5,790.5a193.59,193.59,0,0,1-136.9-56.15,151.08,151.08,0,0,1-155.5-.79A111.5,111.5,0,1,1,238,527.5c2.45,0,4.94.08,7.44.25A151.55,151.55,0,0,1,375.5,453.5c3.74,0,7.57.15,11.42.44C407.12,356.78,493.42,286.5,593,286.5A210.57,210.57,0,0,1,800.09,459.13c4.63-.42,9.3-.63,13.91-.63,84.64,0,153.5,68.86,153.5,153.5S898.64,765.5,814,765.5a152.16,152.16,0,0,1-89.81-29A193.87,193.87,0,0,1,589.5,790.5Z"/><path class="cls-2" d="M593,289c102.89,0,188.32,74.71,205,172.84a153.12,153.12,0,0,1,16-.84,151,151,0,1,1-90,272.23,192.46,192.46,0,0,1-271-2,148.56,148.56,0,0,1-155.9-.59A109,109,0,1,1,238,530c3,0,5.9.12,8.81.36A148.43,148.43,0,0,1,375.5,456q6.79,0,13.43.61C407.74,361.07,492,289,593,289m0-5A213.08,213.08,0,0,0,384.93,451.29c-3.18-.19-6.33-.29-9.43-.29a153.41,153.41,0,0,0-131.43,74.16c-2-.11-4.07-.16-6.07-.16a114,114,0,1,0,59.11,211.49,153.64,153.64,0,0,0,155.11,1,197.46,197.46,0,0,0,272.19,2.24A156,156,0,1,0,814,456c-3.93,0-7.91.15-11.87.45A212.81,212.81,0,0,0,593,284Z"/><path class="cls-3" d="M592.5,320a168.54,168.54,0,0,0-151.64,94.93"/><path class="cls-3" d="M791.5,495a132.58,132.58,0,0,0-24.73,2.33c.15-2.92.23-5.87.23-8.83A168.56,168.56,0,0,0,632.33,323.4"/><path class="cls-3" d="M911.84,554.51a132.19,132.19,0,0,0-50.64-50.08"/><path class="cls-3" d="M929,619.5a131.51,131.51,0,0,0-7.23-43.12"/><path class="cls-3" d="M244.09,722.66a84.83,84.83,0,0,1-84.82-84.83"/><path class="cls-3" d="M170.66,586.37A84.68,84.68,0,0,1,238.09,553"/></g><g id="Layer_3" data-name="Layer 3"><rect class="cls-1" x="243.24" y="376.68" width="173.78" height="173.78" rx="20.83" ry="20.83"/><path class="cls-2" d="M396.19,379.18a18.32,18.32,0,0,1,18.33,18.32V529.63A18.32,18.32,0,0,1,396.19,548H264.07a18.33,18.33,0,0,1-18.33-18.32V397.5a18.33,18.33,0,0,1,18.33-18.32H396.19m0-5H264.07a23.35,23.35,0,0,0-23.33,23.32V529.63A23.35,23.35,0,0,0,264.07,553H396.19a23.35,23.35,0,0,0,23.33-23.32V397.5a23.35,23.35,0,0,0-23.33-23.32Z"/><rect class="cls-4" x="287.26" y="422.01" width="84.72" height="84.72"/><rect class="cls-3" x="277.69" y="411.98" width="105.35" height="105.35" rx="0.55" ry="0.55"/><rect class="cls-5" x="275.75" y="332.4" width="13.85" height="37.79"/><rect class="cls-5" x="307.82" y="332" width="13.85" height="37.79"/><rect class="cls-5" x="339.09" y="332.4" width="13.85" height="37.79"/><rect class="cls-5" x="371.47" y="332.33" width="13.85" height="37.79"/><rect class="cls-5" x="275.75" y="556.1" width="13.85" height="37.79"/><rect class="cls-5" x="307.82" y="555.7" width="13.85" height="37.79"/><rect class="cls-5" x="339.09" y="556.1" width="13.85" height="37.79"/><rect class="cls-5" x="371.47" y="556.04" width="13.85" height="37.79"/><rect class="cls-5" x="435.66" y="492.71" width="13.85" height="37.79" transform="translate(-69.02 954.19) rotate(-90)"/><rect class="cls-5" x="435.26" y="460.64" width="13.85" height="37.79" transform="translate(-37.35 921.72) rotate(-90)"/><rect class="cls-5" x="435.66" y="429.37" width="13.85" height="37.79" transform="translate(-5.68 890.85) rotate(-90)"/><rect class="cls-5" x="435.59" y="397" width="13.85" height="37.79" transform="translate(26.63 858.41) rotate(-90)"/><rect class="cls-5" x="211.15" y="493.11" width="13.85" height="37.79" transform="translate(-293.93 730.09) rotate(-90)"/><rect class="cls-5" x="210.75" y="461.04" width="13.85" height="37.79" transform="translate(-262.25 697.61) rotate(-90)"/><rect class="cls-5" x="211.15" y="429.77" width="13.85" height="37.79" transform="translate(-230.58 666.75) rotate(-90)"/><rect class="cls-5" x="211.09" y="397.4" width="13.85" height="37.79" transform="translate(-198.27 634.3) rotate(-90)"/></g><g id="Layer_4" data-name="Layer 4"><path class="cls-4" d="M745.4,547.5A10.51,10.51,0,1,1,755.5,537,10.32,10.32,0,0,1,745.4,547.5Z"/><path class="cls-2" d="M745.4,529a8,8,0,1,1-7.6,8,7.8,7.8,0,0,1,7.6-8m0-5A13,13,0,1,0,758,537a12.82,12.82,0,0,0-12.6-13Z"/><polyline class="cls-3" points="372.09 755 579.64 536.5 733.05 536.5"/><polyline class="cls-3" points="298 734 414.36 611.5 455.68 611.5 563.73 497.75 660.86 497.75"/><path class="cls-4" d="M670.36,508.5a10.51,10.51,0,1,1,10.1-10.5A10.32,10.32,0,0,1,670.36,508.5Z"/><path class="cls-2" d="M670.36,490a8,8,0,1,1-7.6,8,7.8,7.8,0,0,1,7.6-8m0-5A13,13,0,1,0,683,498a12.82,12.82,0,0,0-12.6-13Z"/><polyline class="cls-3" points="331.25 749 428.14 647 521.23 647 589.14 575.5"/><path class="cls-4" d="M591.52,582.5a10.51,10.51,0,1,1,10.1-10.5A10.32,10.32,0,0,1,591.52,582.5Z"/><path class="cls-2" d="M591.52,564a8,8,0,1,1-7.6,8,7.81,7.81,0,0,1,7.6-8m0-5a13,13,0,1,0,12.6,13,12.82,12.82,0,0,0-12.6-13Z"/><polyline class="cls-6" points="430.63 745 487.63 685 556.02 685"/><path class="cls-4" d="M564.57,694.5a10.51,10.51,0,1,1,10.1-10.5A10.32,10.32,0,0,1,564.57,694.5Z"/><path class="cls-2" d="M564.57,676a8,8,0,1,1-7.6,8,7.8,7.8,0,0,1,7.6-8m0-5a13,13,0,1,0,12.6,13,12.82,12.82,0,0,0-12.6-13Z"/></g></svg>