<?xml version="1.0" encoding="utf-8"?>
<!-- Generator: Adobe Illustrator 22.1.0, SVG Export Plug-In . SVG Version: 6.00 Build 0)  -->
<svg version="1.1" id="Layer_1" xmlns="http://www.w3.org/2000/svg" xmlns:xlink="http://www.w3.org/1999/xlink" x="0px" y="0px"
	 viewBox="0 0 1516 262" style="enable-background:new 0 0 1516 262;" xml:space="preserve">
<style type="text/css">
	.st0{fill:#FFFFFF;}
</style>
<title>bebras-branner</title>
<path class="st0" d="M124.3,119.9c7.8,3.4,16.2,6.4,24,10.5c14.9,8,25.3,20,27.8,37.1c3.1,21.4-0.3,41.4-16.4,57.4
	c-9.9,9.9-22.5,15.1-36,17.6c-7.8,1.4-15.8,2.1-23.8,2.2c-18.5,0.3-37.1,0.2-55.6,0c-3.8,0-7.7-0.4-11.5-1.2
	c-10.6-2.1-15.3-7.6-16.6-19.3c-0.3-3.1-0.5-6.2-0.5-9.3c0-54.7,0-109.3,0-164c0-4,0.4-8,1.1-12c2.2-11.9,8.6-17.7,20.8-19.2
	c3.1-0.4,6.2-0.6,9.3-0.6c17.2,0,34.5-0.2,51.7,0.1c11.5,0.2,22.8,2.3,33.4,7.2c16.1,7.5,24.5,20.5,26.6,37.9c1,8.6,0.8,17-2.4,25.2
	c-4.2,10.6-11.9,18.1-21.3,24.1C131.4,116.1,127.6,118,124.3,119.9z M60.3,208c10.3,0,20.3,0.2,30.3-0.1c5.4-0.1,10.8-0.6,16.1-1.7
	c14.3-2.9,22.7-12.3,23.5-25.6c1-16-5.3-26-19.3-30.7c-2.6-1-5.3-1.6-8-1.9c-14-0.5-28-0.8-42-1.1c-0.1,0-0.3,0.2-0.6,0.3L60.3,208z
	 M60.3,110.1c7.7,0,15.3,0.1,22.9,0c3.9,0,7.7-0.4,11.5-1.1c14-3,22-14,21.1-28.2c-0.9-14.4-8.9-22.9-23.9-24
	c-10.3-0.8-20.7-0.4-31-0.5c-0.1,0-0.3,0.2-0.5,0.3L60.3,110.1z"/>
<path class="st0" d="M471.2,120.1c6.1,2.3,12.3,4.4,18.3,7.1c12,5.4,22.1,13,28.6,24.8c5.5,10,6.8,20.8,6.2,32
	c-0.9,15.9-5.8,30.2-17.6,41.5c-8.8,8.4-19.5,13.2-31.1,16.2c-8.8,2.2-17.9,3.4-27,3.3c-18.9,0-37.8,0.1-56.7-0.1
	c-3.9,0-7.9-0.4-11.7-1.2c-10.6-2-15.3-7.6-16.6-19.2c-0.3-3.1-0.5-6.2-0.5-9.3c0-54.7,0-109.3,0-164c0-4,0.4-8,1.1-12
	c2.2-11.9,8.6-17.8,20.7-19.3c3.1-0.4,6.2-0.6,9.3-0.6c17.2,0,34.5-0.2,51.7,0.1c11.5,0.2,22.8,2.3,33.4,7.2
	c16.2,7.5,24.6,20.5,26.7,37.9c1.1,9.1,0.8,18.1-3,26.7c-4.4,9.9-11.9,17.1-20.9,22.7C478.6,116.2,474.8,118.1,471.2,120.1z
	 M407.7,208c0.8,0,1.2,0.1,1.7,0.1c9.5,0,19.1,0.1,28.6-0.1c4.4-0.1,8.8-0.4,13.1-1.1c15.4-2.3,24.2-10.4,26.1-24.3
	c1.3-9.8-0.1-19.1-7.9-26.3c-5.2-4.8-11.9-7.6-18.9-8c-14.1-0.8-28.2-0.8-42.3-1.2c-0.1,0-0.3,0.2-0.5,0.3L407.7,208z M407.7,110.1
	c7.5,0,14.6,0.1,21.8,0c4.3,0,8.6-0.4,12.8-1.1c13.8-3,21.8-14,20.9-28.1c-0.9-14.4-8.9-22.8-23.9-24.1c-8.8-0.7-17.8-0.4-26.7-0.5
	c-1.6,0-3.2,0-5,0L407.7,110.1z"/>
<path class="st0" d="M599.6,146.2v3.8c0,22.1,0.2,44.2-0.1,66.3c-0.1,5.7-1,11.3-2.6,16.7c-4.3,14.2-16.9,16.2-27,13.1
	c-6.3-2-10.2-6.7-11.8-12.8c-1.6-5.5-2.6-11.2-2.7-17c-0.2-55.4-0.2-110.8-0.1-166.2c0-3.8,0.4-7.5,1.2-11.2
	c2.3-12,8.7-17.7,20.8-19.1c3.1-0.4,6.2-0.6,9.3-0.6c16.5,0,33-0.3,49.5,0.2c15.5,0.5,30.5,3.9,44.2,11.6
	c20.8,11.8,30.9,30,31.7,53.6c0.4,11.1-0.9,22-6.1,32c-7.2,14-19.3,22-33.7,26.9c-5.9,2-12,3.3-18.2,5l7.4,8.5
	c14,16.1,28.2,32.1,42.1,48.3c4.8,5.6,8.5,12,9.8,19.4c1.4,8-1,14.8-7.5,19.7c-5.9,4.8-14.2,5.7-21,2.3c-7.8-3.6-13.4-9.8-18.6-16.4
	c-21.5-27.2-42.9-54.4-64.3-81.7C601.3,148.2,600.7,147.5,599.6,146.2z M599.8,124.9c9.1,0,18,0.1,26.9,0c4.6,0,9.2-0.4,13.7-1.2
	c12.1-2.2,20.6-8.8,23.5-21.3c0.6-2.7,1-5.4,1.1-8.1c0.3-9.4-1.2-18.4-8.5-25.2c-5.4-5-12.4-7.8-19.8-7.9
	c-12.1-0.5-24.2-0.4-36.3-0.6c-0.2,0-0.3,0.1-0.6,0.3V124.9z"/>
<path class="st0" d="M1018.8,251c-17.4-0.5-34.2-3.2-50.2-9.9c-6-2.5-11.4-5.8-15.4-11.1c-4.9-6.5-5.6-17.2-1.5-24.2
	c3.7-6.3,9.9-8,16.6-8.5c7.3-0.6,14.1,1.7,21,3.5c9.8,2.6,19.6,5.4,29.5,7.6c9.7,2.1,19,0.9,27.2-5.2c15.3-11.4,15.1-33.4-0.5-44.3
	c-7.6-5.3-16.4-8.1-25-11.1c-12.2-4.2-24.7-7.6-36.2-13.7c-4.1-2.1-8-4.5-11.7-7.2c-12.2-8.8-18.9-21-20.3-35.9
	c-1.8-19,2.2-36.3,15-51c11.8-13.5,26.8-21.5,44.3-24.8c18.6-3.6,37.7-2.4,55.6,3.7c7.2,2.4,13.9,5.9,18.7,12c5.3,6.7,6.1,14.3,3,22
	c-2.8,7.1-9.1,9.1-16,9.4c-8.2,0.4-15.9-2.2-23.7-4.1c-8.7-2.2-17.4-4.5-26.6-3c-2.6,0.4-5.2,0.9-7.8,1.7
	c-7.9,2.5-12.9,7.8-14.3,16.1s0.7,15.5,7.4,20.9c5.8,4.7,12.7,7.2,19.6,9.7c11.6,4.2,23.3,8.2,34.7,13c10.4,4.3,19.7,10.8,27.4,19
	c11.8,12.6,16.6,27.8,15.8,44.9c-0.9,20.6-8.7,37.9-24.6,51.2c-11.6,9.6-25.2,14.9-39.9,17.2C1033.6,249.9,1026.2,250.2,1018.8,251z
	"/>
<path class="st0" d="M886.7,246.3c-1.9-3.8-4.2-7.5-5.7-11.4c-4.4-11.8-5.1-24.2-4.9-36.6c0.3-19.6,3.5-38.8,8.1-57.8l-83.5,36
	l47.4,21.5c-0.1,0.3-0.2,0.7-0.3,1c-8.4-1.5-16.9-3-25.3-4.5c-8.6-1.6-17.2-3.4-25.9-5.2c-8.5-1.8-17-3.8-25.9-5.7
	c0.5,4.2,1,8.1,1.5,11.9c1.7,12.8,2.8,25.7,2,38.7c-0.3,4.2-0.8,8.5-3,12.3c-2.7-1.1-2.8-2.8-2.6-5.4c0.9-8.8-0.5-17.6-2.4-26.2
	c-2.2-10.4-4.9-20.7-7.3-31c-0.5-2.3-1.3-4.2-4.4-4.5l2.5-1.9c-0.9-3.2-2-6.6-2.9-10c-3.1-11.7-7.2-23.2-9.2-35
	c-5.5-32.7,1.4-62.5,24-87.7c9.1-10.2,20.2-18.5,32.7-24.3c18-8.6,38.8-9.6,57.6-2.9c24.1,8.3,43.2,23,55.4,45.8
	c9,17,11.6,35.3,10.2,54.4c-1.1,14.6-5.8,28-11.5,41.3c-8.1,19-15.4,38.2-20.4,58.3c-2.1,8.4-3.7,16.8-2.6,25.6
	c0.1,1.1-1.5,2.3-2.3,3.5L886.7,246.3z M876.1,111.3c-5.1-9.5-10-18.5-14.8-27.7l-2.3,1c-30.8,13.8-62,26.8-94,37.7
	c-2.8,1-3.5,2.3-3.1,5c1.2,9.1,2.3,18.2,3.7,27.2c0.8,5.2,2,10.3,3.1,15.9C803.3,148.9,839.2,129.2,876.1,111.3L876.1,111.3z
	 M761.7,116l0.8,0.3c31.2-22,63.8-41.9,97.1-60.9c-0.2-0.3-0.5-0.6-0.8-0.9C845.3,44,830.2,40,814,46.2c-24.5,9.3-41.2,26.5-48.6,52
	C763.7,103.9,762.9,110,761.7,116z"/>
<path class="st0" d="M252.5,151.4v52.3h2.9c16.1,0,32.3-0.2,48.4,0.1c5.8,0.1,11.5,1.1,17,2.8c12.1,3.8,15,14,12.5,23.7
	c-1.6,6.3-6.2,10-12.1,11.7c-5.4,1.6-11,2.6-16.7,2.8c-22.9,0.3-45.9,0.2-68.8,0c-4.8-0.2-9.6-0.9-14.3-2.1
	c-6.5-1.5-10.4-6.1-11.8-12.5c-1-4.2-1.5-8.5-1.6-12.7c-0.1-55.7-0.1-111.3,0-167c0-3.9,0.4-7.7,1.2-11.5c2.4-12,8.7-17.7,20.9-19.1
	c3.3-0.4,6.6-0.6,9.9-0.6c20.8,0,41.6,0,62.5,0c6.8,0,13.6,0.9,19.8,3.9c6.9,3.2,10.4,8.7,10.5,16.4s-3,13.7-10.1,16.8
	c-4,1.8-8.2,3-12.6,3.5c-6.1,0.6-12.3,0.8-18.4,0.7c-12,0.1-24,0-36,0h-3.1v49.5h3c13.7,0,27.3,0,41,0c6.3-0.1,12.5,1,18.3,3.3
	c9.8,4,14.3,13,11.5,23.3c-1.6,5.7-5.6,9.1-10.8,11.3c-6.1,2.4-12.6,3.5-19.1,3.4c-13.6,0.1-27.1,0-40.7,0L252.5,151.4z"/>
<rect x="1161.4" y="24.9" class="st0" width="345.2" height="34.8"/>
<rect x="1161.4" y="204.1" class="st0" width="345.2" height="35"/>
<rect x="1161.4" y="91.4" class="st0" width="345.2" height="79"/>
</svg>
