<?xml version="1.0" encoding="utf-8"?>
<!-- Generator: Adobe Illustrator 22.1.0, SVG Export Plug-In . SVG Version: 6.00 Build 0)  -->
<svg version="1.1" id="Layer_1" xmlns="http://www.w3.org/2000/svg" xmlns:xlink="http://www.w3.org/1999/xlink" x="0px" y="0px"
	 viewBox="0 0 512 512" style="enable-background:new 0 0 512 512;" xml:space="preserve">
<style type="text/css">
	.st0{fill:#3E6E94;stroke:#EAEAEA;stroke-miterlimit:10;}
	.st1{fill:#606470;}
	.st2{fill:none;}
	.st3{fill:#AEFF94;}
	.st4{fill:#FFFFFF;}
	.st5{fill:#FCEA9D;}
	.st6{fill:#FC8888;}
	.st7{display:none;}
	.st8{fill:#A5D76E;}
	.st9{fill:#E2E2E2;}
	.st10{fill:#93DEFF;}
</style>
<g id="Layer_2_1_">
	<path class="st0" d="M456.7,501.8H55.3c-24.8,0-45-20.3-45-45V55.3c0-24.8,20.3-45,45-45h401.5c24.8,0,45,20.3,45,45v401.5
		C501.8,481.5,481.5,501.8,456.7,501.8z"/>
</g>
<g id="Layer_1_1_">
	<path class="st1" d="M456.8,424.3H55.3c-2.7,0-4.9-2.2-4.9-4.9V92.6c0-2.7,2.2-4.9,4.9-4.9h401.5c2.7,0,4.9,2.2,4.9,4.9v326.9
		C461.7,422.1,459.5,424.3,456.8,424.3z"/>
	<path class="st2" d="M439.7,144.1h-372c-4,0-7.1,3.2-7.1,7.1v257.6c0,4,3.2,7.1,7.1,7.1h372c4,0,7.1-3.2,7.1-7.1V151.3
		C446.8,147.3,443.7,144.1,439.7,144.1z"/>
	<circle class="st3" cx="110.6" cy="122.6" r="7.1"/>
	<circle class="st4" cx="439.7" cy="122.6" r="7.1"/>
	<circle class="st4" cx="421.4" cy="122.6" r="7.1"/>
	<circle class="st5" cx="89.2" cy="122.6" r="7.1"/>
	<circle class="st6" cx="67.7" cy="122.6" r="7.1"/>
	<path class="st7" d="M449.8,408.9c0,4-3.2,7.1-7.1,7.1h-372c-4,0-7.1-3.2-7.1-7.1V151.3c0-4,3.2-7.1,7.1-7.1h372
		c4,0,7.1,3.2,7.1,7.1V408.9z"/>
	<path class="st8" d="M110.6,115.5"/>
	<path class="st8" d="M110.6,129.8"/>
	<path class="st2" d="M382.5,294.4c0-4-3.2-7.1-7.1-7.1H260.8v-21.5h-14.3v21.5H132.1c-4,0-7.1,3.2-7.1,7.1v35.7h14.3v-28.6h107.3
		V323h14.3v-21.5h107.3V323h14.3V294.4L382.5,294.4z"/>
	<path class="st4" d="M56.8,144.1v271.8h398.7V144.1H56.8z M146.4,380.2h-28.6c-4,0-7.1-3.2-7.1-7.1s3.2-7.1,7.1-7.1h28.6
		c4,0,7.1,3.2,7.1,7.1S150.4,380.2,146.4,380.2z M160.7,351.6h-57.2c-4,0-7.1-3.2-7.1-7.1s3.2-7.1,7.1-7.1h57.2c4,0,7.1,3.2,7.1,7.1
		C167.9,348.4,164.6,351.6,160.7,351.6z M425.4,389.5c0,2.8-2.3,5-5,5h-90.2c-2.8,0-5-2.3-5-5v-61.6c0-2.8,2.3-5,5-5h37.9v-21.5
		H260.8v21.5h37.9c2.8,0,5,2.3,5,5v61.6c0,2.8-2.3,5-5,5h-90.1c-2.8,0-5-2.3-5-5v-61.6c0-2.8,2.3-5,5-5h37.9v-21.5H139.3V330H125
		v-35.7c0-4,3.2-7.1,7.1-7.1h114.4v-21.4h-71c-4.3,0-7.7-3.5-7.7-7.7v-84.8c0-4.3,3.5-7.7,7.7-7.7h156.3c4.3,0,7.7,3.5,7.7,7.7V258
		c0,4.3-3.5,7.7-7.7,7.7h-71v21.5h114.4c4,0,7.1,3.2,7.1,7.1v28.6h37.9c2.8,0,5,2.3,5,5v61.6L425.4,389.5L425.4,389.5z"/>
	<path class="st9" d="M203.6,179.9h100.2c4,0,7.1,3.2,7.1,7.1c0,4-3.2,7.1-7.1,7.1H203.6c-4,0-7.1-3.2-7.1-7.1
		C196.5,183.2,199.7,179.9,203.6,179.9z"/>
	<path class="st9" d="M182.1,215.7c0-4,3.2-7.1,7.1-7.1H318c4,0,7.1,3.2,7.1,7.1c0,4-3.2,7.1-7.1,7.1H189.4
		C185.4,222.8,182.1,219.6,182.1,215.7z"/>
	<path class="st9" d="M225.1,244.3c0-4,3.2-7.1,7.1-7.1h43c4,0,7.1,3.2,7.1,7.1c0,4-3.2,7.1-7.1,7.1h-43
		C228.3,251.4,225.1,248.2,225.1,244.3z"/>
	<path class="st2" d="M160.7,337.3h-57.2c-4,0-7.1,3.2-7.1,7.1s3.2,7.1,7.1,7.1h57.2c4,0,7.1-3.2,7.1-7.1
		C167.9,340.5,164.6,337.3,160.7,337.3z"/>
	<path class="st2" d="M146.4,365.9h-28.6c-4,0-7.1,3.2-7.1,7.1s3.2,7.1,7.1,7.1h28.6c4,0,7.1-3.2,7.1-7.1S150.4,365.9,146.4,365.9z"
		/>
	<path class="st10" d="M177.2,323H87c-2.8,0-5,2.3-5,5v61.6c0,2.8,2.3,5,5,5h90.2c2.8,0,5-2.3,5-5V328
		C182.1,325.2,180,323,177.2,323z M146.4,380.2h-28.6c-4,0-7.1-3.2-7.1-7.1s3.2-7.1,7.1-7.1h28.6c4,0,7.1,3.2,7.1,7.1
		S150.4,380.2,146.4,380.2z M160.7,351.6h-57.2c-4,0-7.1-3.2-7.1-7.1s3.2-7.1,7.1-7.1h57.2c4,0,7.1,3.2,7.1,7.1
		C167.9,348.4,164.6,351.6,160.7,351.6z"/>
	<path class="st10" d="M298.8,323h-90.2c-2.8,0-5,2.3-5,5v61.6c0,2.8,2.3,5,5,5h90.2c2.8,0,5-2.3,5-5V328
		C303.7,325.2,301.5,323,298.8,323z M268,380.2h-28.6c-4,0-7.1-3.2-7.1-7.1s3.2-7.1,7.1-7.1H268c4,0,7.1,3.2,7.1,7.1
		S271.9,380.2,268,380.2z M282.2,351.6H225c-4,0-7.1-3.2-7.1-7.1s3.2-7.1,7.1-7.1h57.2c4,0,7.1,3.2,7.1,7.1
		C289.4,348.4,286.2,351.6,282.2,351.6z"/>
	<path class="st10" d="M420.4,323h-90.2c-2.8,0-5,2.3-5,5v61.6c0,2.8,2.3,5,5,5h90.2c2.8,0,5-2.3,5-5V328
		C425.4,325.2,423.2,323,420.4,323z M389.6,380.2H361c-4,0-7.1-3.2-7.1-7.1s3.2-7.1,7.1-7.1h28.6c4,0,7.1,3.2,7.1,7.1
		C396.8,377,393.6,380.2,389.6,380.2z M403.9,351.6h-57.2c-4,0-7.1-3.2-7.1-7.1s3.2-7.1,7.1-7.1h57.2c4,0,7.1,3.2,7.1,7.1
		C411.1,348.4,407.9,351.6,403.9,351.6z"/>
	<path class="st4" d="M404.5,129.8H127.2c-1.2,0-2.3-1-2.3-2.3v-9.8c0-1.2,1-2.3,2.3-2.3h277.3c1.2,0,2.3,1,2.3,2.3v9.8
		C406.7,128.8,405.7,129.8,404.5,129.8z"/>
</g>
</svg>
