<?xml version="1.0" encoding="utf-8"?>
<!-- Generator: Adobe Illustrator 22.1.0, SVG Export Plug-In . SVG Version: 6.00 Build 0)  -->
<svg version="1.1" id="Layer_1" xmlns="http://www.w3.org/2000/svg" xmlns:xlink="http://www.w3.org/1999/xlink" x="0px" y="0px"
	 viewBox="0 0 512 512" style="enable-background:new 0 0 512 512;" xml:space="preserve">
<style type="text/css">
	.st0{fill:#3E6E94;stroke:#EAEAEA;stroke-miterlimit:10;}
	.st1{display:none;}
	.st2{display:inline;fill:#FFFFFF;stroke:#EAEAEA;stroke-miterlimit:10;}
	.st3{fill:#2DA9DD;stroke:#FFFFFF;stroke-width:6;stroke-miterlimit:10;}
	.st4{display:none;fill:#2DA9DD;stroke:#FFFFFF;stroke-width:6;stroke-miterlimit:10;}
	.st5{fill:#FFFFFF;}
</style>
<g id="Layer_2_1_">
	<path class="st0" d="M456.7,501.8H55.3c-24.8,0-45-20.3-45-45V55.3c0-24.8,20.3-45,45-45h401.5c24.8,0,45,20.3,45,45v401.5
		C501.8,481.5,481.5,501.8,456.7,501.8z"/>
</g>
<g id="Layer_2_2_" class="st1">
	<rect x="148.6" y="140" class="st2" width="235.6" height="199"/>
</g>
<g id="Layer_1_1_">
	<path class="st3" d="M256.1,64.4c-72,0-98,70.9-158.4,70.9c0,195.6,49.1,249.5,158.4,312.5c109.2-63,158.4-116.9,158.4-312.5
		C354,135.2,328.1,64.4,256.1,64.4z"/>
	<path class="st4" d="M242.2,304.6c-0.1,0.1-0.2,0.2-0.2,0.2l-0.3,0.3c-0.1,0.1-0.1,0.1-0.2,0.2l-0.3,0.3c-0.1,0.1-0.1,0.1-0.2,0.2
		l-0.4,0.3c-0.1,0.1-0.2,0.2-0.2,0.2l-0.2,0.2c-0.1,0.1-0.2,0.2-0.3,0.2l-0.4,0.3c-0.1,0-0.1,0.1-0.2,0.1l-0.4,0.3
		c-0.1,0.1-0.2,0.1-0.2,0.2l-0.4,0.2c-0.1,0.1-0.2,0.1-0.2,0.2l-0.4,0.2c-0.1,0-0.1,0.1-0.2,0.1l-0.4,0.2c-0.1,0-0.2,0.1-0.2,0.1
		l-0.4,0.2c-0.1,0-0.2,0.1-0.2,0.1l-0.4,0.2c-0.1,0-0.2,0.1-0.2,0.1l-0.2,0.1c-0.2,0.1-0.2,0.2-0.4,0.2l-0.4,0.2
		c-0.1,0-0.1,0.1-0.2,0.1l-0.4,0.2c-0.1,0-0.2,0.1-0.2,0.1l-0.2,0.1c-0.2,0.1-0.2,0.2-0.4,0.2l-0.4,0.2c-0.1,0-0.1,0-0.2,0.1
		l-0.4,0.2c-0.1,0-0.2,0.1-0.2,0.1l-0.5,0.2c-0.1,0-0.2,0.1-0.2,0.1l-0.2,0.1c-0.2,0.1-0.2,0.1-0.4,0.2l-0.5,0.2
		c-0.1,0-0.2,0-0.2,0.1l-0.5,0.2c-0.1,0-0.1,0-0.2,0.1l-0.5,0.1c-0.1,0-0.2,0-0.2,0.1l-0.5,0.1c-0.1,0-0.1,0-0.2,0l-0.5,0.1
		c-0.1,0-0.2,0-0.2,0.1h-0.2c-0.2,0-0.2,0.1-0.4,0.1l-0.5,0.1c-0.1,0-0.2,0-0.2,0l-0.5,0.1c-0.1,0-0.2,0-0.2,0h-0.2
		c-0.2,0-0.3,0-0.4,0.1h-0.5c-0.1,0-0.2,0-0.2,0h-0.2c-0.2,0-0.3,0-0.4,0h-0.5c-0.1,0-0.1,0-0.2,0h-0.5c-0.1,0-0.1,0-0.2,0
		s-0.1,0-0.2,0h-0.5c-0.1,0-0.1,0-0.2,0h-0.5c-0.2,0-0.3,0-0.4,0H220c-0.1,0-0.2,0-0.2,0h-0.5c-0.2,0-0.3,0-0.4-0.1h-0.2
		c-0.1,0-0.2,0-0.2,0l-0.5-0.1c-0.1,0-0.2,0-0.2,0l-0.5-0.1c-0.2,0-0.2-0.1-0.4-0.1h-0.2c-0.1,0-0.2,0-0.2-0.1l-0.5-0.1
		c-0.1,0-0.2,0-0.2-0.1l-0.5-0.1c-0.1,0-0.2,0-0.2-0.1l-0.5-0.1c-0.1,0-0.2,0-0.2-0.1l-0.5-0.2c-0.1,0-0.2,0-0.2-0.1l-0.5-0.2
		c-0.2-0.1-0.3-0.1-0.5-0.2l-0.2-0.1c-0.1,0-0.2-0.1-0.2-0.1l-0.5-0.2c-0.1,0-0.2-0.1-0.2-0.1l-0.4-0.2c0,0-0.1,0-0.1-0.1l-0.4-0.2
		c-0.2-0.1-0.3-0.2-0.5-0.2L210,310c-0.1,0-0.2-0.1-0.2-0.1l-0.4-0.2c-0.1,0-0.2-0.1-0.2-0.1l-0.4-0.2c-0.1,0-0.1-0.1-0.2-0.1
		l-0.4-0.2c-0.1-0.1-0.2-0.1-0.2-0.2l-0.4-0.2c-0.1,0-0.1-0.1-0.2-0.1l-0.4-0.2c-0.1,0-0.1-0.1-0.2-0.1l-0.4-0.2
		c-0.1-0.1-0.2-0.1-0.2-0.2l-0.4-0.2c-0.1-0.1-0.1-0.1-0.2-0.2l-0.4-0.2c-0.1,0-0.1-0.1-0.2-0.1l-0.4-0.3c-0.1-0.1-0.2-0.1-0.2-0.2
		l-0.4-0.3c-0.1,0-0.1-0.1-0.2-0.1l-0.4-0.3c-0.1-0.1-0.1-0.1-0.2-0.2l-0.4-0.3c-0.1-0.1-0.2-0.1-0.2-0.2l1.4-0.3
		c-0.1-0.1-0.1-0.1-0.2-0.2l-0.3-0.3l-39.8-39.8c-10.5-10.5-10.5-27.7,0-38.3c5.1-5.1,11.9-7.9,19.1-7.9s14.1,2.8,19.1,7.9
		l20.6,20.6l87-87c5.1-5.1,11.9-7.9,19.1-7.9c7.3,0,14.1,2.8,19.1,7.9c10.5,10.5,10.5,27.7,0,38.3L242.2,304.6z"/>
	<path class="st5" d="M342.2,192.7l-106,106.1l0,0l-0.3,0.3l-0.4,0.3l-0.4,0.3l-0.4,0.3l0,0l-0.4,0.3l-0.4,0.3l-0.4,0.2l-0.4,0.2
		l-0.4,0.2l-0.4,0.2l-0.4,0.2l-0.4,0.2l0,0l-0.4,0.2l-0.4,0.2l-0.4,0.2l0,0l-0.4,0.2l-0.4,0.2L229,303l-0.5,0.2l0,0l-0.5,0.2
		l-0.5,0.2l-0.5,0.1l-0.5,0.1l-0.5,0.1l-0.5,0.1l0,0l-0.5,0.1l-0.5,0.1l-0.5,0.1l0,0l0,0h-0.5l0,0H223h-0.5H222h-0.5l0,0H221h-0.5
		l0,0l-0.5-0.1l-0.5-0.1L219,304l0,0l-0.5-0.1l-0.5-0.1l-0.5-0.1l-0.5-0.1l-0.5-0.2l-0.5-0.2l0,0l-0.4-0.2l-0.5-0.2l-0.4-0.2
		l-0.4-0.2l0,0l-0.4-0.2l-0.4-0.2l-0.4-0.2l-0.4-0.2l-0.4-0.2l-0.4-0.2l-0.4-0.2l-0.4-0.2l-0.4-0.2l-0.4-0.3l-0.4-0.3l-0.4-0.3
		l-0.4-0.3l-0.3-0.3l-0.3-0.3L169.4,259c-7.3-7.3-7.3-19.2,0-26.6c7.3-7.3,19.2-7.3,26.6,0l26.5,26.6l93.4-92.8
		c7.3-7.3,19.2-7.3,26.5,0C349.6,173.5,349.6,185.4,342.2,192.7z"/>
	<path class="st5" d="M414.4,126.9c-26,0-45.8-15.2-66.6-31.3c-24.1-18.5-51.3-39.5-91.7-39.5s-67.7,21-91.7,39.5
		c-20.9,16.1-40.6,31.3-66.6,31.3c-4.6,0-8.4,3.8-8.4,8.4c0,97.3,12.1,162.1,39.3,210.1c27,47.7,67.2,77.3,123.2,109.6
		c1.2,0.8,2.7,1.1,4.1,1.1s2.9-0.4,4.1-1.1c56.1-32.3,96.2-62,123.2-109.6c27.2-48,39.3-112.7,39.3-210.1
		C422.7,130.6,419,126.9,414.4,126.9z M256.1,438.1c-100.5-58.6-148.7-109.1-150-294.9c27.4-2.7,48.3-18.8,68.4-34.4
		c23-17.7,46.7-36,81.5-36s58.5,18.3,81.5,36c20.2,15.5,41,31.6,68.4,34.4C404.7,328.9,356.6,379.5,256.1,438.1z"/>
	<path class="st5" d="M157.6,151.2c-2.1-4.1-7.2-5.6-11.2-3.5c-1,0.5-2.1,1.1-3.1,1.6c-4.1,2-5.9,7-3.8,11.2c1.5,3,4.4,4.7,7.5,4.7
		c1.2,0,2.5-0.3,3.7-0.9c1.2-0.6,2.3-1.2,3.5-1.8C158.2,160.3,159.7,155.3,157.6,151.2z"/>
	<path class="st5" d="M377.6,216.6c0.2,0,0.5,0,0.8,0c4.3,0,7.9-3.3,8.3-7.6c0.1-1.1,0.2-2.1,0.3-3.2c0.4-4.6-3-8.6-7.6-9
		s-8.6,3-9,7.6c-0.1,1-0.2,2-0.2,3.1C369.7,212.1,373,216.1,377.6,216.6z"/>
	<path class="st5" d="M174.1,148.3c1.7,0,3.4-0.5,4.8-1.6c4.8-3.5,9.5-7,14.1-10.5c21.2-16.2,39.6-30.2,63-30.2
		c4.6,0,8.4-3.8,8.4-8.4s-3.8-8.4-8.4-8.4c-29.1,0-50.5,16.3-73.1,33.6c-4.5,3.4-9.1,6.9-13.8,10.3c-3.8,2.7-4.6,7.9-1.9,11.6
		C169,147.1,171.5,148.3,174.1,148.3z"/>
	<path class="st5" d="M256.1,399.3c-21.3-13.1-47.1-30.8-66.4-53.6c-3-3.5-8.2-3.9-11.7-0.9s-3.9,8.2-0.9,11.7
		c22.2,26.2,51.6,45.6,74.8,59.7c0.1,0,0.1,0.1,0.2,0.1c0.2,0.1,0.4,0.2,0.6,0.3c0.2,0.1,0.2,0.2,0.4,0.2c0.2,0.1,0.4,0.2,0.5,0.2
		c0.2,0.1,0.3,0.1,0.5,0.2s0.3,0.1,0.5,0.1s0.4,0.1,0.5,0.1c0.2,0,0.5,0.1,0.8,0.1c0.1,0,0.2,0,0.3,0l0,0l0,0c0.1,0,0.2,0,0.3,0
		c0.2,0,0.5,0,0.8-0.1c0.2,0,0.4-0.1,0.5-0.1s0.4-0.1,0.5-0.1c0.2-0.1,0.3-0.1,0.5-0.2s0.4-0.2,0.5-0.2c0.2-0.1,0.2-0.2,0.4-0.2
		c0.2-0.1,0.4-0.2,0.6-0.3c0.1,0,0.1-0.1,0.2-0.1c23.1-14.1,52.6-33.5,74.8-59.7c25.3-29.8,41.2-70.2,48.8-123.4
		c0.6-4.5-2.5-8.8-7.1-9.5c-4.5-0.6-8.8,2.5-9.5,7.1c-7,50-21.8,87.7-45,115C303.2,368.5,277.4,386.1,256.1,399.3z"/>
</g>
</svg>
