<?xml version="1.0" encoding="utf-8"?>
<!-- Generator: Adobe Illustrator 22.1.0, SVG Export Plug-In . SVG Version: 6.00 Build 0)  -->
<svg version="1.1" xmlns="http://www.w3.org/2000/svg" xmlns:xlink="http://www.w3.org/1999/xlink" x="0px" y="0px"
	 viewBox="0 0 1080 1080" style="enable-background:new 0 0 1080 1080;" xml:space="preserve">
<style type="text/css">
	.st0{fill:#FFFFFF;}
	.st1{fill:#6B839A;}
	.st2{fill:#EDF6F7;stroke:#6B839A;stroke-width:5;stroke-linecap:round;stroke-linejoin:round;}
	.st3{fill:#FFFFFF;stroke:#6B839A;stroke-width:5;stroke-linecap:round;stroke-linejoin:round;}
	.st4{fill:none;stroke:#6B839A;stroke-width:5;stroke-linecap:round;stroke-linejoin:round;}
	
		.st5{opacity:0.5;fill:#EDF6F7;stroke:#6B839A;stroke-width:10;stroke-linecap:round;stroke-linejoin:round;enable-background:new    ;}
	.st6{fill:#EDF6F7;stroke:#6B839A;stroke-width:10;stroke-linecap:round;stroke-linejoin:round;}
</style>
<g id="Layer_2">
	<path class="st0" d="M1026.1,1071.6H53.9c-25.1,0-45.5-20.4-45.5-45.5V53.9c0-25.1,20.4-45.5,45.5-45.5h972.1
		c25.1,0,45.5,20.4,45.5,45.5v972.1C1071.6,1051.2,1051.2,1071.6,1026.1,1071.6z"/>
</g>
<g id="Layer_1">
	<title>workshop_multi</title>
	<g id="Layer_2_1_">
		<rect x="167.8" y="340.6" class="st1" width="648.8" height="458.3"/>
		<rect x="210.5" y="303.5" class="st2" width="648.8" height="458.3"/>
		<polyline class="st3" points="909.8,569.8 909.8,714.5 261,714.5 261,256.2 909.8,256.2 909.8,340.6 		"/>
		<line class="st4" x1="909.8" y1="431.5" x2="909.8" y2="549.2"/>
		<line class="st4" x1="909.8" y1="362" x2="909.8" y2="408"/>
	</g>
	<g id="Layer_3">
		<line class="st4" x1="885.6" y1="292.6" x2="885.6" y2="587.4"/>
		<line class="st4" x1="885.6" y1="603.7" x2="885.6" y2="639.1"/>
		<line class="st4" x1="862" y1="413.6" x2="862" y2="616.7"/>
		<line class="st4" x1="862" y1="633" x2="862" y2="675.4"/>
		<path class="st2" d="M304.8,672.4h475.8L662.7,372.9c-9.9-25.2-45.6-26.8-57.8-2.6L529,520.8c-8.7,17.3-33.7,17.6-42.9,0.5
			l-20.5-38.4c-13.9-25.9-51.7-25.5-65,0.7L304.8,672.4z"/>
		<path class="st4" d="M353.7,584.7l26.6-14.2c8.7-4.6,19.3-4.2,27.5,1.3l5.9,3.9c8.4,5.5,19.2,5.9,28,1l11.4-6.4
			c8.1-4.6,18.1-4.6,26.2-0.1l12,6.6c8.7,4.8,19.4,4.4,27.8-1l5.6-3.6c8.7-5.6,19.8-5.8,28.6-0.5l8.1,4.9c8.3,5,18.6,5.2,27.1,0.4
			l10.8-6.1c8.8-4.9,19.6-4.5,28,1l3.1,2c9.2,6.1,21.3,5.9,30.3-0.4l0,0c9.2-6.4,21.3-6.5,30.6-0.2l0.8,0.5
			c9.5,6.5,22.1,6.2,31.3-0.7l13.6-10.2"/>
		<circle class="st2" cx="381.3" cy="336.6" r="44"/>
	</g>
	<g id="Layer_5">
		<path class="st1" d="M556.4,423.2c-59.6,56.8-61.8,151-5.1,210.6c56.8,59.6,151,61.8,210.6,5.1c59.5-56.7,61.8-151,5.1-210.6
			C710.3,368.8,616,366.5,556.4,423.2C556.4,423.2,556.4,423.2,556.4,423.2z M746.9,625.1c-51.2,48.7-132.2,46.8-181-4.5
			c-48.7-51.2-46.8-132.2,4.5-181c51.2-48.7,132.2-46.8,180.9,4.4C800.1,495.3,798.1,576.3,746.9,625.1
			C746.9,625.1,746.9,625.1,746.9,625.1z"/>
		<line class="st4" x1="744.3" y1="536.4" x2="677.2" y2="602.2"/>
		<line class="st4" x1="754.8" y1="481.1" x2="692.3" y2="542.5"/>
		<line class="st4" x1="680.5" y1="555.9" x2="666.8" y2="569.3"/>
		<line class="st4" x1="669.5" y1="520.8" x2="622.9" y2="566.5"/>
		<circle class="st5" cx="659" cy="531.6" r="123.1"/>
		<path class="st6" d="M743.2,637.7l16.5-15.7c5.4-5.1,13.9-4.9,19.1,0.5l127.9,134.2c5.1,5.4,4.9,13.9-0.5,19.1l-16.5,15.7
			c-5.4,5.1-13.9,4.9-19.1-0.5L742.7,656.8C737.6,651.4,737.8,642.8,743.2,637.7z"/>
		<path class="st1" d="M820.6,720.4l16.9-16.1c5.4-5.1,13.9-4.9,19.1,0.5l51.9,54.5c5.1,5.4,4.9,13.9-0.5,19.1l-16.9,16.1
			c-5.4,5.1-13.9,4.9-19.1-0.5l-51.9-54.5C815,734.1,815.2,725.6,820.6,720.4z"/>
	</g>
</g>
</svg>
